<svg xmlns="http://www.w3.org/2000/svg" xmlns:xlink="http://www.w3.org/1999/xlink" width="214" height="46" viewBox="0 0 214 46">
    <defs>
        <path id="7w5ectok8a" d="M0 45.678L213.963 45.678 213.963 0.008 0 0.008z"/>
    </defs>
    <g fill="none" fill-rule="evenodd">
        <g>
            <g>
                <g>
                    <g>
                        <g>
                            <path fill="#131B3C" d="M128.661 4.493l-.916-2.23-.916 2.23h1.832zM127.065.446h1.4l2.955 6.926h-1.586l-.63-1.543h-2.917l-.631 1.543h-1.547l2.956-6.926z" transform="translate(-14 -787) translate(0 760) translate(14 27)"/>
                            <g transform="translate(-14 -787) translate(0 760) translate(14 27) translate(0 .172)">
                                <path fill="#131B3C" d="M131.431 4.597v-.02c0-1.503 1.153-2.74 2.769-2.74.995 0 1.616.334 2.109.884l-.917.982c-.335-.354-.67-.58-1.202-.58-.749 0-1.28.659-1.28 1.435v.02c0 .805.521 1.453 1.34 1.453.502 0 .847-.216 1.211-.56l.877.884c-.512.56-1.103.963-2.158.963-1.586 0-2.749-1.218-2.749-2.721M136.516 4.597v-.02c0-1.503 1.153-2.74 2.769-2.74.995 0 1.616.334 2.109.884l-.917.982c-.335-.354-.67-.58-1.202-.58-.749 0-1.28.659-1.28 1.435v.02c0 .805.522 1.453 1.34 1.453.502 0 .847-.216 1.211-.56l.877.884c-.512.56-1.103.963-2.158.963-1.586 0-2.749-1.218-2.749-2.721M145.326 4.155c-.089-.668-.483-1.12-1.114-1.12-.62 0-1.024.442-1.143 1.12h2.257zm-3.725.442v-.02c0-1.503 1.074-2.74 2.611-2.74 1.764 0 2.572 1.365 2.572 2.858 0 .118-.01.255-.02.393h-3.675c.148.678.62 1.032 1.29 1.032.503 0 .868-.158 1.282-.54l.857.756c-.492.609-1.202.982-2.158.982-1.586 0-2.759-1.11-2.759-2.72z"/>
                                <mask id="zyqzzjztwb" fill="#fff">
                                    <use xlink:href="#7w5ectok8a"/>
                                </mask>
                                <path fill="#131B3C" d="M147.573 7.2L149.071 7.2 149.071.029 147.573.029zM153.554 4.155c-.088-.668-.483-1.12-1.113-1.12-.62 0-1.025.442-1.143 1.12h2.256zm-3.724.442v-.02c0-1.503 1.074-2.74 2.61-2.74 1.765 0 2.573 1.365 2.573 2.858 0 .118-.01.255-.02.393h-3.675c.147.678.62 1.032 1.29 1.032.503 0 .868-.158 1.281-.54l.858.756c-.493.609-1.203.982-2.158.982-1.587 0-2.76-1.11-2.76-2.72zM155.733 1.935h1.497v1.06c.306-.726.798-1.198 1.685-1.158v1.562h-.078c-.996 0-1.607.599-1.607 1.856V7.2h-1.497V1.935zM162.335 5.343v-.265c-.256-.118-.591-.196-.956-.196-.64 0-1.034.255-1.034.727v.02c0 .402.335.638.818.638.7 0 1.172-.383 1.172-.924m-3.439.344v-.02c0-1.149.877-1.679 2.129-1.679.532 0 .916.088 1.29.216v-.088c0-.62-.384-.963-1.133-.963-.571 0-.975.108-1.458.285l-.374-1.14c.58-.255 1.152-.422 2.049-.422.818 0 1.41.216 1.784.59.394.392.571.972.571 1.68V7.2h-1.448v-.57c-.365.403-.868.668-1.597.668-.995 0-1.813-.57-1.813-1.61M164.849 5.707V3.212h-.631V1.935h.63V.589h1.498v1.346h1.242v1.277h-1.242v2.25c0 .343.148.51.483.51.276 0 .522-.069.74-.187v1.2c-.316.186-.68.303-1.183.303-.917 0-1.537-.363-1.537-1.581M168.367 7.2h1.497V1.935h-1.497V7.2zm-.04-5.845h1.577V.03h-1.577v1.326zM170.88 1.935h1.497v.746c.345-.442.789-.844 1.547-.844 1.134 0 1.794.746 1.794 1.954v3.41h-1.498V4.262c0-.707-.335-1.07-.907-1.07-.571 0-.936.363-.936 1.07V7.2h-1.497V1.935zM180.458 4.312v-.02c0-.717-.562-1.218-1.291-1.218-.73 0-1.281.501-1.281 1.219v.02c0 .726.552 1.217 1.281 1.217.73 0 1.29-.5 1.29-1.218m-3.803 3.93l.513-1.12c.542.304 1.084.48 1.783.48 1.025 0 1.508-.49 1.508-1.433v-.256c-.444.53-.926.855-1.725.855-1.231 0-2.345-.894-2.345-2.456v-.02c0-1.571 1.133-2.455 2.345-2.455.818 0 1.301.343 1.705.785v-.687h1.498V6.01c0 .944-.227 1.631-.67 2.073-.493.492-1.252.708-2.276.708-.857 0-1.665-.197-2.336-.55M127.755 13.158c.739 0 1.163-.393 1.163-.973v-.02c0-.648-.454-.982-1.193-.982h-1.507v1.975h1.537zm-3.055-3.34h3.153c.877 0 1.557.245 2.01.697.385.383.592.923.592 1.572v.02c0 1.11-.601 1.807-1.478 2.131l1.685 2.456h-1.774l-1.478-2.2h-1.192v2.2H124.7V9.818zM134.643 13.649c-.088-.668-.483-1.12-1.113-1.12-.62 0-1.025.442-1.143 1.12h2.256zm-3.724.442v-.02c0-1.503 1.074-2.74 2.61-2.74 1.765 0 2.573 1.365 2.573 2.858 0 .118-.01.255-.02.393h-3.675c.147.678.62 1.032 1.29 1.032.503 0 .867-.158 1.281-.54l.858.756c-.493.609-1.203.982-2.158.982-1.587 0-2.76-1.11-2.76-2.721zM136.408 15.997l.64-.983c.572.413 1.173.629 1.666.629.433 0 .63-.157.63-.393v-.02c0-.324-.512-.432-1.094-.609-.739-.216-1.576-.56-1.576-1.581v-.02c0-1.07.867-1.67 1.931-1.67.67 0 1.4.226 1.97.61l-.57 1.03c-.523-.304-1.045-.49-1.43-.49-.364 0-.551.157-.551.363v.02c0 .294.502.432 1.074.628.739.246 1.596.6 1.596 1.562v.02c0 1.169-.877 1.7-2.02 1.7-.739 0-1.567-.246-2.266-.796M144.843 13.649c-.089-.668-.483-1.12-1.113-1.12-.621 0-1.025.442-1.144 1.12h2.257zm-3.725.442v-.02c0-1.503 1.074-2.74 2.612-2.74 1.763 0 2.571 1.365 2.571 2.858 0 .118-.01.255-.02.393h-3.675c.148.678.621 1.032 1.291 1.032.503 0 .867-.158 1.281-.54l.857.756c-.492.609-1.202.982-2.158.982-1.586 0-2.759-1.11-2.759-2.721zM150.145 14.837v-.265c-.256-.118-.591-.196-.956-.196-.64 0-1.034.255-1.034.727v.02c0 .402.334.638.817.638.7 0 1.173-.383 1.173-.924m-3.439.344v-.02c0-1.149.877-1.68 2.128-1.68.533 0 .917.09 1.291.217v-.088c0-.62-.384-.963-1.133-.963-.572 0-.976.108-1.458.285l-.375-1.14c.582-.255 1.153-.422 2.05-.422.818 0 1.409.216 1.783.59.394.392.572.972.572 1.679v3.055h-1.449v-.57c-.364.403-.867.668-1.596.668-.995 0-1.813-.57-1.813-1.61M152.461 11.429h1.498v1.06c.305-.726.798-1.198 1.685-1.159v1.562h-.08c-.994 0-1.605.6-1.605 1.857v1.945h-1.498V11.43zM155.782 14.09v-.019c0-1.503 1.153-2.74 2.769-2.74.995 0 1.616.333 2.109.883l-.917.983c-.335-.354-.67-.58-1.202-.58-.749 0-1.28.658-1.28 1.434v.02c0 .806.521 1.454 1.34 1.454.502 0 .847-.216 1.211-.56l.877.884c-.512.56-1.103.963-2.158.963-1.586 0-2.749-1.218-2.749-2.721M161.271 9.523h1.498v2.652c.345-.442.788-.845 1.547-.845 1.133 0 1.793.747 1.793 1.955v3.409h-1.497v-2.937c0-.708-.335-1.071-.907-1.071-.572 0-.936.363-.936 1.07v2.938h-1.498V9.523zM169.648 16.694h1.497V11.43h-1.497v5.265zm-.04-5.845h1.577V9.523h-1.577v1.326zM172.16 11.429h1.498v.746c.345-.442.789-.845 1.547-.845 1.133 0 1.794.747 1.794 1.955v3.41H175.5v-2.938c0-.707-.335-1.07-.907-1.07-.571 0-.936.363-.936 1.07v2.937h-1.497V11.43zM124.395 22.77v-.02c0-1.955 1.527-3.556 3.616-3.556 1.242 0 1.99.333 2.71.943l-.956 1.149c-.532-.442-1.005-.698-1.803-.698-1.104 0-1.98.973-1.98 2.142v.02c0 1.257.866 2.18 2.088 2.18.552 0 1.045-.137 1.429-.412v-.982h-1.527v-1.307h2.995v2.986c-.71.6-1.685 1.09-2.946 1.09-2.148 0-3.626-1.502-3.626-3.536M135.343 23.143c-.089-.668-.483-1.12-1.113-1.12-.621 0-1.025.442-1.143 1.12h2.256zm-3.724.442v-.02c0-1.503 1.073-2.74 2.61-2.74 1.764 0 2.572 1.365 2.572 2.858 0 .118-.01.255-.02.393h-3.675c.148.678.621 1.031 1.291 1.031.503 0 .867-.157 1.281-.54l.858.756c-.493.61-1.203.983-2.159.983-1.586 0-2.758-1.11-2.758-2.721zM137.521 20.922h1.498v.747c.345-.442.788-.845 1.547-.845 1.133 0 1.794.747 1.794 1.955v3.409h-1.498v-2.937c0-.708-.335-1.071-.907-1.071-.571 0-.936.363-.936 1.07v2.938h-1.498v-5.266zM147.248 23.585v-.02c0-.776-.562-1.454-1.39-1.454-.857 0-1.37.658-1.37 1.434v.02c0 .776.562 1.454 1.39 1.454.857 0 1.37-.658 1.37-1.434m-4.238 0v-.02c0-1.513 1.222-2.74 2.868-2.74 1.635 0 2.848 1.208 2.848 2.72v.02c0 1.513-1.222 2.74-2.868 2.74-1.636 0-2.848-1.208-2.848-2.72M149.416 20.922h1.498v.747c.345-.442.798-.845 1.557-.845.69 0 1.211.305 1.487.835.464-.54 1.015-.835 1.735-.835 1.113 0 1.783.668 1.783 1.935v3.429h-1.498v-2.937c0-.708-.315-1.071-.876-1.071-.562 0-.907.363-.907 1.07v2.938h-1.498v-2.937c0-.708-.315-1.071-.877-1.071-.561 0-.906.363-.906 1.07v2.938h-1.498v-5.266zM158.453 26.188h1.498v-5.265h-1.498v5.265zm-.04-5.845h1.577v-1.326h-1.577v1.326zM160.71 23.585v-.02c0-1.503 1.152-2.74 2.768-2.74.996 0 1.616.333 2.11.883l-.917.983c-.335-.354-.67-.58-1.203-.58-.748 0-1.28.658-1.28 1.434v.02c0 .806.522 1.454 1.34 1.454.502 0 .847-.216 1.212-.56l.877.884c-.513.56-1.104.963-2.158.963-1.587 0-2.75-1.218-2.75-2.721M174.358 22.77v-.02c0-1.179-.867-2.162-2.09-2.162-1.221 0-2.069.963-2.069 2.142v.02c0 1.179.868 2.16 2.09 2.16 1.221 0 2.069-.962 2.069-2.14m-5.745 0v-.02c0-1.955 1.547-3.556 3.675-3.556 2.129 0 3.656 1.581 3.656 3.536v.02c0 1.955-1.547 3.556-3.675 3.556-2.129 0-3.656-1.582-3.656-3.537M176.743 20.922h1.498v.747c.345-.442.788-.845 1.547-.845 1.133 0 1.793.747 1.793 1.955v3.409h-1.497v-2.937c0-.708-.336-1.071-.907-1.071-.572 0-.936.363-.936 1.07v2.938h-1.498v-5.266zM182.232 23.585v-.02c0-1.503 1.153-2.74 2.769-2.74.995 0 1.616.333 2.109.883l-.917.983c-.335-.354-.67-.58-1.202-.58-.749 0-1.28.658-1.28 1.434v.02c0 .806.522 1.454 1.34 1.454.502 0 .847-.216 1.211-.56l.877.884c-.512.56-1.103.963-2.158.963-1.586 0-2.749-1.218-2.749-2.721M191.554 23.585v-.02c0-.776-.561-1.454-1.389-1.454-.857 0-1.37.658-1.37 1.434v.02c0 .776.562 1.454 1.39 1.454.857 0 1.37-.658 1.37-1.434m-4.238 0v-.02c0-1.513 1.222-2.74 2.868-2.74 1.635 0 2.848 1.208 2.848 2.72v.02c0 1.513-1.222 2.74-2.868 2.74-1.636 0-2.848-1.208-2.848-2.72M193.792 26.188L195.289 26.188 195.289 19.017 193.792 19.017zM200.286 23.585v-.02c0-.776-.562-1.454-1.39-1.454-.857 0-1.37.658-1.37 1.434v.02c0 .776.562 1.454 1.39 1.454.857 0 1.37-.658 1.37-1.434m-4.238 0v-.02c0-1.513 1.222-2.74 2.868-2.74 1.635 0 2.848 1.208 2.848 2.72v.02c0 1.513-1.222 2.74-2.868 2.74-1.636 0-2.848-1.208-2.848-2.72M206.287 23.3v-.02c0-.717-.562-1.218-1.29-1.218-.73 0-1.282.501-1.282 1.218v.02c0 .727.552 1.218 1.281 1.218.73 0 1.29-.501 1.29-1.218m-3.803 3.93l.513-1.12c.542.304 1.084.48 1.783.48 1.025 0 1.508-.49 1.508-1.434v-.255c-.444.53-.926.855-1.724.855-1.232 0-2.345-.894-2.345-2.456v-.02c0-1.572 1.133-2.456 2.345-2.456.817 0 1.3.344 1.704.786v-.687h1.498v4.076c0 .943-.227 1.631-.67 2.073-.493.491-1.252.707-2.276.707-.857 0-1.665-.196-2.336-.55M208.643 27.426l.502-1.08c.197.117.444.205.64.205.257 0 .395-.078.523-.344l-2.07-5.285h1.587l1.202 3.586 1.153-3.586h1.557l-2.03 5.394c-.404 1.07-.837 1.473-1.734 1.473-.542 0-.946-.137-1.33-.363M117.602 21.076c.91-1.25 1.608-2.664 2.038-4.19h-12.073c-.085 1.4-.212 2.796-.378 4.19h10.413zM94.017 16.886c.43 1.526 1.128 2.94 2.038 4.19h2.638c-.871-1.261-1.538-2.672-1.948-4.19h-2.728zM107.642 15.382h12.329c.108-.682.165-1.382.165-2.094 0-.713-.057-1.413-.165-2.095h-12.28c.024 1.396.008 2.793-.049 4.19M96.44 11.193h-2.753c-.109.682-.166 1.382-.166 2.095 0 .712.057 1.412.166 2.094h2.745c-.103-.675-.164-1.364-.164-2.068 0-.722.064-1.429.172-2.121M116.326 3.995c-2.415-2.452-5.778-3.974-9.497-3.974-.06 0-.118.003-.176.004.225 1.32.41 2.644.563 3.97h9.11zM106.584.027c-3.622.065-6.89 1.57-9.252 3.968h2.598c1.764-1.9 4.061-3.3 6.654-3.968M96.055 5.5c-.91 1.25-1.608 2.663-2.038 4.189h2.742c.417-1.519 1.09-2.93 1.968-4.19h-2.672zM119.64 9.689c-.43-1.526-1.128-2.94-2.038-4.19h-10.227c.132 1.395.225 2.792.277 4.19h11.988zM99.885 22.58h-2.554c2.416 2.452 5.778 3.974 9.498 3.974 3.72 0 7.082-1.522 9.497-3.974h-9.332c-.185 1.322-.402 2.641-.66 3.955-2.513-.698-4.735-2.091-6.449-3.955" mask="url(#zyqzzjztwb)"/>
                                <path fill="#37B34A" d="M106.65.008c-.022.005-.044.013-.066.019l.069-.002-.003-.017" mask="url(#zyqzzjztwb)"/>
                                <path fill="#3075BA" d="M98.693 21.076h8.496c.166-1.394.293-2.79.378-4.19H96.745c.41 1.518 1.077 2.928 1.948 4.19M107.692 11.193H96.44c-.108.692-.172 1.399-.172 2.121 0 .704.061 1.393.164 2.068h11.21c.057-1.395.073-2.793.05-4.19M106.653.025l-.069.002c-2.593.668-4.89 2.068-6.654 3.968h7.286c-.153-1.326-.338-2.65-.563-3.97M107.375 5.5h-8.648c-.878 1.26-1.551 2.67-1.968 4.189h10.893c-.052-1.398-.145-2.795-.277-4.19M106.335 26.535c.258-1.314.474-2.633.66-3.955h-7.11c1.714 1.864 3.936 3.257 6.45 3.955" mask="url(#zyqzzjztwb)"/>
                                <path fill="#FFF" d="M113.747 13.288c0 3.809-3.097 6.897-6.918 6.897-3.822 0-6.919-3.088-6.919-6.897 0-3.81 3.097-6.898 6.919-6.898 3.82 0 6.918 3.088 6.918 6.898" mask="url(#zyqzzjztwb)"/>
                                <path fill="#DD1C4D" d="M113.211 13.32c0 3.489-2.836 6.316-6.336 6.316-3.499 0-6.335-2.827-6.335-6.316 0-3.488 2.836-6.316 6.335-6.316 3.5 0 6.336 2.828 6.336 6.316" mask="url(#zyqzzjztwb)"/>
                                <path fill="#FFF" d="M106.875 7.81c-3.047 0-5.527 2.472-5.527 5.51 0 3.039 2.48 5.51 5.527 5.51 3.048 0 5.527-2.471 5.527-5.51 0-3.038-2.479-5.51-5.527-5.51m0 12.633c-3.939 0-7.144-3.195-7.144-7.123 0-3.927 3.205-7.122 7.144-7.122 3.94 0 7.145 3.195 7.145 7.122 0 3.928-3.205 7.123-7.145 7.123" mask="url(#zyqzzjztwb)"/>
                                <path fill="#FFF" d="M106.96 7.788c-3.041 0-5.516 2.467-5.516 5.499 0 3.032 2.475 5.499 5.516 5.499 3.042 0 5.516-2.467 5.516-5.499 0-3.032-2.474-5.5-5.516-5.5m0 11.536c-3.339 0-6.055-2.708-6.055-6.036 0-3.329 2.716-6.036 6.055-6.036 3.339 0 6.055 2.707 6.055 6.036 0 3.328-2.716 6.036-6.055 6.036" mask="url(#zyqzzjztwb)"/>
                                <path fill="#FFF" d="M106.96 7.788c-1.564 0-2.886 2.518-2.886 5.499 0 2.98 1.322 5.499 2.886 5.499 1.565 0 2.886-2.518 2.886-5.499 0-2.98-1.321-5.5-2.886-5.5m0 11.536c-1.92 0-3.425-2.651-3.425-6.036s1.505-6.036 3.425-6.036 3.425 2.651 3.425 6.036-1.504 6.036-3.425 6.036" mask="url(#zyqzzjztwb)"/>
                                <path fill="#FFF" d="M106.691 19.055L107.23 19.055 107.23 7.519 106.691 7.519z" mask="url(#zyqzzjztwb)"/>
                                <path fill="#FFF" d="M101.164 13.556L112.735 13.556 112.735 13.018 101.164 13.018zM101.92 10.541L111.913 10.541 111.913 10.003 101.92 10.003zM101.985 16.571L111.913 16.571 111.913 16.033 101.985 16.033z" mask="url(#zyqzzjztwb)"/>
                                <path fill="#DD1C4D" d="M112.01 34.467c-1.316.011-2.64-.109-3.922-.437-1.28-.326-2.52-.835-3.645-1.53-2.28-1.367-4.092-3.326-6.182-4.857-1.04-.775-2.165-1.424-3.363-1.89-1.198-.469-2.471-.724-3.753-.829-2.566-.192-5.207.122-7.504 1.246-.285.142-.571.282-.845.447-.28.152-.546.331-.816.503-.53.36-1.047.74-1.544 1.153-1.003.815-1.95 1.717-2.955 2.577-.498.433-1.02.848-1.556 1.248-.545.39-1.104.767-1.697 1.091-1.178.665-2.475 1.128-3.8 1.406-1.328.278-2.68.361-4.025.315-1.344-.05-2.703-.241-4.001-.666-1.298-.419-2.536-1.034-3.647-1.801-1.122-.756-2.131-1.631-3.122-2.487-.99-.854-1.968-1.697-3.02-2.4-1.043-.718-2.171-1.272-3.357-1.654-1.187-.385-2.439-.556-3.698-.6-1.262-.04-2.531.045-3.747.305-1.218.255-2.392.672-3.474 1.282l-.405.23c-.134.08-.264.168-.396.25-.266.163-.518.354-.776.531-.506.377-1.001.773-1.492 1.19-.985.827-1.942 1.73-2.996 2.568-.522.423-1.076.82-1.646 1.196-.292.182-.579.368-.884.53-.297.173-.61.322-.92.472-1.254.585-2.607.949-3.963 1.132-1.36.177-2.72.19-4.075.056-1.353-.142-2.706-.446-3.971-.976-.313-.138-.63-.267-.931-.43-.151-.079-.307-.15-.454-.236l-.441-.257c-.58-.354-1.137-.739-1.663-1.154-2.12-1.648-3.838-3.633-6-5.028-1.065-.717-2.243-1.256-3.48-1.625-1.24-.365-2.538-.542-3.844-.594v-.14l.989-.011.99.045c.33.037.66.072.988.118l.49.088c.164.03.329.056.49.1 1.295.303 2.562.792 3.715 1.473l.432.256.418.275c.282.181.547.382.819.575.532.398 1.05.812 1.557 1.232 1.015.838 1.99 1.702 3.033 2.444 1.034.753 2.14 1.374 3.31 1.822 1.169.45 2.41.69 3.665.786 1.256.088 2.536.057 3.772-.134 1.236-.193 2.438-.542 3.55-1.09.277-.138.556-.273.823-.434.273-.148.533-.322.797-.49.519-.35 1.027-.722 1.518-1.13.991-.802 1.944-1.694 2.96-2.556.505-.435 1.041-.848 1.589-1.249.283-.19.556-.393.851-.57.147-.09.29-.184.439-.27l.45-.251c1.21-.666 2.54-1.124 3.89-1.392 1.354-.261 2.723-.325 4.08-.257 1.357.071 2.726.287 4.03.732 1.302.44 2.54 1.077 3.643 1.861 1.116.774 2.112 1.663 3.091 2.534.978.868 1.943 1.725 2.987 2.448 1.035.735 2.162 1.311 3.354 1.715 1.191.408 2.453.604 3.725.67 1.274.06 2.56-.003 3.803-.245 1.242-.245 2.45-.656 3.564-1.266.562-.296 1.095-.647 1.62-1.011.52-.378 1.029-.77 1.524-1.19.997-.829 1.96-1.723 3.003-2.547.515-.418 1.06-.807 1.619-1.175.285-.177.566-.36.864-.517.29-.17.594-.313.898-.46 1.22-.571 2.536-.926 3.861-1.107 1.329-.176 2.667-.187 3.994-.062 1.327.132 2.648.421 3.885.931 1.238.507 2.39 1.201 3.435 2.01 2.105 1.604 3.863 3.577 6.077 4.955 1.092.702 2.296 1.222 3.55 1.566 1.254.345 2.562.488 3.868.5v.14z" mask="url(#zyqzzjztwb)"/>
                                <path fill="#3075BA" d="M134.329 35.627c-1.316.012-2.64-.108-3.922-.436-1.28-.327-2.52-.835-3.645-1.531-2.28-1.366-4.092-3.325-6.182-4.857-1.04-.775-2.165-1.423-3.364-1.889-1.197-.47-2.47-.724-3.753-.829-2.565-.192-5.207.122-7.503 1.245-.285.143-.571.283-.845.448-.28.152-.546.33-.816.503-.53.36-1.048.739-1.545 1.153-1.002.814-1.949 1.716-2.954 2.576-.499.434-1.021.849-1.557 1.249-.544.39-1.103.767-1.697 1.091-1.177.665-2.474 1.128-3.798 1.406-1.329.277-2.681.361-4.026.315-1.345-.051-2.704-.242-4.002-.666-1.297-.42-2.535-1.035-3.646-1.802-1.122-.755-2.131-1.63-3.123-2.486-.99-.855-1.968-1.697-3.019-2.401-1.043-.717-2.171-1.27-3.358-1.653-1.186-.385-2.438-.556-3.697-.6-1.262-.04-2.532.045-3.748.304-1.217.256-2.392.673-3.474 1.283l-.405.23c-.133.08-.263.168-.395.25-.266.162-.518.354-.776.531-.506.377-1.002.773-1.492 1.19-.985.827-1.943 1.73-2.997 2.568-.521.423-1.076.82-1.646 1.196-.29.181-.578.368-.883.53-.297.173-.61.321-.92.472-1.254.585-2.607.948-3.963 1.131-1.36.178-2.72.191-4.075.057-1.354-.142-2.707-.447-3.971-.977-.314-.137-.63-.266-.931-.429-.152-.079-.307-.15-.454-.236l-.441-.257c-.58-.354-1.138-.739-1.663-1.155-2.12-1.647-3.838-3.633-6.001-5.027-1.064-.718-2.242-1.256-3.48-1.625-1.239-.366-2.537-.542-3.843-.594h-.002c-.04-.002-.07-.035-.068-.074.001-.037.033-.067.07-.067l.989-.01.99.045c.33.037.66.072.988.117l.49.089c.164.03.329.056.49.1 1.295.302 2.561.792 3.715 1.473l.431.256.42.275c.28.181.546.382.817.575.533.398 1.05.812 1.558 1.232 1.015.838 1.99 1.702 3.032 2.444 1.035.753 2.14 1.373 3.31 1.822 1.17.45 2.41.69 3.666.785 1.256.089 2.536.058 3.772-.133 1.236-.193 2.437-.542 3.55-1.09.277-.138.556-.273.823-.434.273-.148.533-.322.797-.49.518-.351 1.027-.722 1.518-1.13.99-.802 1.944-1.694 2.96-2.556.504-.435 1.041-.848 1.588-1.249.283-.19.557-.393.852-.57.146-.09.29-.184.438-.27l.451-.252c1.21-.665 2.54-1.124 3.889-1.391 1.355-.262 2.724-.325 4.08-.258 1.358.072 2.726.287 4.03.733 1.303.44 2.54 1.076 3.644 1.86 1.115.775 2.112 1.664 3.09 2.534.979.869 1.943 1.726 2.987 2.449 1.036.735 2.163 1.31 3.355 1.715 1.191.408 2.453.604 3.725.67 1.274.06 2.559-.003 3.802-.246 1.243-.244 2.45-.656 3.565-1.265.561-.296 1.095-.647 1.62-1.011.519-.378 1.028-.77 1.524-1.19.997-.83 1.96-1.723 3.002-2.547.516-.418 1.06-.807 1.62-1.175.285-.177.566-.36.863-.517.29-.17.595-.313.898-.46 1.22-.572 2.537-.926 3.862-1.107 1.328-.176 2.666-.187 3.994-.062 1.326.131 2.648.42 3.885.931 1.237.507 2.39 1.2 3.435 2.01 2.104 1.604 3.863 3.577 6.076 4.954 1.093.703 2.297 1.222 3.55 1.567 1.255.345 2.562.488 3.868.5.04 0 .07.032.07.07 0 .039-.031.07-.07.07" mask="url(#zyqzzjztwb)"/>
                                <path fill="#131B3C" d="M81.39 26.68h.07l.252-.17c.285-.177.566-.36.864-.517.29-.17.595-.313.898-.46 1.22-.571 2.536-.926 3.861-1.107.871-.115 1.746-.159 2.62-.14.812-.496 1.558-1.042 2.236-1.617l-.013-10.952-10.986.013.006 4.791 5.601-.006.005 3.603c-1.408 1.01-3.215 1.516-5.239 1.52-4.48.004-7.665-3.379-7.67-7.99v-.072c-.005-4.287 3.207-7.858 7.254-7.862 2.927-.004 4.663.93 6.616 2.55l3.5-4.22c-2.64-2.23-5.388-3.452-9.94-3.447-7.662.01-13.257 5.888-13.249 13.057v.073c.009 7.457 5.436 12.963 13.314 12.953M57.06 6.067c2.71-.003 4.374 1.22 4.377 3.597v.073c.003 2.126-1.55 3.568-4.26 3.571l-5.638.007-.008-7.241 5.529-.007zm-7.281 18.649c.608.206 1.202.456 1.775.742l-.009-7.243 4.372-.005 5.39 8.004c.864-.36 1.767-.631 2.68-.812 1.022-.197 2.051-.282 3.078-.282l-5.403-7.853c3.215-1.194 5.417-3.754 5.412-7.825V9.37c-.003-2.377-.764-4.358-2.175-5.761-1.664-1.656-4.16-2.553-7.375-2.55l-11.564.013L45.987 24c1.279.084 2.564.298 3.792.717zM32.947 7.576l3.37 8.174-6.721.008 3.351-8.182zm-7.613 18.678c-.942-.202-1.91-.31-2.88-.35h-.003c-.039-.001-.07-.034-.068-.073.002-.037.033-.067.07-.067l.99-.01.99.044c.328.038.659.073.987.118l.048.01 2.146-5.267 10.697-.012 1.658 4.041c.558-.183 1.127-.334 1.7-.447 1.257-.242 2.526-.313 3.785-.268L35.577.907l-5.131.007-10.812 25.411 5.674-.006.026-.065zM18.369 45.558L19.919 45.558 19.919 38.536 18.369 38.536zM21.116 40.181h1.53v.762c.352-.451.804-.863 1.58-.863 1.156 0 1.83.763 1.83 1.997v3.48h-1.529v-2.999c0-.722-.342-1.093-.926-1.093-.583 0-.955.371-.955 1.093v3h-1.53V40.18zM27.234 44.033v-2.548h-.644V40.18h.644v-1.374h1.529v1.374h1.268v1.304h-1.268v2.297c0 .351.15.522.493.522.282 0 .533-.07.755-.19v1.223c-.322.19-.695.311-1.208.311-.936 0-1.57-.371-1.57-1.615M34.146 42.448c-.09-.682-.493-1.144-1.137-1.144-.634 0-1.046.452-1.167 1.144h2.304zm-3.803.452v-.02c0-1.535 1.097-2.8 2.666-2.8 1.801 0 2.626 1.395 2.626 2.92 0 .12-.01.26-.02.4h-3.753c.151.693.634 1.054 1.318 1.054.513 0 .886-.16 1.308-.552l.876.773c-.503.622-1.228 1.003-2.204 1.003-1.62 0-2.817-1.134-2.817-2.778zM36.37 40.181h1.53v1.083c.311-.742.814-1.223 1.72-1.184v1.596h-.08c-1.017 0-1.64.612-1.64 1.896v1.986h-1.53V40.18zM40.173 40.181h1.53v.762c.352-.451.805-.863 1.58-.863 1.157 0 1.83.763 1.83 1.997v3.48h-1.529v-2.999c0-.722-.342-1.093-.925-1.093-.584 0-.956.371-.956 1.093v3h-1.53V40.18zM49.229 43.662v-.271c-.262-.12-.604-.2-.976-.2-.654 0-1.057.26-1.057.742v.02c0 .41.343.652.835.652.715 0 1.198-.392 1.198-.943m-3.512.35v-.02c0-1.173.896-1.715 2.174-1.715.543 0 .936.09 1.318.221v-.09c0-.632-.393-.983-1.157-.983-.584 0-.997.11-1.49.29l-.382-1.163c.594-.26 1.177-.431 2.093-.431.835 0 1.439.22 1.821.602.403.4.584.993.584 1.715v3.12h-1.48v-.582c-.371.411-.885.682-1.63.682-1.016 0-1.85-.582-1.85-1.645M51.795 44.033v-2.548h-.644V40.18h.644v-1.374h1.53v1.374h1.267v1.304h-1.268v2.297c0 .351.151.522.493.522.282 0 .534-.07.755-.19v1.223c-.322.19-.694.311-1.207.311-.936 0-1.57-.371-1.57-1.615M55.387 45.558h1.53V40.18h-1.53v5.377zm-.04-5.969h1.61v-1.354h-1.61v1.354zM62.018 42.9v-.02c0-.793-.574-1.485-1.42-1.485-.875 0-1.398.672-1.398 1.464v.02c0 .793.574 1.485 1.419 1.485.875 0 1.399-.672 1.399-1.465m-4.327 0v-.02c0-1.544 1.248-2.798 2.928-2.798 1.67 0 2.908 1.233 2.908 2.778v.02c0 1.545-1.248 2.8-2.928 2.8-1.67 0-2.908-1.235-2.908-2.78M64.231 40.181h1.53v.762c.352-.451.805-.863 1.58-.863 1.157 0 1.83.763 1.83 1.997v3.48h-1.529v-2.999c0-.722-.342-1.093-.925-1.093-.584 0-.956.371-.956 1.093v3h-1.53V40.18zM73.287 43.662v-.271c-.262-.12-.603-.2-.976-.2-.654 0-1.056.26-1.056.742v.02c0 .41.342.652.835.652.714 0 1.197-.392 1.197-.943m-3.512.35v-.02c0-1.173.896-1.715 2.174-1.715.543 0 .936.09 1.318.221v-.09c0-.632-.392-.983-1.157-.983-.584 0-.996.11-1.49.29l-.382-1.163c.594-.26 1.178-.431 2.093-.431.835 0 1.439.22 1.821.602.403.4.584.993.584 1.715v3.12h-1.48v-.582c-.371.411-.885.682-1.629.682-1.016 0-1.852-.582-1.852-1.645M75.722 45.558L77.251 45.558 77.251 38.235 75.722 38.235zM80.753 42.067v-.02c0-1.997 1.509-3.632 3.672-3.632 1.328 0 2.123.442 2.777 1.084l-.986 1.133c-.543-.491-1.096-.792-1.8-.792-1.188 0-2.043.983-2.043 2.187v.02c0 1.203.835 2.207 2.042 2.207.805 0 1.298-.321 1.852-.823l.986.993c-.725.773-1.53 1.254-2.888 1.254-2.073 0-3.612-1.595-3.612-3.611M91.117 43.662v-.271c-.262-.12-.604-.2-.976-.2-.654 0-1.057.26-1.057.742v.02c0 .41.342.652.835.652.715 0 1.198-.392 1.198-.943m-3.512.35v-.02c0-1.173.895-1.715 2.173-1.715.544 0 .936.09 1.319.221v-.09c0-.632-.393-.983-1.158-.983-.583 0-.996.11-1.489.29l-.382-1.163c.593-.26 1.177-.431 2.093-.431.835 0 1.439.22 1.82.602.404.4.584.993.584 1.715v3.12h-1.479v-.582c-.372.411-.885.682-1.63.682-1.016 0-1.851-.582-1.851-1.645M93.481 40.181h1.53v.762c.352-.451.804-.863 1.58-.863 1.156 0 1.83.763 1.83 1.997v3.48h-1.529v-2.999c0-.722-.342-1.093-.926-1.093-.583 0-.955.371-.955 1.093v3h-1.53V40.18zM99.085 42.9v-.02c0-1.535 1.178-2.8 2.828-2.8 1.016 0 1.65.342 2.153.903l-.936 1.004c-.342-.362-.684-.592-1.227-.592-.765 0-1.308.672-1.308 1.464v.02c0 .823.533 1.485 1.368 1.485.513 0 .865-.22 1.238-.572l.895.903c-.523.572-1.127.983-2.203.983-1.62 0-2.808-1.244-2.808-2.779M108.08 42.448c-.09-.682-.492-1.144-1.136-1.144-.634 0-1.047.452-1.167 1.144h2.304zm-3.803.452v-.02c0-1.535 1.097-2.8 2.667-2.8 1.8 0 2.626 1.395 2.626 2.92 0 .12-.01.26-.02.4h-3.753c.15.693.634 1.054 1.318 1.054.513 0 .885-.16 1.308-.552l.875.773c-.503.622-1.227 1.003-2.203 1.003-1.62 0-2.818-1.134-2.818-2.778zM110.304 40.181h1.53v1.083c.312-.742.815-1.223 1.72-1.184v1.596h-.08c-1.016 0-1.64.612-1.64 1.896v1.986h-1.53V40.18zM116.573 42.067v-.02c0-1.997 1.56-3.632 3.693-3.632 1.268 0 2.032.342 2.767.963l-.976 1.174c-.544-.451-1.026-.712-1.842-.712-1.126 0-2.022.993-2.022 2.187v.02c0 1.284.885 2.227 2.133 2.227.564 0 1.067-.14 1.46-.422V42.85h-1.56v-1.334h3.058v3.05c-.724.611-1.72 1.113-3.008 1.113-2.194 0-3.703-1.535-3.703-3.611M127.752 42.448c-.09-.682-.493-1.144-1.137-1.144-.634 0-1.046.452-1.167 1.144h2.304zm-3.804.452v-.02c0-1.535 1.097-2.8 2.667-2.8 1.801 0 2.626 1.395 2.626 2.92 0 .12-.01.26-.02.4h-3.753c.15.693.634 1.054 1.318 1.054.513 0 .886-.16 1.308-.552l.875.773c-.502.622-1.227 1.003-2.203 1.003-1.62 0-2.818-1.134-2.818-2.778zM129.976 40.181h1.53v.762c.351-.451.804-.863 1.58-.863 1.156 0 1.83.763 1.83 1.997v3.48h-1.53v-2.999c0-.722-.341-1.093-.925-1.093-.584 0-.956.371-.956 1.093v3h-1.53V40.18zM139.907 42.9v-.02c0-.793-.573-1.485-1.419-1.485-.875 0-1.398.672-1.398 1.464v.02c0 .793.573 1.485 1.418 1.485.876 0 1.399-.672 1.399-1.465m-4.327 0v-.02c0-1.544 1.248-2.798 2.928-2.798 1.67 0 2.908 1.233 2.908 2.778v.02c0 1.545-1.247 2.8-2.928 2.8-1.67 0-2.908-1.235-2.908-2.78M142.12 40.181h1.53v.762c.352-.451.815-.863 1.59-.863.704 0 1.237.312 1.52.853.472-.551 1.036-.853 1.77-.853 1.137 0 1.821.683 1.821 1.977v3.5h-1.53v-2.999c0-.722-.321-1.093-.894-1.093-.574 0-.926.371-.926 1.093v3h-1.53v-3c0-.722-.322-1.093-.895-1.093-.574 0-.926.371-.926 1.093v3h-1.53V40.18zM154.819 42.448c-.09-.682-.493-1.144-1.137-1.144-.634 0-1.046.452-1.167 1.144h2.304zm-3.804.452v-.02c0-1.535 1.097-2.8 2.667-2.8 1.801 0 2.626 1.395 2.626 2.92 0 .12-.01.26-.02.4h-3.753c.15.693.634 1.054 1.318 1.054.513 0 .886-.16 1.308-.552l.875.773c-.503.622-1.227 1.003-2.203 1.003-1.62 0-2.818-1.134-2.818-2.778zM159.508 42.067v-.02c0-1.997 1.509-3.632 3.672-3.632 1.328 0 2.123.442 2.777 1.084l-.986 1.133c-.543-.491-1.096-.792-1.8-.792-1.188 0-2.043.983-2.043 2.187v.02c0 1.203.835 2.207 2.042 2.207.805 0 1.298-.321 1.852-.823l.986.993c-.725.773-1.53 1.254-2.888 1.254-2.073 0-3.612-1.595-3.612-3.611M170.646 42.9v-.02c0-.793-.573-1.485-1.419-1.485-.875 0-1.398.672-1.398 1.464v.02c0 .793.574 1.485 1.419 1.485.875 0 1.398-.672 1.398-1.465m-4.326 0v-.02c0-1.544 1.247-2.798 2.928-2.798 1.67 0 2.908 1.233 2.908 2.778v.02c0 1.545-1.248 2.8-2.929 2.8-1.67 0-2.907-1.235-2.907-2.78M172.86 40.181h1.53v.762c.352-.451.804-.863 1.58-.863 1.156 0 1.83.763 1.83 1.997v3.48h-1.53v-2.999c0-.722-.341-1.093-.925-1.093-.583 0-.956.371-.956 1.093v3h-1.53V40.18zM178.303 44.846l.654-1.004c.584.422 1.198.642 1.7.642.443 0 .645-.16.645-.401v-.02c0-.331-.524-.441-1.117-.622-.755-.22-1.61-.572-1.61-1.615v-.02c0-1.093.885-1.705 1.972-1.705.684 0 1.429.23 2.012.621l-.583 1.054c-.533-.311-1.067-.502-1.46-.502-.371 0-.563.16-.563.372v.02c0 .3.514.441 1.097.642.755.25 1.63.612 1.63 1.594v.02c0 1.194-.895 1.736-2.063 1.736-.754 0-1.6-.25-2.314-.812M187.44 42.9v-.02c0-.793-.573-1.485-1.419-1.485-.875 0-1.398.672-1.398 1.464v.02c0 .793.573 1.485 1.418 1.485.876 0 1.399-.672 1.399-1.465m-4.327 0v-.02c0-1.544 1.248-2.798 2.928-2.798 1.67 0 2.908 1.233 2.908 2.778v.02c0 1.545-1.247 2.8-2.928 2.8-1.67 0-2.908-1.235-2.908-2.78M189.653 40.181h1.53v1.083c.312-.742.815-1.223 1.72-1.184v1.596h-.08c-1.016 0-1.64.612-1.64 1.896v1.986h-1.53V40.18zM193.709 44.033v-2.548h-.644V40.18h.644v-1.374h1.529v1.374h1.268v1.304h-1.268v2.297c0 .351.15.522.493.522.282 0 .533-.07.755-.19v1.223c-.322.19-.695.311-1.208.311-.936 0-1.57-.371-1.57-1.615M197.3 45.558h1.53V40.18h-1.53v5.377zm-.04-5.969h1.61v-1.354h-1.61v1.354zM199.826 43.662V40.18h1.53v3c0 .722.342 1.093.925 1.093.584 0 .956-.371.956-1.094v-3h1.53v5.378h-1.53v-.763c-.352.452-.805.863-1.58.863-1.157 0-1.83-.762-1.83-1.996M205.732 40.181h1.53v.762c.352-.451.815-.863 1.59-.863.704 0 1.237.312 1.519.853.473-.551 1.036-.853 1.77-.853 1.138 0 1.822.683 1.822 1.977v3.5h-1.53v-2.999c0-.722-.321-1.093-.895-1.093-.573 0-.926.371-.926 1.093v3h-1.529v-3c0-.722-.322-1.093-.896-1.093-.573 0-.925.371-.925 1.093v3h-1.53V40.18z" mask="url(#zyqzzjztwb)"/>
                            </g>
                        </g>
                    </g>
                </g>
            </g>
        </g>
    </g>
</svg>
