<svg id="white" xmlns="http://www.w3.org/2000/svg" viewBox="0 0 1190.8 254.84"><defs><style>.cls-1{fill:#fff;}.cls-2{fill:#dd1c4d;}.cls-3{fill:#37b34a;}.cls-4{fill:#9bc7ed;}</style></defs><path class="cls-1" d="M707.17,1.38H715L731.41,40h-8.83l-3.51-8.61H702.84L699.33,40h-8.61ZM716.06,24,711,11.53,705.86,24Z" transform="translate(0 -0.01)"/><path class="cls-1" d="M731.47,25.51V25.4a15.09,15.09,0,0,1,15.41-15.3c5.54,0,9,1.87,11.73,4.94l-5.1,5.48c-1.86-2-3.72-3.23-6.69-3.23-4.16,0-7.13,3.67-7.13,8v.11c0,4.5,2.91,8.12,7.46,8.12,2.8,0,4.72-1.21,6.75-3.13l4.88,4.94a14.81,14.81,0,0,1-12,5.37A15,15,0,0,1,731.47,25.51Z" transform="translate(0 -0.01)"/><path class="cls-1" d="M759.77,25.51V25.4a15.09,15.09,0,0,1,15.41-15.3c5.54,0,9,1.87,11.74,4.94l-5.1,5.48c-1.87-2-3.73-3.23-6.69-3.23-4.17,0-7.13,3.67-7.13,8v.11c0,4.5,2.9,8.12,7.45,8.12,2.8,0,4.72-1.21,6.75-3.13l4.88,4.94a14.81,14.81,0,0,1-12,5.37A15,15,0,0,1,759.77,25.51Z" transform="translate(0 -0.01)"/><path class="cls-1" d="M788.07,25.51V25.4c0-8.39,6-15.3,14.53-15.3,9.82,0,14.32,7.62,14.32,16,0,.66-.06,1.43-.11,2.19H796.35A6.82,6.82,0,0,0,803.54,34a9.64,9.64,0,0,0,7.12-3l4.78,4.22a14.72,14.72,0,0,1-12,5.48C794.6,40.7,788.07,34.5,788.07,25.51ZM808.8,23c-.49-3.73-2.69-6.25-6.2-6.25s-5.7,2.47-6.36,6.25Z" transform="translate(0 -0.01)"/><path class="cls-1" d="M821.31,0h8.33V40h-8.33Z" transform="translate(0 -0.01)"/><path class="cls-1" d="M833.87,25.51V25.4c0-8.39,6-15.3,14.53-15.3,9.81,0,14.31,7.62,14.31,16,0,.66-.05,1.43-.11,2.19H842.15A6.81,6.81,0,0,0,849.33,34a9.65,9.65,0,0,0,7.13-3l4.77,4.22a14.7,14.7,0,0,1-12,5.48C840.39,40.7,833.87,34.5,833.87,25.51ZM854.6,23c-.5-3.73-2.69-6.25-6.2-6.25S842.69,19.26,842,23Z" transform="translate(0 -0.01)"/><path class="cls-1" d="M866.72,10.65h8.33v5.92c1.7-4.06,4.45-6.69,9.38-6.47v8.72H884c-5.54,0-8.94,3.35-8.94,10.37V40h-8.33Z" transform="translate(0 -0.01)"/><path class="cls-1" d="M884.32,31.6v-.11c0-6.42,4.89-9.38,11.85-9.38a20.68,20.68,0,0,1,7.18,1.21v-.5c0-3.45-2.13-5.37-6.3-5.37A21.6,21.6,0,0,0,888.93,19l-2.08-6.36a25.83,25.83,0,0,1,11.4-2.36c4.56,0,7.85,1.21,9.93,3.29S911.36,19,911.36,23V40H903.3V36.86a11.31,11.31,0,0,1-8.89,3.73C888.88,40.59,884.32,37.41,884.32,31.6Zm19.14-1.92V28.2a12.87,12.87,0,0,0-5.32-1.1c-3.56,0-5.75,1.43-5.75,4.06v.11c0,2.25,1.86,3.56,4.55,3.56C900.83,34.83,903.46,32.7,903.46,29.68Z" transform="translate(0 -0.01)"/><path class="cls-1" d="M917.45,31.71V17.78h-3.51V10.65h3.51V3.14h8.34v7.51h6.91v7.13h-6.91V30.34c0,1.92.82,2.85,2.69,2.85a8.58,8.58,0,0,0,4.11-1v6.69a12.33,12.33,0,0,1-6.58,1.7C920.91,40.54,917.45,38.51,917.45,31.71Z" transform="translate(0 -0.01)"/><path class="cls-1" d="M936.81,0h8.78v7.4h-8.78ZM937,10.65h8.34V40H937Z" transform="translate(0 -0.01)"/><path class="cls-1" d="M951,10.65h8.33v4.17c1.92-2.47,4.39-4.72,8.61-4.72,6.31,0,10,4.17,10,10.91V40h-8.33V23.65c0-3.95-1.87-6-5.05-6s-5.21,2-5.21,6V40H951Z" transform="translate(0 -0.01)"/><path class="cls-1" d="M983.16,45.86,986,39.61a19.15,19.15,0,0,0,9.92,2.68c5.71,0,8.39-2.74,8.39-8V32.86c-2.46,3-5.15,4.77-9.59,4.77-6.86,0-13.05-5-13.05-13.71v-.11c0-8.77,6.3-13.71,13.05-13.71a11.87,11.87,0,0,1,9.48,4.39V10.65h8.34V33.41c0,5.26-1.26,9.1-3.73,11.57-2.74,2.74-7,4-12.67,4A27.92,27.92,0,0,1,983.16,45.86Zm21.16-21.94v-.11c0-4-3.12-6.8-7.18-6.8s-7.13,2.8-7.13,6.8v.11c0,4.06,3.07,6.8,7.13,6.8S1004.32,27.92,1004.32,23.92Z" transform="translate(0 -0.01)"/><path class="cls-1" d="M694,54.66h17.55c4.88,0,8.66,1.37,11.19,3.89A12.08,12.08,0,0,1,726,67.32v.11a11.92,11.92,0,0,1-8.23,11.9L727.19,93h-9.87l-8.23-12.28h-6.64V93H694ZM711,73.3c4.11,0,6.47-2.19,6.47-5.43v-.11c0-3.62-2.52-5.48-6.63-5.48h-8.4v11Z" transform="translate(0 -0.01)"/><path class="cls-1" d="M728.62,78.51V78.4c0-8.39,6-15.3,14.53-15.3,9.82,0,14.31,7.62,14.31,16,0,.66-.05,1.43-.11,2.19H736.9A6.81,6.81,0,0,0,744.08,87a9.65,9.65,0,0,0,7.13-3L756,88.22a14.7,14.7,0,0,1-12,5.48C735.14,93.7,728.62,87.5,728.62,78.51ZM749.35,76c-.5-3.73-2.69-6.25-6.2-6.25s-5.7,2.47-6.36,6.25Z" transform="translate(0 -0.01)"/><path class="cls-1" d="M759.17,89.15l3.56-5.48A16.65,16.65,0,0,0,772,87.18c2.41,0,3.51-.88,3.51-2.2v-.11c0-1.81-2.85-2.41-6.09-3.4-4.11-1.2-8.77-3.12-8.77-8.83v-.11c0-6,4.82-9.32,10.75-9.32a20.3,20.3,0,0,1,11,3.4l-3.18,5.76c-2.9-1.7-5.81-2.74-7.95-2.74s-3.07.87-3.07,2v.11c0,1.64,2.8,2.41,6,3.51C778.25,76.65,783,78.62,783,84v.11c0,6.52-4.88,9.48-11.24,9.48A20.58,20.58,0,0,1,759.17,89.15Z" transform="translate(0 -0.01)"/><path class="cls-1" d="M785.38,78.51V78.4c0-8.39,6-15.3,14.54-15.3,9.81,0,14.31,7.62,14.31,16,0,.66-.06,1.43-.11,2.19H793.66A6.82,6.82,0,0,0,800.85,87,9.67,9.67,0,0,0,808,84l4.77,4.22a14.7,14.7,0,0,1-12,5.48C791.91,93.7,785.38,87.5,785.38,78.51ZM806.11,76c-.49-3.73-2.68-6.25-6.19-6.25s-5.71,2.47-6.37,6.25Z" transform="translate(0 -0.01)"/><path class="cls-1" d="M816.48,84.6v-.11c0-6.42,4.88-9.38,11.85-9.38a20.68,20.68,0,0,1,7.18,1.21v-.5c0-3.45-2.14-5.37-6.31-5.37A21.51,21.51,0,0,0,821.09,72L819,65.68a25.91,25.91,0,0,1,11.41-2.36c4.55,0,7.84,1.21,9.93,3.29S843.52,72,843.52,76V93h-8.06V89.86a11.31,11.31,0,0,1-8.89,3.73C821,93.59,816.48,90.41,816.48,84.6Zm19.14-1.92V81.2a12.91,12.91,0,0,0-5.32-1.1c-3.56,0-5.76,1.43-5.76,4.06v.11c0,2.25,1.87,3.56,4.55,3.56C833,87.83,835.62,85.7,835.62,82.68Z" transform="translate(0 -0.01)"/><path class="cls-1" d="M848.51,63.65h8.34v5.92c1.7-4.06,4.44-6.69,9.37-6.47v8.72h-.44c-5.53,0-8.93,3.35-8.93,10.37V93h-8.34Z" transform="translate(0 -0.01)"/><path class="cls-1" d="M867,78.51V78.4A15.09,15.09,0,0,1,882.4,63.1c5.54,0,9,1.87,11.74,4.94L889,73.52c-1.87-2-3.73-3.23-6.69-3.23-4.17,0-7.13,3.67-7.13,8v.11c0,4.5,2.91,8.12,7.46,8.12,2.79,0,4.71-1.21,6.74-3.13l4.88,4.94a14.81,14.81,0,0,1-12,5.37A15,15,0,0,1,867,78.51Z" transform="translate(0 -0.01)"/><path class="cls-1" d="M897.54,53h8.34V67.82c1.92-2.47,4.39-4.72,8.61-4.72,6.3,0,10,4.17,10,10.91V93h-8.34V76.65c0-4-1.86-6-5-6s-5.21,2-5.21,6V93h-8.34Z" transform="translate(0 -0.01)"/><path class="cls-1" d="M943.94,53h8.78v7.4h-8.78Zm.22,10.64h8.34V93h-8.34Z" transform="translate(0 -0.01)"/><path class="cls-1" d="M958.15,63.65h8.33v4.17c1.92-2.47,4.39-4.72,8.61-4.72,6.31,0,10,4.17,10,10.91V93h-8.33V76.65c0-4-1.87-6-5-6s-5.21,2-5.21,6V93h-8.33Z" transform="translate(0 -0.01)"/><path class="cls-1" d="M692.31,127v-.11A19.7,19.7,0,0,1,712.44,107c6.91,0,11.07,1.86,15.08,5.26l-5.32,6.42c-3-2.47-5.6-3.89-10-3.89-6.14,0-11,5.42-11,11.95v.11c0,7,4.82,12.17,11.63,12.17a13.44,13.44,0,0,0,8-2.3v-5.48h-8.5v-7.3h16.67v16.68a25,25,0,0,1-16.4,6.08C700.54,146.7,692.31,138.31,692.31,127Z" transform="translate(0 -0.01)"/><path class="cls-1" d="M732.51,131.51v-.11c0-8.39,6-15.3,14.53-15.3,9.82,0,14.32,7.62,14.32,16,0,.66-.06,1.43-.11,2.19H740.79A6.82,6.82,0,0,0,748,140a9.68,9.68,0,0,0,7.13-3l4.77,4.22a14.7,14.7,0,0,1-12,5.48C739,146.7,732.51,140.5,732.51,131.51ZM753.24,129c-.49-3.73-2.69-6.25-6.2-6.25s-5.7,2.47-6.36,6.25Z" transform="translate(0 -0.01)"/><path class="cls-1" d="M765.36,116.65h8.34v4.17c1.92-2.47,4.39-4.72,8.61-4.72,6.31,0,10,4.17,10,10.91v19H784V129.65c0-4-1.87-6-5.05-6s-5.21,2-5.21,6V146h-8.34Z" transform="translate(0 -0.01)"/><path class="cls-1" d="M795.91,131.51v-.11c0-8.44,6.8-15.3,16-15.3s15.85,6.75,15.85,15.19v.11c0,8.45-6.8,15.3-16,15.3S795.91,140,795.91,131.51Zm23.58,0v-.11a7.8,7.8,0,0,0-7.73-8.11c-4.77,0-7.62,3.67-7.62,8v.11a7.82,7.82,0,0,0,7.73,8.12C816.64,139.52,819.49,135.84,819.49,131.51Z" transform="translate(0 -0.01)"/><path class="cls-1" d="M831.56,116.65h8.34v4.17c1.92-2.47,4.44-4.72,8.66-4.72,3.84,0,6.75,1.7,8.28,4.66a12.13,12.13,0,0,1,9.66-4.66c6.19,0,9.92,3.73,9.92,10.8V146h-8.33V129.65c0-4-1.76-6-4.88-6s-5.05,2-5.05,6V146h-8.34V129.65c0-4-1.75-6-4.88-6s-5,2-5,6V146h-8.34Z" transform="translate(0 -0.01)"/><path class="cls-1" d="M881.64,106h8.77v7.4h-8.77Zm.22,10.64h8.33V146h-8.33Z" transform="translate(0 -0.01)"/><path class="cls-1" d="M894.42,131.51v-.11a15.09,15.09,0,0,1,15.41-15.3c5.53,0,9,1.87,11.73,4.94l-5.1,5.48c-1.86-2-3.73-3.23-6.69-3.23-4.17,0-7.13,3.67-7.13,8v.11c0,4.5,2.91,8.12,7.46,8.12,2.8,0,4.72-1.21,6.75-3.13l4.88,4.94a14.84,14.84,0,0,1-12,5.37A15,15,0,0,1,894.42,131.51Z" transform="translate(0 -0.01)"/><path class="cls-1" d="M938.4,127v-.11c0-10.91,8.61-19.85,20.46-19.85s20.34,8.83,20.34,19.74v.11c0,10.91-8.61,19.85-20.45,19.85S938.4,137.87,938.4,127Zm32,0v-.11c0-6.58-4.82-12.06-11.62-12.06s-11.52,5.37-11.52,11.95v.11c0,6.58,4.83,12.07,11.63,12.07S970.37,133.54,970.37,127Z" transform="translate(0 -0.01)"/><path class="cls-1" d="M983.65,116.65H992v4.17c1.92-2.47,4.39-4.72,8.62-4.72,6.3,0,10,4.17,10,10.91v19h-8.34V129.65c0-4-1.86-6-5-6s-5.21,2-5.21,6V146h-8.33Z" transform="translate(0 -0.01)"/><path class="cls-1" d="M1014.2,131.51v-.11a15.09,15.09,0,0,1,15.41-15.3c5.54,0,9,1.87,11.74,4.94l-5.11,5.48c-1.86-2-3.72-3.23-6.69-3.23-4.16,0-7.12,3.67-7.12,8v.11c0,4.5,2.9,8.12,7.45,8.12,2.8,0,4.72-1.21,6.75-3.13l4.88,4.94a14.81,14.81,0,0,1-12,5.37A15,15,0,0,1,1014.2,131.51Z" transform="translate(0 -0.01)"/><path class="cls-1" d="M1042.5,131.51v-.11c0-8.44,6.8-15.3,16-15.3s15.85,6.75,15.85,15.19v.11c0,8.45-6.8,15.3-16,15.3S1042.5,140,1042.5,131.51Zm23.58,0v-.11a7.8,7.8,0,0,0-7.73-8.11c-4.77,0-7.62,3.67-7.62,8v.11c0,4.33,3.12,8.12,7.73,8.12C1063.23,139.52,1066.08,135.84,1066.08,131.51Z" transform="translate(0 -0.01)"/><path class="cls-1" d="M1078.53,106h8.34v40h-8.34Z" transform="translate(0 -0.01)"/><path class="cls-1" d="M1091.09,131.51v-.11c0-8.44,6.8-15.3,16-15.3s15.85,6.75,15.85,15.19v.11c0,8.45-6.8,15.3-16,15.3S1091.09,140,1091.09,131.51Zm23.58,0v-.11a7.8,7.8,0,0,0-7.73-8.11c-4.77,0-7.62,3.67-7.62,8v.11c0,4.33,3.12,8.12,7.73,8.12C1111.82,139.52,1114.67,135.84,1114.67,131.51Z" transform="translate(0 -0.01)"/><path class="cls-1" d="M1126.91,151.86l2.85-6.25a19.15,19.15,0,0,0,9.92,2.68c5.71,0,8.39-2.74,8.39-8v-1.43c-2.46,3-5.15,4.77-9.59,4.77-6.86,0-13-5-13-13.71v-.11c0-8.77,6.3-13.71,13-13.71a11.87,11.87,0,0,1,9.48,4.39v-3.84h8.34v22.76c0,5.26-1.26,9.1-3.73,11.57-2.74,2.74-7,4-12.67,4A27.92,27.92,0,0,1,1126.91,151.86Zm21.16-21.94v-.11c0-4-3.12-6.8-7.18-6.8s-7.13,2.8-7.13,6.8v.11c0,4.06,3.07,6.8,7.13,6.8S1148.07,133.92,1148.07,129.92Z" transform="translate(0 -0.01)"/><path class="cls-1" d="M1161.18,153l2.8-6a7.57,7.57,0,0,0,3.57,1.15,2.78,2.78,0,0,0,2.9-1.92l-11.51-29.5h8.82l6.69,20,6.42-20h8.67l-11.3,30.11c-2.25,6-4.66,8.22-9.65,8.22A13.83,13.83,0,0,1,1161.18,153Z" transform="translate(0 -0.01)"/><path class="cls-2" d="M623.38,192.26a84.52,84.52,0,0,1-21.82-2.44,72.66,72.66,0,0,1-20.29-8.54c-12.69-7.63-22.77-18.56-34.41-27.11a79.53,79.53,0,0,0-18.72-10.55A73.57,73.57,0,0,0,507.26,139c-14.28-1.07-29,.68-41.76,6.95-1.59.8-3.18,1.58-4.7,2.5s-3,1.85-4.54,2.81c-2.95,2-5.84,4.13-8.6,6.43-5.58,4.55-10.85,9.59-16.44,14.39-2.78,2.42-5.69,4.73-8.67,7a93.8,93.8,0,0,1-9.44,6.09A73.91,73.91,0,0,1,392,193a93.83,93.83,0,0,1-22.41,1.76A81.59,81.59,0,0,1,347.29,191,78.12,78.12,0,0,1,327,181a184.8,184.8,0,0,1-17.38-13.88,177.35,177.35,0,0,0-16.8-13.4,71.54,71.54,0,0,0-18.69-9.23,74.64,74.64,0,0,0-20.58-3.35,87,87,0,0,0-20.86,1.7A67.29,67.29,0,0,0,213.36,150l-2.25,1.29c-.75.44-1.47.93-2.21,1.39-1.48.91-2.88,2-4.31,3-2.82,2.11-5.58,4.32-8.31,6.65-5.48,4.61-10.81,9.66-16.67,14.33-2.91,2.36-6,4.58-9.17,6.68-1.62,1-3.21,2.05-4.91,3s-3.39,1.8-5.12,2.64a76.09,76.09,0,0,1-22.06,6.32,98.36,98.36,0,0,1-22.68.31A78.06,78.06,0,0,1,93.57,190c-1.74-.76-3.51-1.49-5.18-2.39-.84-.44-1.71-.84-2.53-1.32l-2.45-1.44a92.55,92.55,0,0,1-9.26-6.44c-11.79-9.2-21.35-20.28-33.39-28.07a70.87,70.87,0,0,0-19.37-9.07A87.71,87.71,0,0,0,0,138v-.78l5.5-.06,5.52.25c1.83.21,3.67.4,5.49.66l2.73.49c.91.17,1.83.32,2.72.56a73.59,73.59,0,0,1,20.68,8.22l2.4,1.43,2.33,1.54c1.57,1,3.05,2.13,4.56,3.21,3,2.22,5.84,4.53,8.67,6.88,5.65,4.67,11.07,9.5,16.87,13.64a80.08,80.08,0,0,0,18.42,10.17,71.38,71.38,0,0,0,20.41,4.39,94.38,94.38,0,0,0,21-.75,68.7,68.7,0,0,0,19.76-6.08c1.54-.77,3.09-1.53,4.58-2.43s3-1.79,4.43-2.73a105.34,105.34,0,0,0,8.45-6.31C180,165.8,185.33,160.82,191,156c2.8-2.43,5.79-4.73,8.83-7,1.58-1.07,3.1-2.2,4.74-3.18.82-.5,1.61-1,2.44-1.51l2.51-1.41a75.31,75.31,0,0,1,21.64-7.76,94.34,94.34,0,0,1,22.71-1.44,82.45,82.45,0,0,1,22.43,4.09,78.56,78.56,0,0,1,20.28,10.39,182.54,182.54,0,0,1,17.2,14.14A180.85,180.85,0,0,0,330.39,176a72.35,72.35,0,0,0,18.67,9.57,75.91,75.91,0,0,0,20.73,3.74A88.18,88.18,0,0,0,391,188a68.84,68.84,0,0,0,19.84-7.06,86.42,86.42,0,0,0,9-5.65c2.89-2.1,5.73-4.3,8.48-6.64C433.84,164,439.2,159,445,154.4c2.87-2.33,5.91-4.5,9-6.56,1.58-1,3.15-2,4.8-2.88s3.31-1.75,5-2.57a74.23,74.23,0,0,1,21.49-6.18,98.4,98.4,0,0,1,22.23-.35,76.42,76.42,0,0,1,21.62,5.2,82.32,82.32,0,0,1,19.12,11.22c11.71,9,21.5,20,33.82,27.66a71.31,71.31,0,0,0,19.75,8.74,83.9,83.9,0,0,0,21.53,2.8Z" transform="translate(0 -0.01)"/><path class="cls-1" d="M453,148.79h.39l1.4-.95c1.59-1,3.15-2,4.81-2.88s3.31-1.75,5-2.57a74.23,74.23,0,0,1,21.49-6.18,93.71,93.71,0,0,1,14.58-.78,99,99,0,0,0,12.44-9L513,65.26l-61.14.07,0,26.75,31.18,0,0,20.11c-7.84,5.64-17.89,8.46-29.15,8.48-24.94,0-42.66-18.86-42.69-44.6v-.41c0-23.93,17.85-43.86,40.38-43.88,16.29,0,25.95,5.19,36.82,14.23l19.48-23.55C493.24,10,477.94,3.16,452.6,3.18c-42.64.06-73.77,32.87-73.73,72.89v.41C378.92,118.11,409.13,148.85,453,148.79Z" transform="translate(0 -0.01)"/><path class="cls-1" d="M277,137.83a77.79,77.79,0,0,1,9.88,4.14l-.05-40.44,24.33,0,30,44.68a79,79,0,0,1,14.92-4.54,90.74,90.74,0,0,1,17.12-1.57L343.18,96.24c17.89-6.66,30.14-20.95,30.12-43.68v-.4c0-13.27-4.26-24.33-12.11-32.17C351.93,10.75,338,5.74,320.14,5.76l-64.35.08.15,128A81.3,81.3,0,0,1,277,137.83ZM317.56,33.72c15.09,0,24.35,6.81,24.36,20.08v.41c0,11.86-8.62,19.92-23.71,19.93l-31.37,0,0-40.42Z" transform="translate(0 -0.01)"/><path class="cls-1" d="M141,146.42a93.27,93.27,0,0,0-16-2h0a.39.39,0,0,1-.38-.41.39.39,0,0,1,.39-.37l5.5-.06,5.52.25c1.83.21,3.67.4,5.5.66l.26.05,11.94-29.4,59.53-.07,9.23,22.56a82.36,82.36,0,0,1,9.46-2.5A93.44,93.44,0,0,1,253,133.68L198,4.91,169.44,5,109.27,146.81l31.58,0ZM183.37,42.14l18.75,45.63-37.41,0Z" transform="translate(0 -0.01)"/><path class="cls-1" d="M102.23,215h8.63v39.2h-8.63Z" transform="translate(0 -0.01)"/><path class="cls-1" d="M117.52,224.16H126v4.26c2-2.52,4.48-4.82,8.79-4.82,6.44,0,10.2,4.26,10.2,11.15v19.43H136.5V237.43c0-4-1.9-6.1-5.15-6.1s-5.32,2.07-5.32,6.1v16.75h-8.51Z" transform="translate(0 -0.01)"/><path class="cls-1" d="M151.57,245.67V231.44H148v-7.28h3.59v-7.67h8.51v7.67h7v7.28h-7v12.83c0,1.95.84,2.91,2.74,2.91a8.56,8.56,0,0,0,4.2-1.07v6.83a12.48,12.48,0,0,1-6.72,1.74C155.09,254.68,151.57,252.61,151.57,245.67Z" transform="translate(0 -0.01)"/><path class="cls-1" d="M168.87,239.34v-.12c0-8.56,6.1-15.62,14.84-15.62,10,0,14.62,7.79,14.62,16.3,0,.67-.06,1.45-.12,2.24H177.33a7,7,0,0,0,7.33,5.88,9.84,9.84,0,0,0,7.28-3.08l4.87,4.31a15,15,0,0,1-12.26,5.6C175.53,254.85,168.87,248.52,168.87,239.34ZM190,236.82c-.51-3.81-2.75-6.39-6.33-6.39s-5.82,2.52-6.5,6.39Z" transform="translate(0 -0.01)"/><path class="cls-1" d="M202.41,224.16h8.52v6.05c1.73-4.15,4.53-6.83,9.57-6.61v8.91h-.45c-5.65,0-9.12,3.41-9.12,10.58v11.09h-8.52Z" transform="translate(0 -0.01)"/><path class="cls-1" d="M223.58,224.16h8.51v4.26c2-2.52,4.48-4.82,8.8-4.82,6.43,0,10.19,4.26,10.19,11.15v19.43h-8.52V237.43c0-4-1.9-6.1-5.15-6.1s-5.32,2.07-5.32,6.1v16.75h-8.51Z" transform="translate(0 -0.01)"/><path class="cls-1" d="M254.44,245.55v-.11c0-6.55,5-9.57,12.09-9.57a21.29,21.29,0,0,1,7.34,1.23v-.51c0-3.53-2.19-5.49-6.44-5.49a22,22,0,0,0-8.29,1.63l-2.13-6.5a26.56,26.56,0,0,1,11.65-2.4c4.65,0,8,1.23,10.14,3.35s3.24,5.55,3.24,9.58v17.42h-8.23v-3.25a11.56,11.56,0,0,1-9.07,3.81C259.08,254.74,254.44,251.49,254.44,245.55Zm19.54-2v-1.51a13.24,13.24,0,0,0-5.43-1.12c-3.64,0-5.88,1.46-5.88,4.14v.12c0,2.29,1.9,3.64,4.64,3.64C271.29,248.86,274,246.67,274,243.59Z" transform="translate(0 -0.01)"/><path class="cls-1" d="M288.26,245.67V231.44h-3.58v-7.28h3.58v-7.67h8.51v7.67h7.06v7.28h-7.06v12.83c0,1.95.84,2.91,2.75,2.91a8.62,8.62,0,0,0,4.2-1.07v6.83a12.53,12.53,0,0,1-6.72,1.74C291.79,254.68,288.26,252.61,288.26,245.67Z" transform="translate(0 -0.01)"/><path class="cls-1" d="M308,213.3h9v7.56h-9Zm.22,10.86h8.51v30h-8.51Z" transform="translate(0 -0.01)"/><path class="cls-1" d="M321.07,239.34v-.12c0-8.62,6.95-15.62,16.3-15.62s16.18,6.89,16.18,15.51v.11c0,8.63-6.94,15.63-16.29,15.63S321.07,248,321.07,239.34Zm24.08,0v-.12c0-4.42-3.19-8.28-7.89-8.28-4.87,0-7.79,3.75-7.79,8.17v.11a8,8,0,0,0,7.9,8.29C342.24,247.51,345.15,243.76,345.15,239.34Z" transform="translate(0 -0.01)"/><path class="cls-1" d="M357.47,224.16H366v4.26c2-2.52,4.48-4.82,8.79-4.82,6.44,0,10.19,4.26,10.19,11.15v19.43h-8.51V237.43c0-4-1.91-6.1-5.15-6.1s-5.32,2.07-5.32,6.1v16.75h-8.52Z" transform="translate(0 -0.01)"/><path class="cls-1" d="M388.33,245.55v-.11c0-6.55,5-9.57,12.1-9.57a21.27,21.27,0,0,1,7.33,1.23v-.51c0-3.53-2.18-5.49-6.44-5.49a22.07,22.07,0,0,0-8.29,1.63l-2.12-6.5a26.54,26.54,0,0,1,11.64-2.4c4.65,0,8,1.23,10.14,3.35s3.25,5.55,3.25,9.58v17.42h-8.23v-3.25a11.58,11.58,0,0,1-9.08,3.81C393,254.74,388.33,251.49,388.33,245.55Zm19.54-2v-1.51a13.21,13.21,0,0,0-5.43-1.12c-3.64,0-5.88,1.46-5.88,4.14v.12c0,2.29,1.91,3.64,4.65,3.64C405.19,248.86,407.87,246.67,407.87,243.59Z" transform="translate(0 -0.01)"/><path class="cls-1" d="M421.43,213.3h8.51v40.88h-8.51Z" transform="translate(0 -0.01)"/><path class="cls-1" d="M449.42,234.69v-.11a19.92,19.92,0,0,1,20.44-20.27c7.39,0,11.82,2.46,15.46,6l-5.49,6.33c-3-2.74-6.1-4.42-10-4.42-6.61,0-11.37,5.49-11.37,12.21v.11c0,6.72,4.65,12.32,11.37,12.32,4.48,0,7.22-1.8,10.3-4.59l5.49,5.54c-4,4.31-8.51,7-16.07,7A19.79,19.79,0,0,1,449.42,234.69Z" transform="translate(0 -0.01)"/><path class="cls-1" d="M487.56,245.55v-.11c0-6.55,5-9.57,12.09-9.57A21.29,21.29,0,0,1,507,237.1v-.51c0-3.53-2.18-5.49-6.44-5.49a22.07,22.07,0,0,0-8.29,1.63l-2.13-6.5a26.62,26.62,0,0,1,11.65-2.4c4.65,0,8,1.23,10.14,3.35s3.25,5.55,3.25,9.58v17.42h-8.24v-3.25a11.55,11.55,0,0,1-9.07,3.81C492.21,254.74,487.56,251.49,487.56,245.55Zm19.54-2v-1.51a13.21,13.21,0,0,0-5.43-1.12c-3.64,0-5.88,1.46-5.88,4.14v.12c0,2.29,1.9,3.64,4.65,3.64C504.41,248.86,507.1,246.67,507.1,243.59Z" transform="translate(0 -0.01)"/><path class="cls-1" d="M520.26,224.16h8.51v4.26c2-2.52,4.48-4.82,8.8-4.82,6.44,0,10.19,4.26,10.19,11.15v19.43h-8.51V237.43c0-4-1.91-6.1-5.16-6.1s-5.32,2.07-5.32,6.1v16.75h-8.51Z" transform="translate(0 -0.01)"/><path class="cls-1" d="M551.45,239.34v-.12a15.41,15.41,0,0,1,15.74-15.62c5.65,0,9.18,1.91,12,5l-5.21,5.6c-1.9-2-3.8-3.3-6.83-3.3-4.25,0-7.28,3.75-7.28,8.17v.11c0,4.6,3,8.29,7.62,8.29,2.85,0,4.81-1.23,6.89-3.19l5,5a15.11,15.11,0,0,1-12.26,5.49A15.33,15.33,0,0,1,551.45,239.34Z" transform="translate(0 -0.01)"/><path class="cls-1" d="M580.35,239.34v-.12c0-8.56,6.1-15.62,14.84-15.62,10,0,14.61,7.79,14.61,16.3,0,.67,0,1.45-.11,2.24H588.8a7,7,0,0,0,7.34,5.88,9.84,9.84,0,0,0,7.28-3.08l4.87,4.31a15,15,0,0,1-12.26,5.6C587,254.85,580.35,248.52,580.35,239.34Zm21.17-2.52c-.51-3.81-2.75-6.39-6.33-6.39s-5.83,2.52-6.5,6.39Z" transform="translate(0 -0.01)"/><path class="cls-1" d="M613.89,224.16h8.51v6.05c1.74-4.15,4.54-6.83,9.58-6.61v8.91h-.45c-5.65,0-9.13,3.41-9.13,10.58v11.09h-8.51Z" transform="translate(0 -0.01)"/><path class="cls-1" d="M648.78,234.69v-.11a20.11,20.11,0,0,1,20.55-20.27c7.06,0,11.31,1.9,15.4,5.37l-5.43,6.55c-3-2.52-5.71-4-10.25-4-6.27,0-11.26,5.54-11.26,12.21v.11c0,7.17,4.93,12.43,11.88,12.43a13.84,13.84,0,0,0,8.12-2.35v-5.6h-8.68v-7.45h17v17a25.43,25.43,0,0,1-16.74,6.22C657.18,254.85,648.78,246.28,648.78,234.69Z" transform="translate(0 -0.01)"/><path class="cls-1" d="M689.83,239.34v-.12c0-8.56,6.1-15.62,14.84-15.62,10,0,14.61,7.79,14.61,16.3,0,.67,0,1.45-.11,2.24H698.28a7,7,0,0,0,7.34,5.88,9.86,9.86,0,0,0,7.28-3.08l4.87,4.31a15,15,0,0,1-12.26,5.6C696.49,254.85,689.83,248.52,689.83,239.34ZM711,236.82c-.5-3.81-2.74-6.39-6.32-6.39s-5.83,2.52-6.5,6.39Z" transform="translate(0 -0.01)"/><path class="cls-1" d="M723.37,224.16h8.51v4.26c2-2.52,4.48-4.82,8.79-4.82,6.44,0,10.2,4.26,10.2,11.15v19.43h-8.52V237.43c0-4-1.9-6.1-5.15-6.1s-5.32,2.07-5.32,6.1v16.75h-8.51Z" transform="translate(0 -0.01)"/><path class="cls-1" d="M754.56,239.34v-.12c0-8.62,7-15.62,16.3-15.62S787,230.49,787,239.11v.11c0,8.63-6.94,15.63-16.29,15.63S754.56,248,754.56,239.34Zm24.08,0v-.12c0-4.42-3.19-8.28-7.89-8.28-4.88,0-7.79,3.75-7.79,8.17v.11c0,4.43,3.19,8.29,7.9,8.29C775.73,247.51,778.64,243.76,778.64,239.34Z" transform="translate(0 -0.01)"/><path class="cls-1" d="M791,224.16h8.51v4.26c2-2.52,4.54-4.82,8.85-4.82,3.92,0,6.89,1.74,8.46,4.76a12.34,12.34,0,0,1,9.85-4.76c6.33,0,10.14,3.81,10.14,11v19.55h-8.51V237.43c0-4-1.8-6.1-5-6.1s-5.15,2.07-5.15,6.1v16.75h-8.51V237.43c0-4-1.79-6.1-5-6.1s-5.15,2.07-5.15,6.1v16.75H791Z" transform="translate(0 -0.01)"/><path class="cls-1" d="M840.46,239.34v-.12c0-8.56,6.11-15.62,14.85-15.62,10,0,14.61,7.79,14.61,16.3,0,.67-.06,1.45-.11,2.24H848.92a7,7,0,0,0,7.34,5.88,9.86,9.86,0,0,0,7.28-3.08l4.87,4.31a15,15,0,0,1-12.26,5.6C847.13,254.85,840.46,248.52,840.46,239.34Zm21.17-2.52c-.5-3.81-2.74-6.39-6.32-6.39s-5.83,2.52-6.5,6.39Z" transform="translate(0 -0.01)"/><path class="cls-1" d="M887.73,234.69v-.11a19.92,19.92,0,0,1,20.44-20.27c7.39,0,11.81,2.46,15.45,6l-5.48,6.33c-3-2.74-6.11-4.42-10-4.42-6.61,0-11.37,5.49-11.37,12.21v.11c0,6.72,4.65,12.32,11.37,12.32,4.48,0,7.23-1.8,10.31-4.59l5.48,5.54c-4,4.31-8.51,7-16.07,7A19.79,19.79,0,0,1,887.73,234.69Z" transform="translate(0 -0.01)"/><path class="cls-1" d="M925.64,239.34v-.12c0-8.62,6.94-15.62,16.29-15.62s16.19,6.89,16.19,15.51v.11c0,8.63-7,15.63-16.3,15.63S925.64,248,925.64,239.34Zm24.08,0v-.12a8,8,0,0,0-7.9-8.28c-4.87,0-7.78,3.75-7.78,8.17v.11c0,4.43,3.19,8.29,7.89,8.29C946.81,247.51,949.72,243.76,949.72,239.34Z" transform="translate(0 -0.01)"/><path class="cls-1" d="M962,224.16h8.51v4.26c2-2.52,4.48-4.82,8.79-4.82,6.44,0,10.19,4.26,10.19,11.15v19.43H981V237.43c0-4-1.9-6.1-5.15-6.1s-5.32,2.07-5.32,6.1v16.75H962Z" transform="translate(0 -0.01)"/><path class="cls-1" d="M992.33,250.2l3.64-5.6a17,17,0,0,0,9.47,3.58c2.46,0,3.58-.89,3.58-2.24v-.11c0-1.85-2.91-2.46-6.22-3.47-4.2-1.23-9-3.19-9-9v-.12c0-6.1,4.93-9.52,11-9.52a20.81,20.81,0,0,1,11.2,3.47l-3.25,5.88c-3-1.73-5.93-2.79-8.12-2.79s-3.13.89-3.13,2.07v.11c0,1.68,2.85,2.46,6.1,3.58,4.2,1.4,9.07,3.42,9.07,8.91v.11c0,6.66-5,9.69-11.48,9.69A21,21,0,0,1,992.33,250.2Z" transform="translate(0 -0.01)"/><path class="cls-1" d="M1019.1,239.34v-.12c0-8.62,6.95-15.62,16.3-15.62s16.18,6.89,16.18,15.51v.11c0,8.63-6.94,15.63-16.29,15.63S1019.1,248,1019.1,239.34Zm24.08,0v-.12c0-4.42-3.19-8.28-7.89-8.28-4.88,0-7.79,3.75-7.79,8.17v.11c0,4.43,3.19,8.29,7.9,8.29C1040.27,247.51,1043.18,243.76,1043.18,239.34Z" transform="translate(0 -0.01)"/><path class="cls-1" d="M1055.5,224.16H1064v6.05c1.74-4.15,4.54-6.83,9.58-6.61v8.91h-.45c-5.65,0-9.13,3.41-9.13,10.58v11.09h-8.51Z" transform="translate(0 -0.01)"/><path class="cls-1" d="M1078.07,245.67V231.44h-3.58v-7.28h3.58v-7.67h8.51v7.67h7.06v7.28h-7.06v12.83c0,1.95.84,2.91,2.75,2.91a8.62,8.62,0,0,0,4.2-1.07v6.83a12.53,12.53,0,0,1-6.72,1.74C1081.6,254.68,1078.07,252.61,1078.07,245.67Z" transform="translate(0 -0.01)"/><path class="cls-1" d="M1097.84,213.3h9v7.56h-9Zm.22,10.86h8.51v30h-8.51Z" transform="translate(0 -0.01)"/><path class="cls-1" d="M1112.12,243.59V224.16h8.51v16.75c0,4,1.9,6.1,5.15,6.1s5.32-2.07,5.32-6.1V224.16h8.51v30h-8.51v-4.26c-2,2.52-4.48,4.82-8.79,4.82C1115.87,254.74,1112.12,250.48,1112.12,243.59Z" transform="translate(0 -0.01)"/><path class="cls-1" d="M1145,224.16h8.51v4.26c2-2.52,4.53-4.82,8.85-4.82,3.92,0,6.88,1.74,8.45,4.76a12.38,12.38,0,0,1,9.86-4.76c6.33,0,10.14,3.81,10.14,11v19.55h-8.52V237.43c0-4-1.79-6.1-5-6.1s-5.15,2.07-5.15,6.1v16.75h-8.51V237.43c0-4-1.8-6.1-5-6.1s-5.15,2.07-5.15,6.1v16.75H1145Z" transform="translate(0 -0.01)"/><path class="cls-1" d="M597.61,112.66q-.27,2.53-.57,5.07h58a74,74,0,0,0,11.35-23.39H627.89A38.52,38.52,0,0,1,597.61,112.66Z" transform="translate(0 -0.01)"/><path class="cls-1" d="M523.73,94.34a74,74,0,0,0,11.35,23.39h14.68a76.18,76.18,0,0,1-10.84-23.39Z" transform="translate(0 -0.01)"/><path class="cls-1" d="M631.73,85.94h36.45a74.79,74.79,0,0,0,0-23.39H631.73a38.69,38.69,0,0,1,0,23.39Z" transform="translate(0 -0.01)"/><path class="cls-1" d="M537.22,62.55H521.89a74.79,74.79,0,0,0,0,23.39h15.28a73.62,73.62,0,0,1,.05-23.39Z" transform="translate(0 -0.01)"/><path class="cls-1" d="M647.89,22.37A73.84,73.84,0,0,0,595,.18c-.32,0-.65,0-1,0,1.26,7.36,2.29,14.76,3.14,22.16Z" transform="translate(0 -0.01)"/><path class="cls-1" d="M593.68.22a73.8,73.8,0,0,0-51.5,22.15h14.46A76.57,76.57,0,0,1,593.68.22Z" transform="translate(0 -0.01)"/><path class="cls-1" d="M535.08,30.77a73.86,73.86,0,0,0-11.35,23.39H539a75.88,75.88,0,0,1,11-23.39Z" transform="translate(0 -0.01)"/><path class="cls-1" d="M627.89,54.16h38.45A73.86,73.86,0,0,0,655,30.77H598.08c.16,1.71.3,3.42.44,5.14A38.48,38.48,0,0,1,627.89,54.16Z" transform="translate(0 -0.01)"/><path class="cls-1" d="M592.29,148.2a76.65,76.65,0,0,1-35.9-22.08H542.18a74,74,0,0,0,105.71,0H596Q594.42,137.19,592.29,148.2Z" transform="translate(0 -0.01)"/><path class="cls-3" d="M594,.11l-.36.11h.37S594,.14,594,.11Z" transform="translate(0 -0.01)"/><path class="cls-4" d="M595,112.75a38.49,38.49,0,0,1-32.85-18.41H538.92a76.18,76.18,0,0,0,10.84,23.39H597q.3-2.53.57-5.07C596.76,112.71,595.9,112.75,595,112.75Z" transform="translate(0 -0.01)"/><path class="cls-4" d="M558.34,62.55H537.22a73.62,73.62,0,0,0-.05,23.39h21.17a38.69,38.69,0,0,1,0-23.39Z" transform="translate(0 -0.01)"/><path class="cls-4" d="M556.64,22.37h40.55c-.85-7.4-1.88-14.8-3.14-22.16h-.37A76.57,76.57,0,0,0,556.64,22.37Z" transform="translate(0 -0.01)"/><path class="cls-4" d="M595,35.74c1.18,0,2.34.06,3.49.17-.14-1.72-.28-3.43-.44-5.14H550a75.88,75.88,0,0,0-11,23.39h23.18A38.48,38.48,0,0,1,595,35.74Z" transform="translate(0 -0.01)"/><path class="cls-4" d="M592.29,148.2q2.15-11,3.67-22.08H556.39A76.65,76.65,0,0,0,592.29,148.2Z" transform="translate(0 -0.01)"/><path class="cls-2" d="M596.85,58.91V72.74h14.54a51.68,51.68,0,0,0-2.2-13.83Z" transform="translate(0 -0.01)"/><path class="cls-2" d="M596.85,75.74V89.58h12.34a51.75,51.75,0,0,0,2.2-13.84Z" transform="translate(0 -0.01)"/><path class="cls-2" d="M593.85,89.58V75.74H579.31a51.75,51.75,0,0,0,2.2,13.84Z" transform="translate(0 -0.01)"/><path class="cls-2" d="M593.85,104.8V92.58H582.57C585.24,99.3,589.3,104,593.85,104.8Z" transform="translate(0 -0.01)"/><path class="cls-2" d="M593.85,72.74V58.91H581.51a51.68,51.68,0,0,0-2.2,13.83Z" transform="translate(0 -0.01)"/><path class="cls-2" d="M611.43,92.58a30.24,30.24,0,0,1-6.34,10.77,30.33,30.33,0,0,0,4.64-2,31,31,0,0,0,10-8.77Z" transform="translate(0 -0.01)"/><path class="cls-2" d="M593.85,55.91V43.69h0c-4.53.87-8.58,5.51-11.24,12.21Z" transform="translate(0 -0.01)"/><path class="cls-2" d="M596.85,92.58V104.8c4.55-.85,8.61-5.5,11.28-12.22Z" transform="translate(0 -0.01)"/><path class="cls-2" d="M585.61,103.35a30.24,30.24,0,0,1-6.34-10.77h-8.53A30.85,30.85,0,0,0,585.61,103.35Z" transform="translate(0 -0.01)"/><path class="cls-2" d="M578.31,89.58a56,56,0,0,1-2-13.84H564.69a30.47,30.47,0,0,0,4.08,13.84Z" transform="translate(0 -0.01)"/><path class="cls-2" d="M614.39,75.74a56,56,0,0,1-2,13.84h9.25a30.65,30.65,0,0,0,4-13.84Z" transform="translate(0 -0.01)"/><path class="cls-2" d="M612.39,58.91a55.88,55.88,0,0,1,2,13.83h11.2a30.52,30.52,0,0,0-4.17-13.83Z" transform="translate(0 -0.01)"/><path class="cls-2" d="M597.2,43.77l-.35,0V55.91h11.28C605.53,49.36,601.6,44.78,597.2,43.77Z" transform="translate(0 -0.01)"/><path class="cls-2" d="M605.48,45.55a30.88,30.88,0,0,1,5.95,10.36h8A30.88,30.88,0,0,0,605.48,45.55Z" transform="translate(0 -0.01)"/><path class="cls-2" d="M570.74,55.91h8.53a30.15,30.15,0,0,1,6.34-10.77A30.85,30.85,0,0,0,570.74,55.91Z" transform="translate(0 -0.01)"/><path class="cls-2" d="M576.31,72.74a55.88,55.88,0,0,1,2-13.83h-9.54a30.43,30.43,0,0,0-4.08,13.83Z" transform="translate(0 -0.01)"/><path class="cls-4" d="M747.59,198.74a84.52,84.52,0,0,1-21.82-2.44,72.91,72.91,0,0,1-20.29-8.54c-12.69-7.63-22.77-18.56-34.4-27.11a79.73,79.73,0,0,0-18.72-10.55,73.63,73.63,0,0,0-20.89-4.63c-14.28-1.07-29,.68-41.76,6.95-1.58.8-3.18,1.58-4.7,2.5s-3,1.85-4.54,2.81c-3,2-5.83,4.13-8.6,6.43-5.58,4.55-10.85,9.59-16.44,14.39-2.78,2.42-5.68,4.73-8.66,7a93.94,93.94,0,0,1-9.45,6.09,73.8,73.8,0,0,1-21.14,7.85,93.75,93.75,0,0,1-22.4,1.76,81.6,81.6,0,0,1-22.28-3.72,78.12,78.12,0,0,1-20.29-10.06,184.8,184.8,0,0,1-17.38-13.88,177.35,177.35,0,0,0-16.8-13.4,71.54,71.54,0,0,0-18.69-9.23,74.64,74.64,0,0,0-20.58-3.35,86.9,86.9,0,0,0-20.85,1.7,67.36,67.36,0,0,0-19.34,7.16l-2.25,1.29c-.75.44-1.47.93-2.2,1.39-1.48.91-2.88,2-4.32,3-2.82,2.11-5.57,4.32-8.31,6.65-5.48,4.61-10.81,9.66-16.67,14.33-2.9,2.36-6,4.58-9.16,6.68-1.62,1-3.22,2-4.92,2.95s-3.39,1.8-5.12,2.64a76.09,76.09,0,0,1-22.06,6.32,98.35,98.35,0,0,1-22.68.31,78.06,78.06,0,0,1-22.1-5.45c-1.74-.76-3.5-1.49-5.18-2.39-.84-.44-1.7-.84-2.52-1.32l-2.46-1.44a92.41,92.41,0,0,1-9.25-6.44c-11.8-9.2-21.36-20.28-33.4-28.07a70.73,70.73,0,0,0-19.37-9.07,87.71,87.71,0,0,0-21.39-3.32h0a.4.4,0,0,1-.38-.41.39.39,0,0,1,.39-.37l5.51-.06,5.51.25c1.83.21,3.67.4,5.5.66l2.73.49c.91.17,1.82.32,2.72.56a73.53,73.53,0,0,1,20.67,8.22l2.41,1.43,2.33,1.54c1.56,1,3,2.13,4.55,3.21,3,2.22,5.85,4.53,8.67,6.88,5.65,4.67,11.08,9.5,16.88,13.64a80.08,80.08,0,0,0,18.42,10.17,71.24,71.24,0,0,0,20.4,4.39,94.38,94.38,0,0,0,21-.75,68.7,68.7,0,0,0,19.76-6.08c1.54-.77,3.09-1.53,4.58-2.43s3-1.79,4.43-2.73a105.34,105.34,0,0,0,8.45-6.31c5.52-4.48,10.82-9.46,16.48-14.27,2.81-2.43,5.79-4.73,8.84-7,1.57-1.07,3.09-2.2,4.74-3.18.81-.5,1.61-1,2.44-1.51l2.51-1.41a75.52,75.52,0,0,1,21.64-7.77,94.81,94.81,0,0,1,22.71-1.43,82.45,82.45,0,0,1,22.42,4.09,78.56,78.56,0,0,1,20.28,10.39A184,184,0,0,1,438,168.84a179.52,179.52,0,0,0,16.62,13.67,72,72,0,0,0,18.67,9.57A75.85,75.85,0,0,0,494,195.82a88.1,88.1,0,0,0,21.16-1.37A68.74,68.74,0,0,0,535,187.39a87.62,87.62,0,0,0,9-5.65c2.88-2.1,5.72-4.3,8.48-6.64,5.54-4.63,10.91-9.62,16.71-14.22,2.87-2.33,5.9-4.5,9-6.56,1.58-1,3.15-2,4.81-2.88s3.31-1.75,5-2.57a74.32,74.32,0,0,1,21.49-6.18,98.41,98.41,0,0,1,22.23-.35,76.42,76.42,0,0,1,21.62,5.2,82.32,82.32,0,0,1,19.12,11.22c11.71,9,21.5,20,33.82,27.66a71.37,71.37,0,0,0,19.76,8.74,83.83,83.83,0,0,0,21.52,2.8.38.38,0,0,1,.39.39A.38.38,0,0,1,747.59,198.74Z" transform="translate(0 -0.01)"/></svg>