<svg xmlns="http://www.w3.org/2000/svg" width="140" height="46" viewBox="0 0 140 46">
    <g fill="none" fill-rule="evenodd">
        <g>
            <g>
                <g>
                    <g>
                        <g>
                            <g>
                                <g>
                                    <path d="M24.932 10.533c-1.418.082-2.797.124-4.135.124-1.58 0-3.162 0-4.621-.083-1.5-.041-2.92-.165-4.217-.29-1.337-.123-2.513-.288-3.527-.495-.04 0-.08 0-.121-.041-.122.248-.243.537-.365.785-.203.495-.405.99-.608 1.528 1.054.165 2.31.33 3.648.413 1.42.124 3 .206 4.622.248 1.622.041 3.324.082 5.068.041 1.46 0 2.919-.041 4.419-.124-.04-.413-.04-.785-.081-1.198-.041-.248-.041-.578-.082-.908z" transform="translate(-758 -258) translate(0 63) translate(757 78) translate(.621 117) translate(1)"/>
                                    <path fill="#8FA6C6" fill-rule="nonzero" d="M35.797 4.626c-.202-.124-.446-.33-.648-.454 0 0-.04 0-.04-.042.242.166.526.372.85.62-.04 0-.08-.041-.162-.124zM34.743 3.924l.365.248-.365-.248zM15.243 1.61c.162-.04.325-.123.446-.164-.121.082-.284.124-.446.165zM37.662 6.113c.162.124.284.248.446.413-.122-.124-.284-.248-.446-.413zM37.014 5.576c-.284-.206-.365-.33-.69-.537.244.165.487.372.69.537.04.041.04 0 0 0zM13.662 2.23c.122-.04.243-.123.406-.165-.163.042-.284.124-.406.165zM34.338 3.676c.04.041.08.041.08.041s-.04 0-.08-.04zM37.216 5.741c.122.124.284.248.446.372-.162-.124-.284-.248-.446-.372zM14.514 1.9c.121-.041.243-.083.405-.165-.162.082-.284.124-.405.165zM33.405 3.14s.04 0 .04.04l-.04-.04zM28.46 1.198c.648.165 1.337.413 2.067.66-.527-.206-1.216-.454-2.068-.66zM23.19.413h.161-.162zM27.81 1.033c.082.04.163.04.285.082-.081-.041-.203-.082-.284-.082zM22.5.413c-.04 0-.04 0 0 0h-.04.162-.122zM26.027.66c.122 0 .243.042.365.042-.081 0-.203 0-.365-.041zM30.69 1.9c.161.083.364.124.526.207-.162-.042-.324-.124-.527-.207zM31.622 2.272c-.04 0-.04 0-.081-.042.527.207 1.094.496 1.621.785-.567-.289-1.094-.537-1.54-.743zM38.392 6.774c.162.124.284.289.446.413-.162-.124-.324-.29-.446-.413zM27.04.867c-.162-.04-.364-.082-.567-.124.203.042.405.083.568.124.04 0 .04 0 0 0zM16.014 1.363c.202-.041.364-.083.567-.124-.203.041-.365.083-.567.124zM16.824 1.157c.244-.083.527-.124.77-.207-.243.083-.526.124-.77.207zM8.878 4.998c.163-.124.365-.29.568-.413-.243.165-.405.289-.568.413zM8.635 5.163c.04-.041.122-.083.162-.124-.04.041-.08.083-.162.124zM9.973 4.213c.04-.041.081-.041.122-.083-.04.042-.081.042-.122.083zM9.486 4.543c.082-.082.163-.123.284-.206-.121.083-.202.165-.284.206zM8.432 5.328l.122-.124c-.04.083-.081.124-.122.124zM5.635 7.972l.487-.496-.487.496zM6.81 6.774c.204-.207.366-.33.528-.454-.203.123-.365.289-.527.454zM7.824 5.824c.122-.124.284-.248.487-.413-.162.165-.325.289-.487.413z" transform="translate(-758 -258) translate(0 63) translate(757 78) translate(.621 117) translate(1)"/>
                                    <path fill="#8FA6C6" fill-rule="nonzero" d="M8.757 8.84c-.162.33-.325.619-.487.95.04 0 .081 0 .122.04 1.013.207 2.19.372 3.527.496 1.297.124 2.716.207 4.216.29 1.46.04 3.04.082 4.622.082 1.338 0 2.757-.041 4.135-.124-.04-.33-.081-.661-.081-.991-.081-.62-.122-1.24-.203-1.818 2.27 0 4.419.042 6.365.124 1.905.083 3.608.248 5.068.413.648.083 1.256.165 1.783.29.527-.249.892-.455 1.054-.703.04-.041.081-.124.081-.165v-.165c0-.042-.04-.124-.04-.166-.04-.04-.081-.123-.122-.165-.243-.248-.77-.495-1.54-.743s-1.825-.455-3.04-.62c-1.258-.165-2.758-.33-4.42-.413-1.662-.082-3.527-.165-5.473-.124-.121-.826-.283-1.528-.405-2.148-.04-.247-.122-.495-.203-.702-.243-.041-.446 0-.689 0-.527.042-1.013.083-1.54.083-.487 0-.973 0-1.46-.041-.446-.042-.892-.083-1.257-.124-.365-.083-.73-.166-.973-.248-.283-.083-.446-.207-.527-.33-.08-.125-.08-.248 0-.372.081-.124.284-.248.527-.372.284-.124.608-.207 1.054-.33-.121 0-.202 0-.324.04-.122.042-.162.042-.284.042-.121 0-.202.041-.324.041s-.203.042-.324.083c-.65.165-1.298.372-1.946.66-.649.29-1.298.662-1.906 1.116-.608.454-1.216.991-1.824 1.57-.568.62-1.135 1.28-1.662 2.024-.649.123-1.257.247-1.784.371-.527.124-.973.248-1.378.413-.365.124-.69.29-.933.413-.243.124-.446.248-.527.413-.162.166-.203.33-.162.537.04.166.203.33.446.496.162.083.365.207.567.29.082 0 .122-.042.203-.042.608-.124 1.297-.248 2.068-.372zM11.068 3.552c-.041 0-.041.041-.082.041.122-.082.244-.123.365-.206-.08.041-.162.083-.283.165zM12.77 2.643c.162-.082.325-.165.446-.206-.162.041-.324.124-.446.206zM11.878 3.098c.163-.083.325-.165.527-.248-.202.083-.364.165-.527.248z" transform="translate(-758 -258) translate(0 63) translate(757 78) translate(.621 117) translate(1)"/>
                                    <path fill="#3D6C98" fill-rule="nonzero" d="M8.554 5.246c.04 0 .04-.042.081-.083 0 .041-.04.041-.08.083zM14.027 2.065c.162-.082.284-.124.446-.165-.122.041-.284.124-.446.165zM14.878 1.735l.365-.124-.365.124zM12.365 2.85c.121-.083.243-.124.365-.207-.122.083-.244.124-.365.207zM7.297 6.278c.203-.165.365-.33.527-.454-.202.165-.365.33-.527.454zM8.392 5.37c-.04.04-.081.04-.081.082l.08-.082c.041-.042.041 0 0 0zM10.946 3.593c-.284.166-.568.372-.851.537.283-.165.567-.371.891-.578 0 .041 0 .041-.04.041zM9.77 4.378c.081-.041.162-.082.244-.165-.122.041-.203.083-.244.165zM13.216 2.437c.162-.083.284-.124.446-.207-.162.083-.284.124-.446.207zM9.446 4.585s.04-.042 0 0c.04-.042 0 0 0 0zM8.838 5.04s0-.042 0 0c0-.042 0 0 0 0zM16.581 1.24c.081-.042.162-.042.243-.083-.08.04-.162.04-.243.082zM11.351 3.387c.163-.083.325-.207.487-.29-.122.083-.284.166-.487.29zM15.73 1.487c.08-.041.202-.041.284-.083-.082 0-.203.042-.284.083zM6.81 6.774l-.04.041c-.243.207-.365.372-.648.661.202-.289.446-.496.689-.702z" transform="translate(-758 -258) translate(0 63) translate(757 78) translate(.621 117) translate(1)"/>
                                    <path fill="#8FA6C6" fill-rule="nonzero" d="M7.095 7.187c.405-.124.85-.29 1.378-.413.527-.124 1.135-.248 1.784-.372.527-.743 1.094-1.404 1.662-2.024.567-.62 1.176-1.115 1.824-1.57.608-.454 1.257-.825 1.906-1.115.648-.289 1.297-.536 1.946-.66-.284.04-.527.124-.77.206-.082.041-.163.041-.244.083-.203.041-.365.082-.567.165-.082.041-.203.041-.284.083-.162.04-.325.082-.446.165-.162-.083-.284-.042-.406 0-.121.041-.243.082-.405.165-.122.041-.284.124-.446.165-.122.042-.243.124-.405.165-.163.042-.284.124-.446.207-.162.083-.325.124-.446.206-.122.042-.244.124-.365.207-.162.083-.324.165-.527.248-.162.082-.324.165-.487.289-.121.083-.243.124-.365.206-.324.207-.608.372-.891.579-.04.041-.081.041-.122.082-.081.042-.162.124-.243.166-.081.082-.203.123-.284.206 0 0-.04 0-.04.041-.203.166-.406.29-.568.413 0 0-.04 0-.04.042-.082.041-.122.082-.163.124l-.08.082-.123.124c-.04.041-.08.083-.121.083-.203.165-.365.289-.487.413-.162.124-.324.289-.527.454-.162.124-.283.29-.527.455l-.689.702-.486.495c.121-.124.283-.247.527-.413.283-.206.608-.33.973-.454z" transform="translate(-758 -258) translate(0 63) translate(757 78) translate(.621 117) translate(1)"/>
                                    <path fill="#234572" fill-rule="nonzero" d="M7.095 7.187c.405-.124.85-.29 1.378-.413.527-.124 1.135-.248 1.784-.372.527-.743 1.094-1.404 1.662-2.024.567-.62 1.176-1.115 1.824-1.57.608-.454 1.257-.825 1.906-1.115.648-.289 1.297-.536 1.946-.66-.284.04-.527.124-.77.206-.082.041-.163.041-.244.083-.203.041-.365.082-.567.165-.082.041-.203.041-.284.083-.162.04-.325.082-.446.165-.162-.083-.284-.042-.406 0-.121.041-.243.082-.405.165-.122.041-.284.124-.446.165-.122.042-.243.124-.405.165-.163.042-.284.124-.446.207-.162.083-.325.124-.446.206-.122.042-.244.124-.365.207-.162.083-.324.165-.527.248-.162.082-.324.165-.487.289-.121.083-.243.124-.365.206-.324.207-.608.372-.891.579-.04.041-.081.041-.122.082-.081.042-.162.124-.243.166-.081.082-.203.123-.284.206 0 0-.04 0-.04.041-.203.166-.406.29-.568.413 0 0-.04 0-.04.042-.082.041-.122.082-.163.124l-.08.082-.123.124c-.04.041-.08.083-.121.083-.203.165-.365.289-.487.413-.162.124-.324.289-.527.454-.162.124-.283.29-.527.455l-.689.702-.486.495c.121-.124.283-.247.527-.413.283-.206.608-.33.973-.454z" transform="translate(-758 -258) translate(0 63) translate(757 78) translate(.621 117) translate(1)"/>
                                    <path fill="#3D6C98" fill-rule="nonzero" d="M36 4.791c.162.124.284.207.365.29-.122-.124-.243-.207-.365-.29zM37.054 5.617l.122.124c0-.041-.04-.082-.122-.124zM34.419 3.717c.122.083.203.124.324.207-.121-.041-.202-.124-.324-.207zM37.622 6.113l.04.041c0-.041 0-.041-.04-.041zM26.432.743h.082-.082zM38.149 6.526l.243.248-.243-.248zM27.081.867c.243.042.487.124.73.166-.243-.083-.487-.124-.73-.166zM28.095 1.074c.121.041.283.083.405.083-.162 0-.284-.042-.405-.083zM22.5.413h.69-.69zM23.351.413c1.054.041 1.987.124 2.717.248C24.932.496 24.04.454 23.35.413z" transform="translate(-758 -258) translate(0 63) translate(757 78) translate(.621 117) translate(1)"/>
                                    <path fill="#3D6C98" fill-rule="nonzero" d="M25.54 2.024c.325-.083.568-.207.73-.33.162-.124.244-.248.244-.372s-.122-.248-.325-.372-.486-.207-.851-.29c-.365-.082-.811-.164-1.297-.206-.446 0-.933-.041-1.46-.041.122.041.243.124.365.29.162.206.324.495.446.908.081.248.162.496.243.826.284-.041.527-.083.77-.124.487-.083.852-.165 1.136-.29zM33.162 3.015l.243.124-.243-.124zM31.378 2.19c-.04-.042-.08-.042-.162-.042.122.041.203.082.284.124 0-.042-.081-.083-.122-.083zM33.446 3.18c.324.166.608.33.892.496-.284-.165-.568-.33-.892-.496zM30.568 1.859c.04 0 .08.041.162.041-.081 0-.122-.041-.162-.041z" transform="translate(-758 -258) translate(0 63) translate(757 78) translate(.621 117) translate(1)"/>
                                    <path fill="#8FA6C6" fill-rule="nonzero" d="M24.284 5.287c1.946 0 3.81.041 5.473.124 1.662.082 3.162.248 4.419.413 1.256.165 2.27.372 3.04.62.77.206 1.298.495 1.54.743-.161-.165-.283-.29-.445-.413l-.243-.248c-.163-.124-.325-.289-.446-.413l-.04-.041c-.163-.124-.285-.248-.447-.372l-.121-.124c-.244-.206-.487-.372-.69-.537-.08-.082-.202-.165-.365-.289-.324-.248-.608-.454-.85-.62h-.041l-.365-.247c-.081-.083-.203-.124-.325-.207-.04 0-.04-.041-.08-.041-.284-.165-.568-.33-.893-.496 0 0-.04 0-.04-.041l-.243-.124c-.527-.29-1.095-.537-1.622-.785-.081-.041-.203-.082-.284-.124-.162-.082-.365-.165-.527-.206-.04 0-.08-.042-.162-.042-.73-.289-1.419-.495-2.068-.66-.121-.042-.243-.083-.405-.083-.081-.041-.162-.041-.284-.083-.243-.041-.486-.124-.73-.165-.202-.041-.405-.083-.567-.124h-.081c-.122-.041-.243-.041-.365-.041-.73-.124-1.662-.207-2.716-.248h-.852.082c.527 0 1.013.041 1.459.083.486.041.932.124 1.297.206.365.083.649.165.852.29.202.123.324.247.324.371s-.081.248-.243.372c-.162.124-.406.248-.73.33-.324.083-.69.207-1.095.29-.243.04-.486.082-.77.123.081.207.122.455.203.702.203.579.324 1.28.446 2.107z" transform="translate(-758 -258) translate(0 63) translate(757 78) translate(.621 117) translate(1)"/>
                                    <path fill="#234572" fill-rule="nonzero" d="M24.284 5.287c1.946 0 3.81.041 5.473.124 1.662.082 3.162.248 4.419.413 1.256.165 2.27.372 3.04.62.77.206 1.298.495 1.54.743-.161-.165-.283-.29-.445-.413l-.243-.248c-.163-.124-.325-.289-.446-.413l-.04-.041c-.163-.124-.285-.248-.447-.372l-.121-.124c-.244-.206-.487-.372-.69-.537-.08-.082-.202-.165-.365-.289-.324-.248-.608-.454-.85-.62h-.041l-.365-.247c-.081-.083-.203-.124-.325-.207-.04 0-.04-.041-.08-.041-.284-.165-.568-.33-.893-.496 0 0-.04 0-.04-.041l-.243-.124c-.527-.29-1.095-.537-1.622-.785-.081-.041-.203-.082-.284-.124-.162-.082-.365-.165-.527-.206-.04 0-.08-.042-.162-.042-.73-.289-1.419-.495-2.068-.66-.121-.042-.243-.083-.405-.083-.081-.041-.162-.041-.284-.083-.243-.041-.486-.124-.73-.165-.202-.041-.405-.083-.567-.124h-.081c-.122-.041-.243-.041-.365-.041-.73-.124-1.662-.207-2.716-.248h-.852.082c.527 0 1.013.041 1.459.083.486.041.932.124 1.297.206.365.083.649.165.852.29.202.123.324.247.324.371s-.081.248-.243.372c-.162.124-.406.248-.73.33-.324.083-.69.207-1.095.29-.243.04-.486.082-.77.123.081.207.122.455.203.702.203.579.324 1.28.446 2.107z" transform="translate(-758 -258) translate(0 63) translate(757 78) translate(.621 117) translate(1)"/>
                                    <path fill="#8FA6C6" fill-rule="nonzero" d="M.486 17.224c0 .041-.04.124-.04.165.081-.206.122-.454.162-.62-.04.248-.081.29-.122.455zM2.068 13.135c.486-.95.932-1.694 1.256-2.19-.324.538-.77 1.281-1.256 2.19zM42 11.235c0 .041.04.041.04.082 0-.04 0-.04-.04-.082zM43.297 16.687c-.851-.124-2.148-.248-3.81-.372-1.703-.124-3.77-.206-6.163-.248-2.432-.04-5.148-.082-8.027-.082-.04-.785-.08-1.57-.121-2.313-.04-.33-.04-.661-.081-.95-1.5.041-2.96.082-4.42.124-1.743 0-3.445 0-5.067-.042-1.622-.041-3.203-.124-4.622-.247-1.337-.124-2.554-.248-3.648-.414l-.122.372c-.243.661-.446 1.322-.608 2.024-.203.702-.365 1.404-.486 2.148-.973.083-1.825.165-2.554.248-.69.082-1.298.165-1.744.248-.446.082-.81.165-1.013.247-.284.042-.406.083-.406.166-.04.082.081.165.244.247.202.083.486.124.851.207.365.083.851.124 1.419.207.527.04 1.176.123 1.905.165 1.338.082 2.92.165 4.581.248 1.663.04 3.446.082 5.311.123 1.865.042 3.811.042 5.798 0 1.986 0 4.054-.04 6.121-.082 2.108-.041 4.095-.124 5.96-.207 1.905-.082 3.648-.165 5.189-.289 1.621-.124 3-.248 4.135-.372 1.176-.123 2.027-.289 2.432-.454.04 0 .081-.041.122-.041.04 0 .081-.041.081-.041.04 0 .04-.042.04-.042v-.041c0-.248-.445-.413-1.297-.537zM1.014 15.613c0 .041-.041.083-.041.083-.04.041-.122.33-.203.578.04-.083.04-.124.081-.207.04-.124.122-.289.163-.454z" transform="translate(-758 -258) translate(0 63) translate(757 78) translate(.621 117) translate(1)"/>
                                    <path fill="#3D6C98" fill-rule="nonzero" d="M3.69 10.904c.08.166.283.29.607.413.284.124.69.248 1.135.372.446.124 1.014.248 1.663.33.08 0 .202.042.283.042.203-.537.406-1.033.608-1.528.122-.248.244-.537.365-.785-.527-.124-1.013-.248-1.378-.372-.162-.041-.284-.083-.405-.165-.487.124-.933.248-1.298.372-.405.124-.73.289-.973.413s-.405.247-.486.413c-.243.165-.243.33-.122.495z" transform="translate(-758 -258) translate(0 63) translate(757 78) translate(.621 117) translate(1)"/>
                                    <path fill="#8FA6C6" fill-rule="nonzero" d="M8.31 9.79c.163-.331.325-.662.487-.95-.77.123-1.46.247-2.067.412-.081 0-.122.041-.203.041.122.042.284.124.405.166.365.082.811.206 1.379.33z" transform="translate(-758 -258) translate(0 63) translate(757 78) translate(.621 117) translate(1)"/>
                                    <path fill="#234572" fill-rule="nonzero" d="M8.31 9.79c.163-.331.325-.662.487-.95-.77.123-1.46.247-2.067.412-.081 0-.122.041-.203.041.122.042.284.124.405.166.365.082.811.206 1.379.33z" transform="translate(-758 -258) translate(0 63) translate(757 78) translate(.621 117) translate(1)"/>
                                    <path fill="#3D6C98" fill-rule="nonzero" d="M1.986 13.3c-.08.165-.162.372-.283.578-.122.248-.203.496-.325.744 0 .041-.04.082-.04.124.121-.29.243-.537.365-.826.121-.248.202-.413.283-.62zM.77 16.274c-.04.124-.08.289-.162.496.04-.083.04-.166.081-.29.04-.082.081-.165.081-.206zM1.135 15.324c-.04.083-.08.165-.08.289.08-.206.161-.413.242-.66-.08.123-.121.247-.162.37z" transform="translate(-758 -258) translate(0 63) translate(757 78) translate(.621 117) translate(1)"/>
                                    <path fill="#8FA6C6" fill-rule="nonzero" d="M.77 17.39c.244-.083.568-.166 1.014-.249.446-.082 1.054-.165 1.743-.248.73-.082 1.581-.165 2.554-.247.162-.744.324-1.446.487-2.148.202-.702.405-1.363.608-2.024l.121-.372c-.08 0-.202-.041-.283-.041-.65-.124-1.176-.207-1.663-.33-.486-.124-.851-.248-1.135-.372-.284-.124-.486-.29-.608-.413-.122-.166-.122-.29 0-.455-.04.083-.081.166-.162.248-.04.041-.081.083-.081.124-.04.041-.04.083-.081.124-.325.496-.77 1.28-1.257 2.19.04 0 0 .04 0 .082 0 0 0 .041-.04.041-.082.165-.163.372-.284.578-.122.29-.244.579-.365.826l-.122.248c-.08.207-.162.413-.243.661-.04.165-.122.33-.162.454 0 .042-.04.124-.081.207-.04.083-.04.124-.081.206-.04.124-.081.248-.081.29-.041.165-.122.413-.163.62.04.082 0 .164 0 .206 0-.083.122-.124.365-.207z" transform="translate(-758 -258) translate(0 63) translate(757 78) translate(.621 117) translate(1)"/>
                                    <path fill="#234572" fill-rule="nonzero" d="M.77 17.39c.244-.083.568-.166 1.014-.249.486-.082 1.054-.165 1.784-.248.73-.082 1.58-.165 2.594-.247.162-.744.324-1.446.487-2.148.202-.702.405-1.363.608-2.024l.121-.372c-.08 0-.202-.041-.283-.041-.65-.124-1.176-.207-1.663-.33-.486-.124-.85-.248-1.135-.372-.283-.124-.486-.29-.608-.413-.121-.166-.121-.29 0-.455-.04.083-.08.166-.162.248-.04.041-.081.083-.081.124-.04.041-.04.083-.081.124-.324.496-.81 1.28-1.257 2.19 0 .04-.04.082-.04.123 0 0 0 .041-.041.041-.081.166-.162.372-.284.579-.121.289-.243.578-.365.826l-.121.247c-.081.207-.162.414-.243.661-.041.166-.122.33-.163.455 0 .041-.04.124-.08.206-.041.083-.041.124-.082.207-.04.124-.08.248-.08.289-.041.165-.123.413-.163.62 0 .04-.04.123-.04.165 0-.083.121-.124.364-.207z" transform="translate(-758 -258) translate(0 63) translate(757 78) translate(.621 117) translate(1)"/>
                                    <path fill="#3D6C98" fill-rule="nonzero" d="M44.027 15.241c.324.826.527 1.487.649 1.859-.04 0-.244-.743-.649-1.859zM43.135 13.217c-.04-.04-.04-.082-.08-.124.12.207.202.414.283.62-.081-.206-.122-.33-.203-.496zM40.946 9.665c.081.124.162.248.243.33-.08-.082-.162-.206-.243-.33zM34.378 9.541c-1.175.207-2.513.413-3.973.579-1.46.165-3 .289-4.702.371-.244 0-.487.042-.73.042.04.33.04.66.081.99.04.373.04.786.081 1.199.324 0 .608 0 .933-.042 1.824-.082 3.567-.206 5.148-.371 1.622-.166 3.122-.33 4.42-.537 1.337-.207 2.513-.455 3.405-.702.932-.248 1.58-.579 1.864-.868.04-.041.081-.082.081-.124.041-.041.041-.082.041-.124V9.83c0-.04-.04-.082-.081-.123-.203-.248-.69-.496-1.5-.744-.446-.124-.973-.248-1.581-.33-.162.082-.324.124-.527.206-.73.207-1.784.496-2.96.702z" transform="translate(-758 -258) translate(0 63) translate(757 78) translate(.621 117) translate(1)"/>
                                    <path fill="#8FA6C6" fill-rule="nonzero" d="M31.014 7.89c-1.946-.083-4.095-.166-6.365-.125.08.578.121 1.157.202 1.818.04.33.081.66.081.99.244 0 .487 0 .73-.04 1.662-.083 3.243-.207 4.703-.372 1.46-.165 2.838-.372 3.973-.578 1.216-.248 2.23-.496 3-.744.203-.082.365-.124.527-.206-.527-.083-1.135-.207-1.784-.29-1.419-.206-3.122-.371-5.067-.454z" transform="translate(-758 -258) translate(0 63) translate(757 78) translate(.621 117) translate(1)"/>
                                    <path fill="#234572" fill-rule="nonzero" d="M31.014 7.89c-1.946-.083-4.095-.166-6.365-.125.08.578.121 1.157.202 1.818.04.33.081.66.081.99.244 0 .487 0 .73-.04 1.662-.083 3.243-.207 4.703-.372 1.46-.165 2.838-.372 3.973-.578 1.216-.248 2.23-.496 3-.744.203-.082.365-.124.527-.206-.527-.083-1.135-.207-1.784-.29-1.419-.206-3.122-.371-5.067-.454z" transform="translate(-758 -258) translate(0 63) translate(757 78) translate(.621 117) translate(1)"/>
                                    <path fill="#8FA6C6" fill-rule="nonzero" d="M41.027 9.954c0 .042 0 .083-.04.124-.041.042-.041.083-.082.124-.283.29-.932.578-1.864.868-.892.247-2.068.495-3.406.702-1.297.206-2.797.371-4.419.537-1.58.165-3.324.248-5.148.371-.325 0-.609.042-.933.042.04.33.04.62.081.95l.122 2.313c2.919 0 5.594 0 8.027.082 2.392.042 4.46.124 6.162.248 1.662.124 2.919.207 3.81.372.852.124 1.298.29 1.339.413-.122-.372-.325-1.033-.649-1.859 0-.041-.04-.082-.04-.165-.041-.083-.041-.124-.082-.206-.04-.083-.08-.207-.121-.33l-.122-.249c-.04-.041-.04-.124-.08-.165-.041-.124-.082-.206-.163-.33 0-.042-.04-.083-.04-.124-.082-.207-.203-.413-.284-.62-.081-.165-.163-.33-.244-.454-.04-.083-.08-.165-.121-.207-.081-.124-.122-.248-.203-.371 0-.042-.04-.083-.04-.083-.122-.207-.244-.413-.365-.578 0-.042-.04-.042-.04-.083-.123-.206-.285-.413-.406-.66-.122-.207-.244-.373-.406-.579-.08-.124-.162-.248-.243-.33.04.04.04.082.081.123.04.042-.081.083-.081.124z" transform="translate(-758 -258) translate(0 63) translate(757 78) translate(.621 117) translate(1)"/>
                                    <path fill="#234572" fill-rule="nonzero" d="M41.027 9.954c0 .042 0 .083-.04.124-.041.042-.041.083-.082.124-.283.29-.932.578-1.864.868-.892.247-2.068.495-3.406.702-1.297.206-2.797.371-4.419.537-1.58.165-3.324.248-5.148.371-.325 0-.609.042-.933.042.04.33.04.62.081.95l.122 2.313c2.919 0 5.594 0 8.027.082 2.392.042 4.46.124 6.162.248 1.662.124 2.919.207 3.81.372.852.124 1.298.29 1.339.413-.122-.372-.325-1.033-.649-1.859 0-.041-.04-.082-.04-.165-.041-.083-.041-.124-.082-.206-.04-.083-.08-.207-.121-.33l-.122-.249c-.04-.041-.04-.124-.08-.165-.041-.124-.082-.206-.163-.33 0-.042-.04-.083-.04-.124-.082-.207-.203-.413-.284-.62-.081-.165-.163-.33-.244-.454-.04-.083-.08-.165-.121-.207-.081-.124-.122-.248-.203-.371 0-.042-.04-.083-.04-.083-.122-.207-.244-.413-.365-.578 0-.042-.04-.042-.04-.083-.123-.206-.285-.413-.406-.66-.122-.207-.244-.373-.406-.579-.08-.124-.162-.248-.243-.33.04.04.04.082.081.123.04.042-.081.083-.081.124z" transform="translate(-758 -258) translate(0 63) translate(757 78) translate(.621 117) translate(1)"/>
                                    <path fill="#8FA6C6" fill-rule="nonzero" d="M41.19 10.037c.12.206.283.372.405.578-.163-.248-.284-.413-.406-.578z" transform="translate(-758 -258) translate(0 63) translate(757 78) translate(.621 117) translate(1)"/>
                                    <path fill="#8FA6C6" fill-rule="nonzero" d="M41.19 10.037c.12.206.283.372.405.578-.163-.248-.284-.413-.406-.578z" transform="translate(-758 -258) translate(0 63) translate(757 78) translate(.621 117) translate(1)"/>
                                    <path fill="#3D6C98" fill-rule="nonzero" d="M41.19 10.037c.12.206.283.372.405.578-.163-.248-.284-.413-.406-.578z" transform="translate(-758 -258) translate(0 63) translate(757 78) translate(.621 117) translate(1)"/>
                                    <path fill="#8FA6C6" fill-rule="nonzero" d="M41.595 10.574c.162.206.283.413.405.66-.122-.247-.284-.454-.405-.66z" transform="translate(-758 -258) translate(0 63) translate(757 78) translate(.621 117) translate(1)"/>
                                    <path fill="#8FA6C6" fill-rule="nonzero" d="M41.595 10.574c.162.206.283.413.405.66-.122-.247-.284-.454-.405-.66z" transform="translate(-758 -258) translate(0 63) translate(757 78) translate(.621 117) translate(1)"/>
                                    <path fill="#3D6C98" fill-rule="nonzero" d="M41.595 10.574c.162.206.283.413.405.66-.122-.247-.284-.454-.405-.66z" transform="translate(-758 -258) translate(0 63) translate(757 78) translate(.621 117) translate(1)"/>
                                    <path fill="#8FA6C6" fill-rule="nonzero" d="M42.04 11.317c.122.207.244.413.365.579-.121-.207-.243-.413-.364-.579z" transform="translate(-758 -258) translate(0 63) translate(757 78) translate(.621 117) translate(1)"/>
                                    <path fill="#8FA6C6" fill-rule="nonzero" d="M42.04 11.317c.122.207.244.413.365.579-.121-.207-.243-.413-.364-.579z" transform="translate(-758 -258) translate(0 63) translate(757 78) translate(.621 117) translate(1)"/>
                                    <path fill="#3D6C98" fill-rule="nonzero" d="M42.04 11.317c.122.207.244.413.365.579-.121-.207-.243-.413-.364-.579z" transform="translate(-758 -258) translate(0 63) translate(757 78) translate(.621 117) translate(1)"/>
                                </g>
                                <g>
                                    <path d="M15.608 6.113c-1.662.083-3.243.165-4.662.29-1.338.123-2.595.288-3.69.454.203.536.406 1.073.609 1.57.121.247.203.495.324.701.04 0 .081 0 .122-.041 1.013-.207 2.23-.413 3.567-.537 1.298-.124 2.757-.248 4.257-.33 1.5-.083 3.081-.124 4.703-.083 1.378 0 2.797.041 4.216.083.04-.29.04-.579.081-.91.04-.412.04-.825.081-1.28-1.5-.04-3-.082-4.46-.082-1.783.082-3.486.082-5.148.165z" transform="translate(-758 -258) translate(0 63) translate(757 78) translate(.621 117) translate(1 27)"/>
                                    <path fill="#8FA6C6" fill-rule="nonzero" d="M27.77 18.215c-.405.083-.851.165-1.297.248.365-.041.81-.124 1.297-.248zM26.392 18.504c-.162.042-.365.042-.568.083.162-.041.365-.041.568-.083zM25.662 18.628c-.243.042-.446.042-.689.083.162-.041.405-.041.69-.083zM28.378 18.091c-.162.042-.283.083-.446.124.163-.082.284-.082.446-.124zM30.243 17.472c-.04 0-.04 0-.08.041.04 0 .08 0 .08-.041zM28.986 17.885h.041c-.04 0-.081 0-.122.041.04 0 .081 0 .081-.041zM29.716 17.678c-.04 0-.08.042-.121.042.04 0 .08-.042.121-.042zM14.27 17.224c.649.248 1.662.62 3.04.95-.688-.165-1.783-.454-3.12-.991 0 .04.04.04.08.04zM11.149 15.737c.04.041.121.083.202.124-.121-.083-.202-.124-.324-.207 0 0 .081.042.122.083zM8.595 14.043c-.04 0-.04-.04-.081-.04.04 0 .08 0 .08.04zM11.676 16.026c-.04-.041-.122-.041-.162-.083.04.042.08.042.162.083zM13.946 17.1c-.081-.041-.203-.083-.284-.124.081.041.162.083.284.124zM13.176 16.81c0-.04 0-.04 0 0 0-.04 0-.04 0 0zM38.473 12.391l-.203.207c.04-.083.122-.165.203-.207zM8.23 13.713l-.081-.083.08.083z" transform="translate(-758 -258) translate(0 63) translate(757 78) translate(.621 117) translate(1 27)"/>
                                    <path fill="#8FA6C6" fill-rule="nonzero" d="M31.297 10.987c-1.986.124-4.175.165-6.486.206.08-.578.121-1.197.162-1.817.04-.372.04-.702.081-1.074-1.419-.041-2.838-.082-4.216-.082-1.622 0-3.203.04-4.703.082-1.5.083-2.96.165-4.257.33-1.337.166-2.554.331-3.567.538-.04 0-.081 0-.122.04.162.373.325.703.487 1.033-.811-.123-1.5-.247-2.108-.371-.122-.042-.203-.042-.325-.083-.202.083-.405.165-.527.29-.243.164-.405.33-.446.495-.04.165 0 .372.162.537.122.124.284.289.568.413.243.124.568.289.973.413s.851.29 1.378.413c.527.124 1.135.248 1.825.372.283.413.567.826.892 1.198.283.371.608.702.932 1.032.324.33.649.62.973.909.324.289.649.537 1.013.785.284.206.609.413.892.578.325.165.608.33.933.496.324.123.608.247.932.371.325.124.649.207.933.248.04 0 .08 0 .121.041.04 0 .081 0 .122.042.04 0 .081 0 .122.041.04 0 .08 0 .121.041-.567-.124-1.013-.247-1.338-.413-.324-.165-.567-.289-.648-.454-.122-.165-.081-.33 0-.454.121-.166.365-.29.689-.413.324-.124.77-.248 1.257-.33.486-.083 1.013-.166 1.621-.207.568-.042 1.216-.083 1.825-.042.648 0 1.297.042 1.946.083.162 0 .324.041.527.041.04-.124.04-.206.08-.33.082-.33.122-.661.203-1.033.081-.372.122-.743.203-1.156 1.987 0 3.892-.083 5.595-.166 1.702-.123 3.202-.247 4.5-.454 1.256-.206 2.31-.413 3.121-.66.77-.249 1.298-.496 1.54-.786.041-.04.082-.123.122-.165.04-.041.04-.124.04-.165v-.165c0-.042-.04-.124-.08-.165-.162-.248-.487-.455-1.014-.703-.567.124-1.216.207-1.905.33-1.5 0-3.203.166-5.149.29zM36.73 13.92c-.081.082-.162.123-.284.206.081-.083.203-.165.284-.206zM37.622 13.176c-.081.083-.163.124-.203.207.04-.083.122-.166.203-.207zM36 14.457c-.203.165-.405.289-.608.413.203-.124.405-.29.608-.413zM34.338 15.572c-.122.082-.203.124-.324.206.08-.082.202-.165.324-.206zM35.19 14.993c-.285.207-.568.372-.852.537.324-.165.567-.33.851-.537zM33.486 16.026c-.04.041-.08.041-.121.041.04 0 .08 0 .121-.04zM43.378 5.535c-.121.289-.283.578-.446.867.163-.289.284-.578.446-.867zM42.892 6.485c-.324.578-.649 1.198-1.014 1.735.284-.455.649-1.033 1.014-1.735zM41.838 8.302c-.162.29-.365.537-.527.785.121-.165.284-.454.527-.785zM2.108 6.113c-.04-.041-.04-.083-.081-.165.04.082.04.124.081.165zM44.473 2.685c0 .041-.04.124-.04.165 0-.041.04-.124.04-.165zM.324 1.446c.081.206.162.537.203.743l-.122-.372c0-.124-.04-.247-.08-.371zM2.514 6.94c.08.123.121.247.202.37-.08-.164-.121-.288-.202-.37 0-.042 0-.042 0 0zM2.919 7.641l-.122-.248.122.248zM.69 1.652c.242.083.567.165 1.013.248.486.083 1.054.165 1.783.248.73.082 1.582.165 2.555.206.121.744.324 1.446.486 2.148.203.702.405 1.363.608 2.024.04.124.081.207.122.33 1.094-.165 2.31-.33 3.689-.454 1.46-.124 3.04-.248 4.662-.289 1.622-.083 3.365-.083 5.108-.083 1.46 0 2.96.042 4.46.083 0-.29.04-.578.04-.909l.122-2.313c2.919 0 5.635-.041 8.067-.124 2.392-.082 4.5-.165 6.203-.289 1.662-.124 2.96-.248 3.81-.413.852-.124 1.298-.289 1.339-.454v-.083l-.04-.041s-.041-.041-.082-.041c-.04 0-.08-.042-.121-.042-.406-.165-1.257-.33-2.433-.454-1.135-.124-2.513-.248-4.135-.372-1.54-.082-3.324-.165-5.23-.248-1.865-.082-3.851-.123-5.96-.165C24.69.124 22.623.124 20.596.124c-1.987 0-3.973.041-5.838.041-1.865.042-3.69.083-5.352.165-1.702.083-3.283.166-4.621.248-.73.042-1.338.124-1.906.165C2.311.826 1.865.867 1.46.95c-.405.083-.689.165-.85.207-.204.082-.285.165-.285.247.04.124.162.207.365.248zM44.149 3.635c.121-.29.162-.496.243-.702-.081.247-.162.537-.284.826.04-.083.04-.124.04-.124zM.81 3.098c.041.124.082.206.082.248v0c0-.083-.04-.166-.081-.248zM44.514 2.602c0-.041.04-.124.04-.165.04-.124.081-.29.122-.413 0-.041.04-.083.04-.124-.08.248-.162.496-.202.702zM3.527 8.591c-.122-.206-.324-.495-.527-.826.324.496.527.826.527.826z" transform="translate(-758 -258) translate(0 63) translate(757 78) translate(.621 117) translate(1 27)"/>
                                    <path fill="#3D6C98" fill-rule="nonzero" d="M17.676 18.298c-.122-.041-.244-.041-.406-.083.162 0 .284.042.406.083zM5.432 11.028c.406.496 1.298 1.446 2.473 2.437.081.083.163.124.244.207-.852-.702-1.784-1.57-2.717-2.644zM10.824 15.53c.04.042.122.083.162.083-.648-.413-1.459-.909-2.391-1.61.891.701 1.621 1.156 2.23 1.527zM13.176 16.77c-.608-.29-1.135-.537-1.5-.744.486.29 1.013.537 1.5.744zM13.622 16.976c-.163-.083-.284-.124-.446-.206.162.082.324.165.446.206zM8.554 13.96c-.081-.082-.203-.164-.284-.247.081.083.162.165.284.248zM11.514 15.943c-.082-.04-.122-.082-.203-.123.08.04.121.082.203.123zM14.149 17.183c-.081-.042-.163-.042-.203-.083.04.041.122.083.203.083z" transform="translate(-758 -258) translate(0 63) translate(757 78) translate(.621 117) translate(1 27)"/>
                                    <path fill="#8FA6C6" fill-rule="nonzero" d="M15.77 17.637c-.324-.124-.608-.29-.932-.496-.324-.165-.608-.371-.892-.578-.324-.248-.69-.496-1.014-.785-.324-.289-.648-.578-.973-.908-.324-.33-.648-.661-.932-1.033-.284-.372-.608-.785-.892-1.198-.69-.124-1.297-.248-1.824-.372-.527-.124-.973-.247-1.379-.413-.364-.124-.689-.289-.973-.413-.243-.124-.445-.289-.567-.413.932 1.074 1.865 1.942 2.716 2.644l.081.082c.081.083.203.166.284.248.04 0 .04.041.081.041.892.703 1.703 1.198 2.392 1.611.122.083.203.124.324.207.04.041.122.082.203.124.04.041.122.041.162.082.365.207.892.455 1.5.744h.04c.122.082.284.124.447.206.08.042.202.083.283.124.081.042.122.042.203.083 1.338.537 2.473.826 3.122.991.121.042.243.042.405.083-.324-.083-.649-.165-.932-.248-.284-.124-.608-.248-.933-.413z" transform="translate(-758 -258) translate(0 63) translate(757 78) translate(.621 117) translate(1 27)"/>
                                    <path fill="#234572" fill-rule="nonzero" d="M15.77 17.637c-.324-.124-.608-.29-.932-.496-.324-.165-.608-.371-.892-.578-.324-.248-.69-.496-1.014-.785-.324-.289-.648-.578-.973-.908-.324-.33-.648-.661-.932-1.033-.284-.372-.608-.785-.892-1.198-.69-.124-1.297-.248-1.824-.372-.527-.124-.973-.247-1.379-.413-.364-.124-.689-.289-.973-.413-.243-.124-.445-.289-.567-.413.932 1.074 1.865 1.942 2.716 2.644l.081.082c.081.083.203.166.284.248.04 0 .04.041.081.041.892.703 1.703 1.198 2.392 1.611.122.083.203.124.324.207.04.041.122.082.203.124.04.041.122.041.162.082.365.207.892.455 1.5.744h.04c.122.082.284.124.447.206.08.042.202.083.283.124.081.042.122.042.203.083 1.338.537 2.473.826 3.122.991.121.042.243.042.405.083-.324-.083-.649-.165-.932-.248-.284-.124-.608-.248-.933-.413z" transform="translate(-758 -258) translate(0 63) translate(757 78) translate(.621 117) translate(1 27)"/>
                                    <path fill="#3D6C98" fill-rule="nonzero" d="M30.73 17.307c-.162.04-.325.123-.487.165.203-.042.365-.083.487-.165zM34.014 15.737c-.163.083-.325.206-.487.29.122-.084.284-.166.487-.29zM37.378 13.341c-.243.207-.446.372-.689.537.284-.165.487-.33.69-.537zM25.824 18.587c-.04 0-.121 0-.162.041.04-.041.122-.041.162-.041z" transform="translate(-758 -258) translate(0 63) translate(757 78) translate(.621 117) translate(1 27)"/>
                                    <path fill="#3D6C98" fill-rule="nonzero" d="M27.203 18.257c.283-.083.486-.207.608-.33.121-.125.203-.249.203-.373 0-.165-.122-.33-.325-.495-.203-.166-.527-.29-.932-.413-.406-.124-.892-.248-1.42-.33-.405-.083-.85-.125-1.296-.166-.041.207-.082.372-.122.537-.081.248-.122.496-.203.702-.08.207-.162.413-.202.578-.082.166-.163.29-.203.413-.081.124-.162.207-.203.29-.081.082-.162.123-.203.123h.568c.203 0 .365 0 .568-.04.202 0 .364-.042.527-.042.162 0 .324-.041.527-.041.446-.042.891-.124 1.256-.207.244-.041.568-.124.852-.206zM36.284 14.25c.04-.041.121-.083.162-.124-.162.124-.284.207-.446.33.122-.082.203-.165.284-.206zM35.392 14.87c-.081.04-.122.082-.203.123.081-.04.162-.082.203-.123zM34.378 15.53l-.04.042c0-.042.04-.042.04-.042zM38.27 12.598c-.202.206-.405.413-.648.578.243-.206.446-.413.648-.578zM30.73 17.307c.973-.372 1.702-.744 2.067-.91.162-.082.365-.164.568-.288-.203.124-.406.206-.568.289-.486.248-1.175.578-2.067.909zM28.946 17.926c-.203.041-.365.124-.568.165.203-.082.365-.124.568-.165zM39.243 11.607c-.243.289-.527.536-.77.784l.77-.784zM27.932 18.174c-.04 0-.121.041-.162.041.04 0 .122 0 .162-.041zM26.473 18.504h-.081.081zM30.203 17.513c-.162.041-.325.124-.487.165.162-.041.325-.124.487-.165zM29.595 17.72c-.163.04-.365.123-.568.165.203-.042.405-.124.568-.165z" transform="translate(-758 -258) translate(0 63) translate(757 78) translate(.621 117) translate(1 27)"/>
                                    <path fill="#8FA6C6" fill-rule="nonzero" d="M34.581 13.01c-1.297.207-2.797.331-4.5.455-1.703.124-3.608.165-5.595.165-.08.413-.121.785-.202 1.157-.081.372-.122.702-.203 1.033-.04.123-.04.206-.081.33.446.041.892.124 1.297.165.568.083 1.014.207 1.42.33.405.125.729.29.932.414.243.165.324.33.324.495 0 .124-.081.248-.203.372-.162.124-.365.207-.608.33-.284.083-.608.166-.973.248-.365.083-.81.124-1.257.207.244-.041.446-.041.69-.083.04 0 .121 0 .162-.041.202-.041.365-.041.567-.083h.081c.446-.082.892-.165 1.298-.247.04 0 .121-.042.162-.042.162-.041.284-.082.446-.124.203-.041.365-.082.567-.165.04 0 .081 0 .122-.041.203-.042.365-.124.568-.165.04 0 .08-.042.121-.042.162-.041.325-.124.487-.165.04 0 .04 0 .08-.041.163-.042.325-.124.487-.165.852-.33 1.54-.661 2.068-.91.162-.082.365-.206.567-.288.04-.042.081-.042.122-.042.162-.082.324-.165.487-.289.121-.041.202-.124.324-.206l.04-.042c.244-.165.527-.33.852-.537.08-.04.121-.082.202-.123.203-.124.406-.29.609-.413.162-.124.283-.207.445-.33.082-.084.203-.125.284-.207.203-.166.446-.372.69-.537.08-.083.162-.124.202-.207.203-.165.406-.372.649-.578.08-.083.162-.124.203-.207.243-.248.527-.495.77-.784-.243.289-.77.536-1.54.784-.852.207-1.866.455-3.163.62z" transform="translate(-758 -258) translate(0 63) translate(757 78) translate(.621 117) translate(1 27)"/>
                                    <path fill="#234572" fill-rule="nonzero" d="M34.581 13.01c-1.297.207-2.797.331-4.5.455-1.703.124-3.608.165-5.595.165-.08.413-.121.785-.202 1.157-.081.372-.122.702-.203 1.033-.04.123-.04.206-.081.33.446.041.892.124 1.297.165.568.083 1.014.207 1.42.33.405.125.729.29.932.414.243.165.324.33.324.495 0 .124-.081.248-.203.372-.162.124-.365.207-.608.33-.284.083-.608.166-.973.248-.365.083-.81.124-1.257.207.244-.041.446-.041.69-.083.04 0 .121 0 .162-.041.202-.041.365-.041.567-.083h.081c.446-.082.892-.165 1.298-.247.04 0 .121-.042.162-.042.162-.041.284-.082.446-.124.203-.041.365-.082.567-.165.04 0 .081 0 .122-.041.203-.042.365-.124.568-.165.04 0 .08-.042.121-.042.162-.041.325-.124.487-.165.04 0 .04 0 .08-.041.163-.042.325-.124.487-.165.852-.33 1.54-.661 2.068-.91.162-.082.365-.206.567-.288.04-.042.081-.042.122-.042.162-.082.324-.165.487-.289.121-.041.202-.124.324-.206l.04-.042c.244-.165.527-.33.852-.537.08-.04.121-.082.202-.123.203-.124.406-.29.609-.413.162-.124.283-.207.445-.33.082-.084.203-.125.284-.207.203-.166.446-.372.69-.537.08-.083.162-.124.202-.207.203-.165.406-.372.649-.578.08-.083.162-.124.203-.207.243-.248.527-.495.77-.784-.243.289-.77.536-1.54.784-.852.207-1.866.455-3.163.62z" transform="translate(-758 -258) translate(0 63) translate(757 78) translate(.621 117) translate(1 27)"/>
                                    <path fill="#3D6C98" fill-rule="nonzero" d="M2.514 6.898c-.122-.248-.284-.496-.406-.785.122.29.284.537.406.785zM2.027 5.99c-.122-.29-.243-.538-.365-.827.122.29.243.537.365.826zM2.797 7.393c-.04-.04-.04-.082-.08-.123.04.04.04.082.08.123zM1.622 5.163c-.284-.578-.527-1.198-.73-1.817.365.908.649 1.61.73 1.817zM3 7.765c-.04-.041-.04-.082-.081-.124.04.042.081.083.081.124zM8.19 9.17c-.122-.248-.204-.496-.325-.703-.203-.495-.406-1.032-.608-1.57-.081 0-.203.042-.284.042-.649.124-1.216.248-1.662.372-.487.124-.852.248-1.176.413-.284.124-.486.289-.608.454-.122.165-.122.33 0 .455.081.124.243.289.487.413.243.124.567.289 1.013.413.365.124.77.206 1.216.33.162-.082.325-.124.487-.206.446-.166.892-.29 1.46-.413zM.81 3.098C.73 2.89.65 2.643.528 2.23c.122.33.203.537.284.868z" transform="translate(-758 -258) translate(0 63) translate(757 78) translate(.621 117) translate(1 27)"/>
                                    <path fill="#8FA6C6" fill-rule="nonzero" d="M8.676 10.202c-.162-.33-.325-.66-.487-1.032-.567.123-1.054.247-1.419.371-.162.042-.324.124-.486.207.121.041.202.041.324.082.568.124 1.297.248 2.068.372z" transform="translate(-758 -258) translate(0 63) translate(757 78) translate(.621 117) translate(1 27)"/>
                                    <path fill="#234572" fill-rule="nonzero" d="M8.676 10.202c-.162-.33-.325-.66-.487-1.032-.567.123-1.054.247-1.419.371-.162.042-.324.124-.486.207.121.041.202.041.324.082.568.124 1.297.248 2.068.372z" transform="translate(-758 -258) translate(0 63) translate(757 78) translate(.621 117) translate(1 27)"/>
                                    <path fill="#8FA6C6" fill-rule="nonzero" d="M3.527 8.137c.122-.165.324-.29.608-.454.284-.124.69-.29 1.176-.413.486-.124 1.013-.248 1.662-.372.081 0 .203-.041.284-.041-.04-.124-.081-.207-.122-.33-.203-.662-.405-1.323-.608-2.025-.203-.702-.365-1.404-.486-2.148-.973-.082-1.825-.165-2.555-.206-.73-.083-1.297-.165-1.783-.248-.446-.083-.811-.165-1.014-.248-.243-.082-.365-.165-.365-.248.04.124.081.29.122.372l.122.372c.121.413.202.702.283.867.04.083.04.165.081.248v.041c.203.62.446 1.198.73 1.818.122.289.243.537.365.826.04.041.04.082.081.165.122.248.284.537.406.785.08.124.162.248.202.372.04.04.04.082.081.123l.122.248c.04.042.04.083.081.124.203.33.405.62.527.826-.081-.165-.081-.33 0-.454z" transform="translate(-758 -258) translate(0 63) translate(757 78) translate(.621 117) translate(1 27)"/>
                                    <path fill="#234572" fill-rule="nonzero" d="M3.527 8.137c.122-.165.324-.29.608-.454.284-.124.69-.29 1.176-.413.486-.124 1.013-.248 1.662-.372.081 0 .203-.041.284-.041-.04-.124-.081-.207-.122-.33-.203-.662-.405-1.323-.608-2.025-.203-.702-.365-1.404-.486-2.148-.973-.082-1.825-.165-2.555-.206-.73-.083-1.297-.165-1.783-.248-.446-.083-.811-.165-1.014-.248-.243-.082-.365-.165-.365-.248.04.124.081.29.122.372l.122.372c.121.413.202.702.283.867.04.083.04.165.081.248v.041c.203.62.446 1.198.73 1.818.122.289.243.537.365.826.04.041.04.082.081.165.122.248.284.537.406.785.08.124.162.248.202.372.04.04.04.082.081.123l.122.248c.04.042.04.083.081.124.203.33.405.62.527.826-.081-.165-.081-.33 0-.454z" transform="translate(-758 -258) translate(0 63) translate(757 78) translate(.621 117) translate(1 27)"/>
                                    <path fill="#3D6C98" fill-rule="nonzero" d="M44.514 2.602c0 .041 0 .041-.041.083.04-.042.04-.083.04-.083zM44.027 4.007c.04-.083.081-.207.122-.29-.122.29-.203.579-.325.868.122-.372.203-.578.203-.578zM43.784 4.585c-.122.33-.284.62-.406.95.163-.372.284-.702.406-.95zM44.432 2.85v0zM44.797 1.61c-.04.083-.04.207-.08.29.04-.083.04-.165.08-.29zM41.392 8.798c0-.041-.04-.083-.04-.124-.041-.041-.041-.083-.122-.124-.284-.29-.933-.578-1.906-.867-.892-.248-2.067-.496-3.446-.703-1.337-.206-2.837-.371-4.5-.495-1.621-.124-3.364-.248-5.23-.33-.324 0-.648 0-.932-.042-.04.413-.04.867-.08 1.28-.041.29-.041.62-.082.91.243 0 .527 0 .77.04 1.703.083 3.284.207 4.784.372s2.878.33 4.054.578c1.216.207 2.27.496 3.081.744l.608.248c.568-.124 1.054-.248 1.46-.33.81-.248 1.297-.496 1.5-.785.04-.042.04-.083.08-.124v-.248zM41.878 8.22c0 .04-.04.04-.04.082 0 0 0-.041.04-.082zM42.932 6.402c0 .041-.04.041-.04.083 0-.042.04-.042.04-.083z" transform="translate(-758 -258) translate(0 63) translate(757 78) translate(.621 117) translate(1 27)"/>
                                    <path fill="#8FA6C6" fill-rule="nonzero" d="M34.662 9.21c-1.176-.206-2.554-.412-4.054-.577-1.46-.166-3.081-.29-4.784-.372-.243 0-.527 0-.77-.041-.04.371-.04.743-.081 1.073-.04.62-.122 1.24-.162 1.818 2.31 0 4.5-.083 6.486-.207 1.946-.124 3.69-.289 5.108-.454.73-.083 1.338-.207 1.906-.33-.162-.083-.365-.166-.608-.248-.77-.165-1.825-.413-3.04-.661z" transform="translate(-758 -258) translate(0 63) translate(757 78) translate(.621 117) translate(1 27)"/>
                                    <path fill="#234572" fill-rule="nonzero" d="M34.662 9.21c-1.176-.206-2.554-.412-4.054-.577-1.46-.166-3.081-.29-4.784-.372-.243 0-.527 0-.77-.041-.04.371-.04.743-.081 1.073-.04.62-.122 1.24-.162 1.818 2.31 0 4.5-.083 6.486-.207 1.946-.124 3.69-.289 5.108-.454.73-.083 1.338-.207 1.906-.33-.162-.083-.365-.166-.608-.248-.77-.165-1.825-.413-3.04-.661z" transform="translate(-758 -258) translate(0 63) translate(757 78) translate(.621 117) translate(1 27)"/>
                                    <path fill="#8FA6C6" fill-rule="nonzero" d="M44.797 1.61c-.04.166-.486.29-1.338.455-.891.165-2.148.29-3.81.413-1.703.124-3.811.207-6.203.29-2.432.082-5.19.123-8.068.123-.04.785-.08 1.57-.121 2.313 0 .29-.04.579-.04.909.324 0 .648 0 .932.041 1.865.083 3.608.166 5.23.33 1.662.125 3.162.331 4.5.496 1.378.207 2.553.455 3.445.703.933.247 1.622.578 1.906.867l.121.124c.04.041.04.083.04.124v.124c0 .041-.04.082-.08.124.162-.248.365-.496.527-.785 0-.041.04-.041.04-.083.365-.578.69-1.156 1.014-1.735 0-.04.04-.04.04-.082.163-.29.284-.578.446-.868.163-.33.284-.62.406-.95.121-.289.243-.578.324-.867.122-.289.203-.537.284-.826v-.041c0-.042.04-.124.04-.166 0-.04 0-.04.041-.082.081-.207.122-.413.203-.702.08-.042.08-.166.121-.248z" transform="translate(-758 -258) translate(0 63) translate(757 78) translate(.621 117) translate(1 27)"/>
                                    <path fill="#234572" fill-rule="nonzero" d="M44.797 1.61c-.04.166-.486.29-1.338.455-.891.165-2.148.29-3.81.413-1.703.124-3.811.207-6.203.29-2.432.082-5.19.123-8.068.123-.04.785-.08 1.57-.121 2.313 0 .29-.04.579-.04.909.324 0 .648 0 .932.041 1.865.083 3.608.166 5.23.33 1.662.125 3.162.331 4.5.496 1.378.207 2.553.455 3.445.703.933.247 1.622.578 1.906.867l.121.124c.04.041.04.083.04.124v.124c0 .041-.04.082-.08.124.162-.248.365-.496.527-.785 0-.041.04-.041.04-.083.365-.578.69-1.156 1.014-1.735 0-.04.04-.04.04-.082.163-.29.284-.578.446-.868.163-.33.284-.62.406-.95.121-.289.243-.578.324-.867.122-.289.203-.537.284-.826v-.041c0-.042.04-.124.04-.166 0-.04 0-.04.041-.082.081-.207.122-.413.203-.702.08-.042.08-.166.121-.248z" transform="translate(-758 -258) translate(0 63) translate(757 78) translate(.621 117) translate(1 27)"/>
                                </g>
                                <g fill-rule="nonzero">
                                    <path fill="#8FA6C6" d="M45.44.655c.2 1.268.32 2.495.32 3.722 0-1.227-.12-2.454-.32-3.722zM.52 7.118v-.163.163zM.48 6.71V6.626v.082zM.48 2.495v-.04.04zM.6 7.732V7.65v.082zM.44 3.314v-.287.287zM.4 4.664v-.41.41zM.56 7.445v-.122.122zM25.96 5.727V4.664 3.477 2.291v-.655c-1.64.041-3.28.041-4.88.041h-5.84c-1.88 0-3.72-.04-5.36-.082-1.28-.04-2.48-.04-3.56-.081-.04.327-.04.695-.08 1.022 0 .369-.04.737-.04 1.064v2.086c0 .328.04.655.04.982 0 .287.04.532.04.818 1.08-.04 2.28-.081 3.56-.122 1.68-.041 3.48-.082 5.36-.123 1.88-.041 3.84-.041 5.84-.041h4.88v-.41c.04-.326.04-.695.04-1.063zM.4 4.01V3.6v.41z" transform="translate(-758 -258) translate(0 63) translate(757 78) translate(.621 117) translate(0 18)"/>
                                    <path fill="#3D6C98" d="M.48 6.668c0-.204-.04-.45-.04-.654 0 .204.04.45.04.654zM.4 4.705c0 .45 0 .9.04 1.309C.4 5.523.4 5.073.4 4.664v.04zM.64 8.06c0-.124-.04-.205-.04-.328.04.123.04.245.04.327zM.6 7.65c0-.082 0-.164-.04-.205.04.082.04.164.04.205zM.56 7.323c0-.082 0-.123-.04-.205.04.082.04.123.04.205zM.52 6.955V6.75v.205zM.4 4.214v-.246.246zM.44 3.6v-.286.286z" transform="translate(-758 -258) translate(0 63) translate(757 78) translate(.621 117) translate(0 18)"/>
                                    <path fill="#3D6C98" d="M3.28 7.65c-.56.04-1.04.082-1.44.123-.4.04-.68.082-.88.122-.2.041-.32.082-.32.123 0 .041.12.082.32.123.24.082.6.123 1.04.204.48.041 1.04.082 1.76.123.72.041 1.6.082 2.6.123-.04-.327-.08-.655-.08-.941v-.164c-.36 0-.72.041-1.08.041-.72.041-1.36.082-1.92.123zM.96 1.145c.2.041.48.082.88.123.4.041.88.082 1.44.123.56.04 1.2.082 1.92.082.36 0 .72.04 1.08.04v-.04c.04-.368.08-.696.12-1.064-1 .041-1.88.082-2.6.164-.72.04-1.32.082-1.76.163-.44.041-.8.082-1 .164-.2.04-.32.082-.32.123-.04.04.04.082.24.122zM.44 3.027c0-.163.04-.368.04-.532 0 .164 0 .328-.04.532zM.52 2.455c.04-.491.12-.941.16-1.432-.04.245-.12.777-.16 1.432z" transform="translate(-758 -258) translate(0 63) translate(757 78) translate(.621 117) translate(0 18)"/>
                                    <path fill="#8FA6C6" d="M6.16 5.686v-.981V3.6c0-.368.04-.736.04-1.064 0-.327.04-.695.08-1.022-.36 0-.72-.041-1.08-.041-.72-.041-1.36-.041-1.92-.082-.56-.041-1.04-.082-1.44-.123-.4-.04-.68-.082-.88-.123-.2-.04-.32-.081-.28-.122-.08.49-.12.982-.16 1.432v.04c0 .164-.04.369-.04.532V4.664c0 .45 0 .9.04 1.35 0 .204.04.45.04.654v.491c0 .082 0 .123.04.205v.122c0 .082 0 .123.04.205v.082c0 .082.04.204.04.327 0-.04.08-.082.32-.123.2-.04.52-.082.88-.122.4-.041.88-.082 1.44-.123.56-.041 1.2-.082 1.92-.123.36 0 .72-.04 1.08-.04-.04-.287-.04-.533-.04-.819-.08-.41-.12-.736-.12-1.064z" transform="translate(-758 -258) translate(0 63) translate(757 78) translate(.621 117) translate(0 18)"/>
                                    <path fill="#234572" d="M6.16 5.686v-.981V3.6c0-.368.04-.736.04-1.064 0-.327.04-.695.08-1.022-.36 0-.72-.041-1.08-.041-.72-.041-1.36-.041-1.92-.082-.56-.041-1.04-.082-1.44-.123-.4-.04-.68-.082-.88-.123-.2-.04-.32-.081-.28-.122-.08.49-.12.982-.16 1.432v.04c0 .164-.04.369-.04.532V4.664c0 .45 0 .9.04 1.35 0 .204.04.45.04.654v.491c0 .082 0 .123.04.205v.122c0 .082 0 .123.04.205v.082c0 .082.04.204.04.327 0-.04.08-.082.32-.123.2-.04.52-.082.88-.122.4-.041.88-.082 1.44-.123.56-.041 1.2-.082 1.92-.123.36 0 .72-.04 1.08-.04-.04-.287-.04-.533-.04-.819-.08-.41-.12-.736-.12-1.064z" transform="translate(-758 -258) translate(0 63) translate(757 78) translate(.621 117) translate(0 18)"/>
                                    <path fill="#3D6C98" d="M45.52 8.1c.2-1.268.28-2.495.24-3.723 0 1.228-.08 2.455-.24 3.723z" transform="translate(-758 -258) translate(0 63) translate(757 78) translate(.621 117) translate(0 18)"/>
                                    <path fill="#3D6C98" d="M45.44 8.018c-.04 0-.04-.04-.08-.04s-.08-.042-.12-.042c-.44-.081-1.32-.204-2.48-.286-1.12-.082-2.56-.164-4.2-.205-1.56-.04-3.36-.122-5.28-.163-1.88-.041-3.88-.082-6-.082H26v1.677c2.96 0 5.76-.04 8.24-.082 2.44-.04 4.56-.122 6.28-.204 1.68-.082 2.96-.164 3.84-.246.84-.081 1.24-.163 1.28-.286v-.04h-.2zM33.2 1.473c1.92-.041 3.68-.123 5.24-.164 1.64-.082 3.08-.164 4.2-.245 1.2-.082 2.04-.205 2.48-.287.04 0 .08-.04.12-.04.04 0 .08-.042.08-.042.04 0 .04-.04.04-.04V.614c0-.082-.44-.164-1.28-.246-.88-.082-2.16-.163-3.8-.204C38.56.082 36.44.04 34 .04 31.6 0 28.84 0 25.88 0c0 .368.04.777.04 1.145v.491h1.28c2.12-.081 4.12-.122 6-.163z" transform="translate(-758 -258) translate(0 63) translate(757 78) translate(.621 117) translate(0 18)"/>
                                    <path fill="#8FA6C6" d="M45.44.655l-.08.081c-.04 0-.04.041-.08.041s-.08.041-.12.041c-.44.082-1.28.205-2.48.287-1.12.081-2.56.163-4.2.245-1.56.082-3.36.123-5.24.164-1.84.04-3.88.081-6 .122h-1.28V7.2h1.28c2.12 0 4.12.04 6 .082 1.92.04 3.68.082 5.28.163 1.64.041 3.08.123 4.2.205 1.2.082 2.08.164 2.48.286.04 0 .08.041.12.041.04 0 .08.041.08.041.04 0 .04.041.04.041V8.1c.2-1.268.28-2.495.24-3.723.08-1.227-.04-2.454-.24-3.722z" transform="translate(-758 -258) translate(0 63) translate(757 78) translate(.621 117) translate(0 18)"/>
                                    <path fill="#234572" d="M45.44.655l-.08.081c-.04 0-.04.041-.08.041s-.08.041-.12.041c-.44.082-1.28.205-2.48.287-1.12.081-2.56.163-4.2.245-1.56.082-3.36.123-5.24.164-1.84.04-3.88.081-6 .122h-1.28V7.2h1.28c2.12 0 4.12.04 6 .082 1.92.04 3.68.082 5.28.163 1.64.041 3.08.123 4.2.205 1.2.082 2.08.164 2.48.286.04 0 .08.041.12.041.04 0 .08.041.08.041.04 0 .04.041.04.041V8.1c.2-1.268.28-2.495.24-3.723.08-1.227-.04-2.454-.24-3.722z" transform="translate(-758 -258) translate(0 63) translate(757 78) translate(.621 117) translate(0 18)"/>
                                </g>
                                <g fill="#FFF" fill-rule="nonzero">
                                    <path d="M.404.68L1.817.68 1.817 8.6.404 8.6zM3.433 3.24h1.292v.88h.04c.243-.52.768-1 1.656-1 1.454 0 1.979 1 1.979 2.12v3.4H7.027V5.92c0-.6-.04-1.56-1.01-1.56-.888 0-1.252.64-1.252 1.36v2.92H3.392v-5.4h.04zM9.208 4.4V3.24h1.13V1.68h1.374v1.56h1.494V4.4h-1.494v2.36c0 .52.161.88.767.88.242 0 .565-.04.727-.16V8.6c-.283.12-.768.16-1.09.16-1.454 0-1.778-.64-1.778-1.92V4.4h-1.13zM15.387 6.4c.08.8.686 1.28 1.453 1.28.687 0 1.131-.32 1.454-.72l.97.72c-.647.76-1.454 1.08-2.302 1.08-1.656 0-2.949-1.12-2.949-2.84 0-1.68 1.293-2.84 2.949-2.84 1.534 0 2.544 1.04 2.544 2.92v.4h-4.12zm2.786-1c0-.8-.525-1.28-1.373-1.28-.808 0-1.292.52-1.413 1.28h2.786zM20.798 3.24h1.373v.84h.04c.283-.6.889-1 1.616-1 .161 0 .323.04.485.08v1.28c-.243-.04-.445-.12-.647-.12-1.292 0-1.453 1.08-1.453 1.36v2.88h-1.374V3.24h-.04zM25.16 3.24h1.292v.88h.04c.243-.52.768-1 1.656-1 1.454 0 1.979 1 1.979 2.12v3.4h-1.373V5.92c0-.6-.04-1.56-1.01-1.56-.888 0-1.252.64-1.252 1.36v2.92H25.12v-5.4h.04zM35.013 7.88c-.403.6-1.05.88-1.776.88-1.01 0-1.98-.56-1.98-1.6 0-1.76 2.06-1.88 3.433-1.88h.323v-.16c0-.68-.525-1-1.251-1-.566 0-1.09.24-1.454.56l-.727-.72c.606-.6 1.454-.88 2.302-.88 2.302 0 2.302 1.64 2.302 2.4v3.08h-1.212v-.68h.04zm-.08-1.68h-.283c-.727 0-2.02.04-2.02.84 0 .48.526.72.97.72.929 0 1.373-.48 1.373-1.24V6.2h-.04zM37.033 4.4V3.24h1.13V1.68h1.374v1.56h1.494V4.4h-1.494v2.36c0 .52.161.88.767.88.242 0 .565-.04.727-.16V8.6c-.283.12-.768.16-1.09.16-1.454 0-1.778-.64-1.778-1.92V4.4h-1.13zM43.05.6c.485 0 .888.36.888.8 0 .44-.403.8-.888.8s-.848-.4-.848-.8c-.04-.4.323-.8.848-.8zm-.687 2.64h1.374V8.6h-1.374V3.24zM47.896 3.12c1.656 0 2.948 1.12 2.948 2.84 0 1.68-1.292 2.84-2.948 2.84s-2.948-1.12-2.948-2.84c0-1.72 1.292-2.84 2.948-2.84zm0 4.44c1.01 0 1.575-.76 1.575-1.6 0-.84-.606-1.6-1.575-1.6-1.01 0-1.575.76-1.575 1.6-.04.8.566 1.6 1.575 1.6zM52.056 3.24h1.292v.88h.04c.243-.52.768-1 1.656-1 1.454 0 1.98 1 1.98 2.12v3.4H55.65V5.92c0-.6-.04-1.56-1.01-1.56-.888 0-1.252.64-1.252 1.36v2.92h-1.373v-5.4h.04zM61.91 7.88c-.404.6-1.05.88-1.777.88-1.01 0-1.98-.56-1.98-1.6 0-1.76 2.06-1.88 3.434-1.88h.323v-.16c0-.68-.525-1-1.252-1-.566 0-1.09.24-1.454.56l-.727-.72c.606-.6 1.454-.88 2.302-.88 2.302 0 2.302 1.64 2.302 2.4v3.08h-1.212v-.68h.04zm-.081-1.68h-.283c-.727 0-2.02.04-2.02.84 0 .48.526.72.97.72.929 0 1.373-.48 1.373-1.24V6.2h-.04zM64.615.16L65.988.16 65.988 8.64 64.615 8.64zM5.937 12.96c-.606-.6-1.131-.8-1.697-.8-1.655 0-2.746 1.24-2.746 2.84 0 1.68 1.09 2.96 2.746 2.96.647 0 1.252-.28 1.818-.96l1.17.84c-.726 1-1.816 1.4-2.988 1.4C1.777 19.24 0 17.6 0 15.12c0-2.56 1.777-4.2 4.24-4.2 1.09 0 2.02.36 2.787 1.24l-1.09.8zM11.63 18.28c-.403.6-1.05.88-1.776.88-1.01 0-1.979-.56-1.979-1.6 0-1.76 2.06-1.88 3.433-1.88h.323v-.16c0-.68-.525-1-1.252-1-.566 0-1.09.24-1.454.56l-.727-.72c.606-.6 1.454-.88 2.302-.88 2.302 0 2.302 1.64 2.302 2.4v3.08H11.59v-.68h.04zm-.08-1.68h-.283c-.727 0-2.019.04-2.019.84 0 .48.525.72.97.72.928 0 1.372-.48 1.372-1.24v-.32h-.04zM14.337 13.64h1.292v.88h.04c.243-.52.768-1 1.656-1 1.454 0 1.979 1 1.979 2.12v3.4H17.93v-2.72c0-.6-.04-1.56-1.01-1.56-.888 0-1.252.64-1.252 1.36v2.92h-1.373v-5.4h.04zM24.473 15.28c-.323-.32-.686-.52-1.01-.52-1.01 0-1.575.76-1.575 1.6 0 .84.606 1.6 1.575 1.6.404 0 .808-.16 1.05-.52l.889.96c-.565.56-1.494.76-1.939.76-1.655 0-2.948-1.12-2.948-2.84 0-1.68 1.293-2.84 2.948-2.84.687 0 1.454.24 1.98.8l-.97 1zM27.22 16.8c.08.8.686 1.28 1.453 1.28.687 0 1.13-.32 1.454-.72l.97.72c-.647.76-1.455 1.08-2.303 1.08-1.656 0-2.948-1.12-2.948-2.84 0-1.68 1.292-2.84 2.948-2.84 1.535 0 2.544 1.04 2.544 2.92v.4H27.22zm2.786-1c0-.8-.525-1.28-1.373-1.28-.808 0-1.293.52-1.414 1.28h2.787zM32.63 13.64h1.374v.84h.04c.283-.6.889-1 1.616-1 .161 0 .323.04.484.08v1.28c-.242-.04-.444-.12-.646-.12-1.292 0-1.454 1.08-1.454 1.36v2.88h-1.373v-5.32h-.04zM47.613 18.44c-.969.52-2.1.8-3.311.8-2.464 0-4.24-1.64-4.24-4.12 0-2.56 1.776-4.2 4.24-4.2 1.211 0 2.302.24 3.15 1l-1.05 1.04c-.525-.48-1.292-.76-2.1-.76-1.656 0-2.746 1.24-2.746 2.84 0 1.68 1.09 2.96 2.746 2.96.727 0 1.373-.12 1.858-.4v-1.88h-1.656V14.4h3.07v4.04h.04zM50.238 16.8c.081.8.687 1.28 1.454 1.28.687 0 1.131-.32 1.454-.72l.97.72c-.647.76-1.454 1.08-2.303 1.08-1.655 0-2.948-1.12-2.948-2.84 0-1.68 1.293-2.84 2.948-2.84 1.535 0 2.545 1.04 2.545 2.92v.4h-4.12zm2.787-1c0-.8-.525-1.28-1.373-1.28-.808 0-1.292.52-1.414 1.28h2.787zM55.65 13.64h1.292v.88h.04c.243-.52.768-1 1.656-1 1.454 0 1.98 1 1.98 2.12v3.4h-1.374v-2.72c0-.6-.04-1.56-1.01-1.56-.888 0-1.251.64-1.251 1.36v2.92H55.61v-5.4h.04zM64.777 13.52c1.656 0 2.948 1.12 2.948 2.84 0 1.68-1.292 2.84-2.948 2.84s-2.948-1.12-2.948-2.84c0-1.72 1.292-2.84 2.948-2.84zm0 4.44c1.01 0 1.575-.76 1.575-1.6 0-.84-.606-1.6-1.575-1.6-1.01 0-1.575.76-1.575 1.6-.04.8.565 1.6 1.575 1.6zM68.937 13.64h1.292v.84h.04c.243-.52.768-.96 1.656-.96.848 0 1.413.32 1.696 1 .404-.68.97-1 1.777-1 1.454 0 1.939 1 1.939 2.32v3.2h-1.374V16c0-.68-.201-1.24-1.01-1.24-.847 0-1.17.68-1.17 1.4v2.92H72.41v-3.2c0-.68-.283-1.08-.93-1.08-.888 0-1.251.64-1.251 1.36v2.92h-1.373v-5.44h.08zM79.88 16.8c.082.8.687 1.28 1.455 1.28.686 0 1.13-.32 1.453-.72l.97.72c-.646.76-1.454 1.08-2.302 1.08-1.656 0-2.948-1.12-2.948-2.84 0-1.68 1.292-2.84 2.948-2.84C82.99 13.48 84 14.52 84 16.4v.4h-4.12zm2.787-1c0-.8-.525-1.28-1.373-1.28-.807 0-1.292.52-1.413 1.28h2.786zM5.937 23.36c-.606-.6-1.131-.8-1.697-.8-1.655 0-2.746 1.24-2.746 2.84 0 1.68 1.09 2.96 2.746 2.96.647 0 1.252-.28 1.818-.96l1.17.84c-.726 1-1.816 1.4-2.988 1.4C1.777 29.64 0 28 0 25.52c0-2.56 1.777-4.2 4.24-4.2 1.09 0 2.02.36 2.787 1.24l-1.09.8zM10.742 23.92c1.656 0 2.948 1.12 2.948 2.84 0 1.68-1.292 2.84-2.948 2.84-1.655 0-2.948-1.12-2.948-2.84 0-1.72 1.293-2.84 2.948-2.84zm0 4.44c1.01 0 1.575-.76 1.575-1.6 0-.84-.605-1.6-1.575-1.6-1.01 0-1.575.76-1.575 1.6 0 .8.566 1.6 1.575 1.6zM14.942 24.04h1.293v.88h.04c.242-.52.767-1 1.656-1 1.454 0 1.979 1 1.979 2.12v3.4h-1.373v-2.72c0-.6-.04-1.56-1.01-1.56-.889 0-1.252.64-1.252 1.36v2.92h-1.333v-5.4zM24.312 25.52c-.243-.36-.606-.56-1.05-.56-.364 0-.808.16-.808.56 0 .96 2.948.16 2.948 2.28 0 1.28-1.252 1.72-2.342 1.72-.848 0-1.575-.2-2.1-.84l.888-.84c.364.4.727.68 1.292.68.404 0 .889-.2.889-.6 0-1.12-2.948-.24-2.948-2.28 0-1.2 1.09-1.72 2.18-1.72.727 0 1.495.24 1.939.8l-.888.8zM29.117 23.92c1.656 0 2.948 1.12 2.948 2.84 0 1.68-1.292 2.84-2.948 2.84-1.655 0-2.948-1.12-2.948-2.84 0-1.72 1.333-2.84 2.948-2.84zm0 4.44c1.01 0 1.575-.76 1.575-1.6 0-.84-.605-1.6-1.575-1.6-1.01 0-1.575.76-1.575 1.6 0 .8.606 1.6 1.575 1.6zM33.317 24.04h1.373v.84h.04c.283-.6.89-1 1.616-1 .162 0 .323.04.485.08v1.28c-.243-.04-.444-.12-.646-.12-1.293 0-1.454 1.08-1.454 1.36v2.88h-1.373v-5.32h-.04zM37.356 25.2v-1.16h1.13v-1.56h1.374v1.56h1.494v1.16H39.86v2.36c0 .52.161.88.767.88.242 0 .565-.04.727-.16v1.12c-.283.12-.767.16-1.09.16-1.454 0-1.777-.64-1.777-1.92V25.2h-1.131zM43.333 21.4c.484 0 .888.36.888.8 0 .44-.404.8-.888.8-.485 0-.848-.4-.848-.8-.04-.4.323-.8.848-.8zm-.687 2.64h1.373v5.36h-1.373v-5.36zM50.521 29.44H49.23v-.88h-.04c-.243.52-.768 1-1.656 1-1.454 0-1.98-1-1.98-2.12v-3.4h1.374v2.72c0 .6.04 1.56 1.01 1.56.888 0 1.251-.64 1.251-1.36v-2.92h1.374v5.4h-.04zM52.137 24.04h1.292v.84h.04c.243-.52.768-.96 1.656-.96.848 0 1.413.32 1.696 1 .404-.68.97-1 1.777-1 1.454 0 1.939 1 1.939 2.32v3.2h-1.374V26.4c0-.68-.201-1.24-1.01-1.24-.847 0-1.17.68-1.17 1.4v2.92H55.61v-3.2c0-.68-.283-1.08-.93-1.08-.888 0-1.251.64-1.251 1.36v2.92h-1.373v-5.44h.08z" transform="translate(-758 -258) translate(0 63) translate(757 78) translate(.621 117) translate(56 8)"/>
                                </g>
                                <path fill="#BA141A" fill-rule="nonzero" d="M19.713 37.296c1.42-1.66 2.718-3.075 3.165-5.26.324-1.699-.041-3.155-.771-4.45-.812-1.375-2.11-2.549-3.448-3.56 2.434-1.7 4.624-3.358 4.3-6.959-.163-1.901-1.217-3.52-2.434-4.935-.325-.405-.65-.769-.974-1.173 1.826-1.295 3.367-2.752 3.448-5.34.04-.608-1.622-1.255-1.622-1.619 0 .445-.082.89-.203 1.295h-2.475v.768h2.19c-.527 1.254-1.5 2.185-2.636 3.075-.203-.405-.406-.85-.568-1.295h.974v-.768h-1.177c-.081-.445-.162-.89-.162-1.416 0-.648-1.582-1.214-1.623-1.619.04 1.902.609 3.601 1.785 5.098.081.121.162.243.284.324-1.217.89-2.556 1.699-3.692 2.63-3.042 2.588-2.474 6.23 0 8.94.65.728 1.38 1.335 2.15 1.902-.446.323-.892.606-1.298.93-3.123 2.266-3.975 5.907-1.42 8.981 1.096 1.295 2.394 2.347 3.773 3.318.081.04.163.121.244.162-1.136 1.497-1.745 3.074-1.826 5.057 0 .607 1.623 1.254 1.623 1.618 0-.485.08-.971.162-1.416h3.976c.284.566 1.541 1.052 1.541 1.416-.08-2.346-1.541-4.207-3.286-5.704zm-6.085-6.757v-.161h7.667c-.08.445-.202.89-.324 1.294H13.75c-.081-.364-.122-.728-.122-1.133zm.446-2.184h7.262c.04.404.04.85 0 1.254h-7.667c.08-.445.243-.85.405-1.254zm.447-.769c.284-.404.608-.769.933-1.133h5.314c.203.364.325.729.446 1.133h-6.693zm5.639-1.901h-3.854c.608-.486 1.257-.971 1.906-1.416.69.445 1.38.89 1.948 1.416zm-6.329-6.15c-.04-.08-.04-.162-.081-.242h6.734c-.243.364-.568.728-.892 1.051h-5.396c-.162-.242-.284-.485-.365-.809zm1.663-5.583c.203-.202.406-.364.609-.526h2.393v-.768h-1.42c.73-.526 1.46-1.012 2.191-1.497.811 1.011 1.542 2.063 1.907 3.398 0 .04.04.121.04.162h-3.448v.769h3.57c.162 1.173-.04 2.184-.446 3.034h-7.302c-.041-.364-.041-.728.04-1.092h5.64v-.77H13.79c.325-1.01.933-1.941 1.704-2.71zm-.77 7.161h4.016c-.65.566-1.34 1.052-2.07 1.578-.689-.486-1.379-.971-1.947-1.578zm-.69 11.287h6.572c-.203.405-.446.77-.69 1.133h-5.152c-.284-.323-.527-.728-.73-1.133zm3.286 3.116c-.609-.405-1.217-.81-1.745-1.255h3.733c-.325.405-.65.77-.974 1.133-.162.162-.284.324-.446.526-.163-.121-.365-.243-.568-.404zm3.407 3.52h-2.23c.283-.486.608-.931.973-1.417.487.445.933.89 1.257 1.416zm-2.636.768h3.002c.121.324.202.647.243 1.011h-3.61c.121-.364.243-.687.365-1.011z" transform="translate(-758 -258) translate(0 63) translate(757 78) translate(.621 117)"/>
                            </g>
                        </g>
                    </g>
                </g>
            </g>
        </g>
    </g>
</svg>
