<?xml version="1.0" encoding="UTF-8"?>
<svg width="141px" height="20px" viewBox="0 0 141 20" version="1.1" xmlns="http://www.w3.org/2000/svg" xmlns:xlink="http://www.w3.org/1999/xlink">
    <!-- Generator: Sketch 54.1 (76490) - https://sketchapp.com -->
    <title>Logo/White</title>
    <desc>Created with Sketch.</desc>
    <defs>
        <polygon id="path-1" points="0.0546344697 0.0637024313 5.00897727 0.0637024313 5.00897727 3.15421512 0.0546344697 3.15421512"></polygon>
        <polygon id="path-3" points="0 20.1479915 139.971098 20.1479915 139.971098 0.465116279 0 0.465116279"></polygon>
    </defs>
    <g id="Pages---Application" stroke="none" stroke-width="1" fill="none" fill-rule="evenodd">
        <g id="Applicant/01.Homepage-banner3" transform="translate(-762.000000, -193.000000)">
            <g id="Content" transform="translate(0.000000, 63.000000)">
                <g id="Banner-area">
                    <g id="Access-list" transform="translate(757.000000, 68.000000)">
                        <g id="ICGC-ARGO" transform="translate(0.621096, 54.000000)">
                            <g id="logos/white" transform="translate(5.000000, 8.000000)">
                                <g id="logo-white" transform="translate(0.000000, -0.465116)">
                                    <path d="M130.493258,15.3365354 C130.469394,15.5598441 130.445,15.7831527 130.418352,16.0061971 L138.10125,16.0061971 C138.773144,15.0842891 139.287803,14.041213 139.605322,12.9158166 L134.507519,12.9158166 C133.666193,14.284342 132.193277,15.2246168 130.493258,15.3365354" id="Fill-1" fill="#FFFFFF"></path>
                                    <path d="M120.699223,12.915777 C121.016742,14.0413055 121.531269,15.0842495 122.203295,16.0062896 L124.149242,16.0062896 C123.50678,15.0757928 123.014659,14.0354915 122.712386,12.915777 L120.699223,12.915777 Z" id="Fill-3" fill="#FFFFFF"></path>
                                    <g id="Group-7" transform="translate(134.962121, 8.652220)">
                                        <mask id="mask-2" fill="white">
                                            <use xlink:href="#path-1"></use>
                                        </mask>
                                        <g id="Clip-6"></g>
                                        <path d="M0.0546344697,3.15421512 L4.88688826,3.15421512 C4.96696402,2.6507796 5.00899053,2.13479123 5.00899053,1.60902484 C5.00899053,1.08312632 4.96696402,0.567137949 4.88688826,0.0637024313 L0.0546344697,0.0637024313 C0.210278409,0.551281712 0.294861742,1.07017706 0.294861742,1.60902484 C0.294861742,2.14787262 0.210278409,2.66690011 0.0546344697,3.15421512" id="Fill-5" fill="#FFFFFF" mask="url(#mask-2)"></path>
                                    </g>
                                    <path d="M120.455722,8.71596195 C120.375381,9.21939746 120.333354,9.73538584 120.333354,10.2611522 C120.333354,10.7870507 120.375381,11.3030391 120.455722,11.8064746 L122.481214,11.8064746 C122.405646,11.3083245 122.36057,10.8 122.36057,10.2809725 C122.36057,9.74807082 122.407502,9.22653277 122.487047,8.71596195 L120.455722,8.71596195 Z" id="Fill-8" fill="#FFFFFF"></path>
                                    <path d="M137.159458,3.40680497 C135.377905,1.59774049 132.896883,0.474986786 130.152299,0.474986786 C130.108682,0.474986786 130.06586,0.477629493 130.022375,0.478290169 C130.18889,1.45133457 130.325443,2.42807875 130.43853,3.40680497 L137.159458,3.40680497 Z" id="Fill-10" fill="#FFFFFF"></path>
                                    <path d="M129.972023,0.479571882 C127.299561,0.527669133 124.887477,1.63760571 123.145034,3.40676533 L125.062212,3.40676533 C126.363841,2.005074 128.058689,0.97230444 129.972023,0.479571882" id="Fill-12" fill="#FFFFFF"></path>
                                    <path d="M122.203256,4.51627907 C121.531362,5.4381871 121.016703,6.48113108 120.699184,7.60665962 L122.722953,7.60665962 C123.030131,6.48628436 123.526892,5.44571882 124.174657,4.51627907 L122.203256,4.51627907 Z" id="Fill-14" fill="#FFFFFF"></path>
                                    <path d="M139.605362,7.60661998 C139.287843,6.48109144 138.773184,5.43814746 138.101157,4.51623943 L130.555343,4.51623943 C130.57682,4.74232294 130.596176,4.96867072 130.614869,5.1950185 C132.263449,5.34274577 133.686252,6.27086416 134.507559,7.60661998 L139.605362,7.60661998 Z" id="Fill-16" fill="#FFFFFF"></path>
                                    <path d="M125.029108,17.1156052 L123.145074,17.1156052 C124.926759,18.9246697 127.407782,20.0474234 130.152233,20.0474234 C132.896816,20.0474234 135.377839,18.9246697 137.159525,17.1156052 L130.274468,17.1156052 C130.13818,18.091028 129.978161,19.0640724 129.787915,20.0328885 C127.933313,19.5179572 126.294013,18.4906052 125.029108,17.1156052 Z" id="Fill-18" fill="#FFFFFF"></path>
                                    <path d="M129.972049,0.490465116 C130.001449,0.489767442 130.031083,0.488604651 130.060716,0.488372093 C130.059316,0.480465116 130.058383,0.472790698 130.056983,0.465116279 C130.028283,0.472325581 130.000749,0.483023256 129.972049,0.490465116 Z" id="Fill-20" fill="#37B34A"></path>
                                    <path d="M125.796854,12.915777 L122.712347,12.915777 C123.014619,14.0354915 123.506741,15.0757928 124.149335,16.0062896 L130.418313,16.0062896 C130.44496,15.7831131 130.469487,15.5599366 130.493218,15.3364958 C130.380528,15.3440275 130.267044,15.3490486 130.152233,15.3490486 C128.309032,15.3490486 126.694392,14.3752114 125.796854,12.915777 Z" id="Fill-22" fill="#9BC7ED"></path>
                                    <path d="M122.487047,8.71596195 C122.407502,9.22653277 122.36057,9.74807082 122.36057,10.2809725 C122.36057,10.8 122.405646,11.3083245 122.481214,11.8064746 L125.287843,11.8064746 C125.132066,11.3190275 125.047483,10.8 125.047483,10.2611522 C125.047483,9.72230444 125.132066,9.20340909 125.287843,8.71596195 L122.487047,8.71596195 Z" id="Fill-24" fill="#9BC7ED"></path>
                                    <path d="M130.43853,3.40680497 C130.325443,2.42807875 130.18889,1.45133457 130.022375,0.478290169 C130.005538,0.478422304 129.988701,0.479215116 129.971996,0.479611522 C128.058795,0.972211945 126.363814,2.00511364 125.062186,3.40680497 L130.43853,3.40680497 Z" id="Fill-26" fill="#9BC7ED"></path>
                                    <path d="M130.61479,5.1950185 C130.596229,4.96867072 130.576741,4.74232294 130.555396,4.51623943 L124.174657,4.51623943 C123.526892,5.44581131 123.030131,6.48637685 122.722953,7.60661998 L125.796854,7.60661998 C126.694392,6.14718552 128.309032,5.17334831 130.152233,5.17334831 C130.308275,5.17334831 130.46246,5.1815407 130.61479,5.1950185 Z" id="Fill-28" fill="#9BC7ED"></path>
                                    <path d="M130.274468,17.1156052 L125.029108,17.1156052 C126.294013,18.4906052 127.933312,19.5179572 129.787915,20.0328885 C129.978161,19.0640724 130.13818,18.091028 130.274468,17.1156052 Z" id="Fill-30" fill="#9BC7ED"></path>
                                    <path d="M130.392924,8.23504228 L130.392924,10.0626057 L132.320973,10.0626057 C132.303341,9.40377907 132.198208,8.78089323 132.028511,8.23504228 L130.392924,8.23504228 Z" id="Fill-32" fill="#DD1C4D"></path>
                                    <path d="M130.392924,10.4590116 L130.392924,12.2865751 L132.028511,12.2865751 C132.198208,11.7407241 132.303341,11.1178383 132.320973,10.4590116 L130.392924,10.4590116 Z" id="Fill-34" fill="#DD1C4D"></path>
                                    <path d="M129.995197,12.2865883 L129.995197,10.4590248 L128.06728,10.4590248 C128.084913,11.1178515 128.190045,11.7407373 128.359875,12.2865883 L129.995197,12.2865883 Z" id="Fill-36" fill="#DD1C4D"></path>
                                    <path d="M129.995197,12.6829413 L128.499477,12.6829413 C128.85372,13.5711549 129.392375,14.1858483 129.995197,14.2980312 L129.995197,12.6829413 Z" id="Fill-38" fill="#DD1C4D"></path>
                                    <path d="M129.995197,10.0626057 L129.995197,8.23504228 L128.359875,8.23504228 C128.190045,8.78089323 128.084913,9.40377907 128.06728,10.0626057 L129.995197,10.0626057 Z" id="Fill-40" fill="#DD1C4D"></path>
                                    <path d="M132.325759,12.6829942 C132.113903,13.2683536 131.826214,13.756065 131.485097,14.10662 C131.698809,14.0352669 131.904699,13.9471327 132.101044,13.8428779 C132.621271,13.5556158 133.071896,13.1585492 133.421763,12.6829942 L132.325759,12.6829942 Z" id="Fill-42" fill="#DD1C4D"></path>
                                    <path d="M129.995197,7.83863636 L129.995197,6.22420719 C129.993208,6.22420719 129.991352,6.22420719 129.989364,6.22433932 C129.388928,6.33942918 128.852527,6.95319767 128.499477,7.83863636 L129.995197,7.83863636 Z" id="Fill-44" fill="#DD1C4D"></path>
                                    <path d="M130.392924,12.6829942 L130.392924,14.298084 C130.995879,14.1859012 131.534534,13.5712077 131.888777,12.6829942 L130.392924,12.6829942 Z" id="Fill-46" fill="#DD1C4D"></path>
                                    <path d="M128.903131,14.1066728 C128.562013,13.7561179 128.274456,13.2681422 128.0626,12.683047 L126.931597,12.683047 C127.423055,13.3388346 128.109134,13.841213 128.903131,14.1066728" id="Fill-48" fill="#DD1C4D"></path>
                                    <path d="M127.935089,12.2865883 C127.779047,11.7366411 127.685316,11.1187764 127.669672,10.4590248 L126.129275,10.4590248 C126.161491,11.1222119 126.355051,11.7437764 126.670449,12.2865883 L127.935089,12.2865883 Z" id="Fill-50" fill="#DD1C4D"></path>
                                    <path d="M132.718688,10.4590116 C132.703044,11.1187632 132.609313,11.7366279 132.453271,12.2865751 L133.678934,12.2865751 C133.989028,11.7427061 134.177153,11.1212738 134.205259,10.4590116 L132.718688,10.4590116 Z" id="Fill-52" fill="#DD1C4D"></path>
                                    <path d="M132.453284,8.23504228 C132.609326,8.78498943 132.703057,9.40285412 132.718701,10.0626057 L134.203284,10.0626057 C134.167223,9.39875793 133.969818,8.77719345 133.650708,8.23504228 L132.453284,8.23504228 Z" id="Fill-54" fill="#DD1C4D"></path>
                                    <path d="M130.392871,6.23008721 L130.392871,7.8385703 L131.888856,7.8385703 C131.543761,6.97321617 131.023269,6.36790433 130.43914,6.23352273 C130.423761,6.23233351 130.408515,6.23088002 130.392871,6.23008721 Z" id="Fill-56" fill="#DD1C4D"></path>
                                    <path d="M131.537159,6.46966173 C131.855606,6.81559197 132.124867,7.28335095 132.32572,7.83858351 L133.38553,7.83858351 C132.917538,7.2217759 132.277727,6.74159619 131.537159,6.46966173" id="Fill-58" fill="#DD1C4D"></path>
                                    <path d="M126.931451,7.83863636 L128.062587,7.83863636 C128.274443,7.25327696 128.562,6.7654334 128.903117,6.4147463 C128.108989,6.68020613 127.422909,7.1827167 126.931451,7.83863636" id="Fill-60" fill="#DD1C4D"></path>
                                    <path d="M127.669672,10.0626057 C127.685316,9.40285412 127.779047,8.78498943 127.935089,8.23504228 L126.670449,8.23504228 C126.355051,8.77785412 126.161491,9.39928647 126.129275,10.0626057 L127.669672,10.0626057 Z" id="Fill-62" fill="#DD1C4D"></path>
                                    <mask id="mask-4" fill="white">
                                        <use xlink:href="#path-3"></use>
                                    </mask>
                                    <g id="Clip-65"></g>
                                    <polygon id="Fill-64" fill="#FFFFFF" mask="url(#mask-4)" points="0 19.8308668 4.08320076 19.8308668 4.08320076 1.33218816 0 1.33218816"></polygon>
                                    <path d="M5.91269318,10.5815275 C5.91269318,5.32267442 9.88996591,1.01506342 15.5905909,1.01506342 C19.0904583,1.01506342 21.1851553,2.17785412 22.9086402,3.86918605 L20.3102879,6.85531184 C18.8784697,5.56051797 17.4201364,4.76770613 15.5640758,4.76770613 C12.4352879,4.76770613 10.1816326,7.357426 10.1816326,10.5286734 L10.1816326,10.5815275 C10.1816326,13.7527748 12.3823902,16.3953488 15.5640758,16.3953488 C17.6852879,16.3953488 18.9845303,15.5496829 20.4428636,14.2283298 L23.0412159,16.8446089 C21.1322576,18.8793605 19.0110455,20.1479915 15.4315,20.1479915 C9.96951136,20.1479915 5.91269318,15.9460888 5.91269318,10.6343816 L5.91269318,10.5815275 Z" id="Fill-66" fill="#FFFFFF" mask="url(#mask-4)"></path>
                                    <path d="M22.9620152,10.6343816 L22.9620152,10.5815275 C22.9620152,5.32267442 27.0718636,1.01506342 32.6929432,1.01506342 C36.0338523,1.01506342 38.0490038,1.91358351 39.9844773,3.55192918 L37.4126402,6.64389535 C35.9806894,5.45467759 34.7080947,4.76770613 32.5603674,4.76770613 C29.5906705,4.76770613 27.2309545,7.38385307 27.2309545,10.5286734 L27.2309545,10.5815275 C27.2309545,13.9640592 29.5642879,16.448203 32.8520341,16.448203 C34.3368826,16.448203 35.6626402,16.0782241 36.6967311,15.3383985 L36.6967311,12.6956924 L32.5868826,12.6956924 L32.5868826,9.18089323 L40.6473561,9.18089323 L40.6473561,17.2145877 C38.7382652,18.8266385 36.1132652,20.1479915 32.7194583,20.1479915 C26.9392879,20.1479915 22.9620152,16.1046512 22.9620152,10.6343816" id="Fill-67" fill="#FFFFFF" mask="url(#mask-4)"></path>
                                    <path d="M41.7612311,10.6343816 L41.7612311,10.5815275 C41.7612311,5.32267442 45.7385038,1.01506342 51.4391288,1.01506342 C54.9389962,1.01506342 57.0336932,2.17785412 58.757178,3.86918605 L56.1588258,6.85531184 C54.7270076,5.56051797 53.2686742,4.76770613 51.4126136,4.76770613 C48.2838258,4.76770613 46.0301705,7.357426 46.0301705,10.5286734 L46.0301705,10.5815275 C46.0301705,13.7527748 48.230928,16.3953488 51.4126136,16.3953488 C53.5338258,16.3953488 54.8330682,15.5496829 56.2914015,14.2283298 L58.8897538,16.8446089 C56.9807955,18.8793605 54.8595833,20.1479915 51.2800379,20.1479915 C45.8180492,20.1479915 41.7612311,15.9460888 41.7612311,10.6343816" id="Fill-68" fill="#FFFFFF" mask="url(#mask-4)"></path>
                                    <path d="M76.7870038,12.08787 L74.3210947,6.0890592 L71.8553182,12.08787 L76.7870038,12.08787 Z M72.4916818,1.20005285 L76.2567008,1.20005285 L84.2111136,19.8308668 L79.9423068,19.8308668 L78.2453371,15.6818182 L70.3969848,15.6818182 L68.7000152,19.8308668 L64.5372689,19.8308668 L72.4916818,1.20005285 Z" id="Fill-69" fill="#FFFFFF" mask="url(#mask-4)"></path>
                                    <path d="M93.3058902,10.317204 C95.2945265,10.317204 96.434678,9.26012156 96.434678,7.70092495 L96.434678,7.64820296 C96.434678,5.90401691 95.2148485,5.00549683 93.2263447,5.00549683 L89.1696591,5.00549683 L89.1696591,10.317204 L93.3058902,10.317204 Z M85.0863258,1.33213531 L93.5710417,1.33213531 C95.9308902,1.33213531 97.7604356,1.99281184 98.9801326,3.20845666 C100.014223,4.23911205 100.570909,5.69260042 100.570909,7.43665433 L100.570909,7.48964059 C100.570909,10.4757664 98.9536174,12.3519556 96.5937689,13.2241808 L101.127727,19.830814 L96.3551326,19.830814 L92.3778598,13.9112844 L89.1696591,13.9112844 L89.1696591,19.830814 L85.0863258,19.830814 L85.0863258,1.33213531 Z" id="Fill-70" fill="#FFFFFF" mask="url(#mask-4)"></path>
                                    <path d="M101.445962,10.6343816 L101.445962,10.5815275 C101.445962,5.32267442 105.555811,1.01506342 111.17689,1.01506342 C114.517799,1.01506342 116.532951,1.91358351 118.468424,3.55192918 L115.896587,6.64389535 C114.464769,5.45467759 113.192042,4.76770613 111.044314,4.76770613 C108.074617,4.76770613 105.714902,7.38385307 105.714902,10.5286734 L105.714902,10.5815275 C105.714902,13.9640592 108.048235,16.448203 111.335981,16.448203 C112.82083,16.448203 114.146587,16.0782241 115.180678,15.3383985 L115.180678,12.6956924 L111.070962,12.6956924 L111.070962,9.18089323 L119.131303,9.18089323 L119.131303,17.2145877 C117.222212,18.8266385 114.597212,20.1479915 111.203405,20.1479915 C105.423235,20.1479915 101.445962,16.1046512 101.445962,10.6343816" id="Fill-71" fill="#FFFFFF" mask="url(#mask-4)"></path>
                                </g>
                            </g>
                        </g>
                    </g>
                </g>
            </g>
        </g>
    </g>
</svg>