<svg width="151" height="49" viewBox="0 0 151 49" xmlns="http://www.w3.org/2000/svg">
    <g fill-rule="nonzero" fill="none">
        <path d="M19.749.65c.13-.043.217-.043.347-.086.13 0 .216-.044.347-.044.13 0 .216-.043.346-.043.13 0 .217-.043.347-.043A4.36 4.36 0 0 0 20.01.78c-.303.13-.477.26-.564.39a.325.325 0 0 0 0 .39c.087.13.26.217.564.348.26.086.65.173 1.04.26.39.086.868.13 1.344.13.477.043.998.043 1.561.043.52 0 1.084-.043 1.648-.087a14.18 14.18 0 0 0 1.517-.216c.477-.087.867-.174 1.17-.304.347-.087.607-.217.78-.347.174-.13.26-.26.26-.39s-.13-.26-.346-.39c-.217-.13-.52-.217-.91-.304-.39-.086-.867-.173-1.388-.216A21.08 21.08 0 0 0 24.951 0c2.211 0 3.989.303 4.856.477a24.777 24.777 0 0 1 4.855 1.474c1.127.477 2.818 1.344 3.815 2.037.217.13.477.304.694.477.824.607.91.65 1.3.997.824.65 1.258 1.084 1.908 1.691.043.044.087.13.13.174.043.043.043.13.043.173v.173c0 .044-.043.13-.086.174-.217.347-.78.65-1.648.954-.823.303-1.907.563-3.208.78a71.355 71.355 0 0 1-4.248.607 79.49 79.49 0 0 1-5.03.39c-1.777.087-3.51.173-5.245.173-1.69 0-3.381 0-4.942-.086-1.604-.044-3.122-.174-4.509-.304-1.43-.13-2.688-.303-3.771-.52-.65-.13-1.171-.26-1.605-.39-.433-.13-.823-.304-1.083-.477s-.434-.347-.477-.52c-.044-.174 0-.347.173-.564 1.3-1.387 2.255-2.167 2.992-2.774.216-.174 1.3-.998 2.817-1.908C15.63 1.691 18.145 1.04 19.75.65zM6.743 40.708a.595.595 0 0 1-.173-.563c.043-.174.216-.347.477-.52.26-.174.607-.348 1.083-.478.434-.13.998-.303 1.648-.433a36.204 36.204 0 0 1 3.815-.564c1.387-.13 2.948-.26 4.552-.347a63.748 63.748 0 0 1 5.029-.086c1.734 0 3.511.043 5.332.13 1.82.087 3.512.217 5.116.39 1.604.173 3.078.347 4.335.607 1.3.217 2.428.52 3.295.78.867.304 1.474.65 1.734.954.043.043.087.13.087.173v.174c0 .043-.044.13-.044.173-.043.044-.086.13-.13.174-2.47 2.6-5.115 4.162-6.893 5.029a23.84 23.84 0 0 1-4.075 1.56c-1.994.564-3.555.737-4.335.824.477-.043.953-.13 1.344-.217.39-.086.737-.173 1.04-.26.304-.087.52-.217.65-.347.13-.13.217-.26.217-.39 0-.173-.13-.347-.347-.52-.216-.174-.563-.304-.997-.434-.433-.13-.954-.26-1.517-.346a21.23 21.23 0 0 0-1.908-.217 33.39 33.39 0 0 0-2.08-.087c-.694 0-1.344 0-1.951.043a18.92 18.92 0 0 0-1.735.217 7.49 7.49 0 0 0-1.343.347c-.347.13-.607.303-.737.434-.13.173-.13.303 0 .476.13.174.346.347.693.477.347.174.867.304 1.43.434-.043 0-.086 0-.13-.044-.043 0-.086 0-.13-.043-.043 0-.086 0-.13-.043-.043 0-.086 0-.13-.044-1.647-.346-2.904-.78-3.641-1.083-1.647-.65-2.991-1.388-3.338-1.604-1.518-.65-3.772-2.125-6.113-4.726z" fill="#8FA6C6"/>
        <path d="M4.879 10.621c-.13.174-.13.347 0 .477.087.174.303.304.65.434.304.13.737.26 1.214.39s1.084.26 1.778.347c1.213.217 2.644.347 4.205.477a83.26 83.26 0 0 0 4.942.26c1.734.043 3.555.086 5.42.043 1.863 0 3.814-.087 5.722-.173a96.737 96.737 0 0 0 5.505-.39c1.734-.174 3.339-.347 4.726-.564 1.43-.217 2.688-.477 3.641-.737.998-.26 1.691-.607 1.995-.91.043-.044.086-.087.086-.13.044-.044.044-.087.044-.13v-.13c0-.044-.044-.087-.087-.13 2.601 3.424 3.642 6.719 3.945 7.803v.043l-.043.044c-.044 0-.044.043-.087.043s-.087.043-.13.043c-.434.174-1.344.347-2.601.477-1.17.13-2.688.26-4.422.39-1.648.13-3.555.217-5.55.304-1.95.086-4.118.13-6.372.216-2.211.044-4.422.087-6.546.087h-6.2c-1.994-.043-3.945-.087-5.679-.13a74.545 74.545 0 0 1-4.899-.26c-.78-.043-1.43-.13-2.037-.173a11.548 11.548 0 0 1-1.518-.217c-.433-.087-.737-.13-.91-.217-.26.087-.347 0-.304-.087 0-.086.044-.26.087-.39.043-.217.087-.217.26-.823.087-.304.26-.694.26-.78.26-.651.52-1.301.824-1.908.824-1.778 1.647-3.035 2.081-3.599zM1.28 30.65c-.043-.086.087-.173.304-.26.217-.087.52-.173.91-.217.39-.086.911-.13 1.518-.216.607-.087 1.257-.13 2.037-.174 1.431-.13 3.122-.217 4.943-.26 1.777-.087 3.685-.13 5.722-.173 1.994-.044 4.075-.044 6.243-.044 2.124 0 4.335 0 6.59.044 2.254.043 4.422.086 6.372.173 2.038.087 3.946.174 5.593.26 1.734.087 3.251.217 4.422.39 1.257.13 2.168.304 2.601.477.043 0 .087.044.13.044.043 0 .087.043.087.043.043 0 .043.043.043.043v.087c-.043.13-.087.304-.13.434-.043.13-.087.303-.13.433-.173.52-.26.737-.433 1.257-.26.694-.52 1.344-.868 1.995-.867 1.864-1.82 3.164-2.21 3.728.043-.043.043-.087.086-.13v-.13c0-.044-.043-.087-.043-.13-.044-.044-.044-.087-.13-.13-.304-.304-.997-.607-2.038-.91-.954-.26-2.21-.521-3.685-.738a63.094 63.094 0 0 0-4.812-.52c-1.734-.13-3.598-.26-5.592-.347-1.951-.087-3.902-.13-5.81-.13-1.864 0-3.728.043-5.462.087-1.778.087-3.468.173-4.986.303-1.56.13-3.034.304-4.248.52-.694.13-1.3.26-1.778.39-.52.13-.91.26-1.257.434-.303.13-.52.304-.65.477-.13.174-.13.347 0 .477 0 0-.564-.78-1.084-1.777-.347-.607-.65-1.214-.954-1.821a17.656 17.656 0 0 1-.78-1.908c-.043-.13-.173-.477-.39-1.17a1.928 1.928 0 0 0-.13-.91zM.804 20.68c0 .043.087.086.303.13.217.043.52.086.954.13.434.043.954.086 1.56.13.608.043 1.301.086 2.082.086 1.474.043 3.164.087 5.029.13 1.82.043 3.771.043 5.809.087h6.33c2.167 0 4.421-.044 6.676-.044 2.297-.043 4.465-.086 6.502-.13 2.081-.043 3.989-.13 5.68-.173 1.777-.087 3.338-.173 4.552-.26 1.3-.087 2.21-.217 2.688-.304.043 0 .086-.043.13-.043.043 0 .086-.043.086-.043.044 0 .044-.044.044-.044v-.043c.477 2.688.477 5.202.086 7.89v-.043l-.043-.044c-.043 0-.043-.043-.087-.043-.043 0-.086-.043-.13-.043-.477-.087-1.43-.217-2.688-.304a97.911 97.911 0 0 0-4.552-.216c-1.69-.044-3.641-.13-5.722-.174a300.88 300.88 0 0 0-6.503-.087c-2.254 0-4.509-.043-6.676 0-2.168 0-4.292 0-6.33.044-2.037.043-4.032.043-5.81.13-1.863.043-3.554.087-5.028.173-.78.044-1.474.087-2.08.13-.608.044-1.128.087-1.562.13-.433.044-.737.087-.953.13-.217.044-.347.087-.347.13-.087-.52-.13-.867-.174-1.387-.216-2.08-.13-3.945.174-6.026z" fill="#8FA6C6"/>
        <path d="M20.746 39.19c1.517-1.777 2.905-3.294 3.382-5.635.346-1.82-.044-3.382-.824-4.769-.867-1.474-2.255-2.731-3.685-3.815 2.601-1.82 4.899-3.598 4.595-7.457-.173-2.037-1.3-3.771-2.6-5.289-.348-.433-.695-.823-1.041-1.257 1.95-1.387 3.598-2.948 3.685-5.722.043-.65-1.735-1.344-1.735-1.734 0 .476-.086.953-.216 1.387h-2.645v.824h2.341c-.563 1.343-1.604 2.34-2.818 3.294-.216-.433-.433-.91-.607-1.387h1.04v-.824h-1.256c-.087-.477-.13-.953-.174-1.517 0-.694-1.69-1.3-1.734-1.734.043 2.037.65 3.858 1.908 5.462.086.13.173.26.303.347-1.3.954-2.731 1.821-3.945 2.818-3.251 2.775-2.645 6.676 0 9.581.694.78 1.474 1.43 2.298 2.038-.477.346-.954.65-1.388.997-3.338 2.427-4.248 6.33-1.517 9.624 1.17 1.387 2.558 2.514 4.032 3.555.087.043.173.13.26.173-1.214 1.604-1.864 3.295-1.95 5.42 0 .65 1.733 1.343 1.733 1.733 0-.52.087-1.04.174-1.517h4.248c.304.607 1.648 1.127 1.648 1.517-.087-2.514-1.648-4.508-3.512-6.112zm-6.503-7.24v-.173h8.194c-.087.477-.217.954-.347 1.388h-7.717c-.087-.39-.13-.78-.13-1.214zm.477-2.34h7.76c.043.433.043.91 0 1.344h-8.194c.087-.477.26-.91.434-1.344zm.477-.824c.303-.433.65-.824.997-1.214h5.68c.216.39.39.78.476 1.214h-7.153zm6.026-2.037h-4.119c.65-.52 1.344-1.04 2.038-1.518.737.477 1.474.954 2.08 1.518zm-6.763-6.59c-.043-.087-.043-.173-.087-.26h7.197c-.26.39-.607.78-.954 1.127H14.85a2.647 2.647 0 0 1-.39-.867zm1.777-5.983c.217-.216.434-.39.65-.563h2.558v-.824h-1.517c.78-.564 1.56-1.084 2.341-1.604.867 1.084 1.648 2.211 2.038 3.642 0 .043.043.13.043.173h-3.685v.824h3.815c.174 1.257-.043 2.34-.477 3.251H14.2c-.044-.39-.044-.78.043-1.17h6.026v-.824h-5.852c.346-1.084.997-2.081 1.82-2.905zm-.823 7.674h4.292c-.694.607-1.431 1.127-2.211 1.69-.737-.52-1.474-1.04-2.081-1.69zm-.737 12.095H21.7c-.217.434-.477.824-.737 1.214h-5.506c-.303-.347-.564-.78-.78-1.214zm3.511 3.338c-.65-.433-1.3-.867-1.864-1.344h3.988c-.346.434-.693.824-1.04 1.214-.173.174-.303.347-.477.564-.173-.13-.39-.26-.607-.434zm3.642 3.772h-2.385c.304-.52.65-.997 1.04-1.517.521.476.998.953 1.345 1.517zm-2.818.824h3.208c.13.346.217.693.26 1.083h-3.858c.13-.39.26-.737.39-1.083z" fill="#BA141A"/>
        <path d="M6.96 8.02c.694-.737.824-.867 1.214-1.214.737-.693.91-.823 1.777-1.517a23.47 23.47 0 0 1 2.731-1.864C14.98 2.08 17.192 1.257 19.75.65c-.694.174-1.387.39-2.081.694-.694.303-1.387.694-2.038 1.17-.65.477-1.3 1.04-1.95 1.648a21.925 21.925 0 0 0-1.778 2.124c-.694.13-1.344.26-1.907.39-.564.13-1.04.26-1.474.434-.39.13-.737.303-.998.433-.26.217-.476.347-.563.477zM12.509 45.434c-.824-.477-1.82-1.128-3.121-2.168-1.258-1.04-2.211-2.038-2.645-2.558.13.13.304.304.607.434.26.13.607.303 1.04.433.434.13.91.304 1.475.434.563.13 1.213.26 1.95.39.304.433.607.867.954 1.257.304.39.65.737.997 1.084.347.347.694.65 1.04.954.348.303.694.563 1.085.823.303.217.65.434.953.607.347.174.65.347.997.52.347.13.65.26.997.39s.694.217.998.26c-.998-.216-4.076-.866-7.327-2.86zM1.367 18.121c.217-.693.347-1.257.477-1.604.087-.216.174-.563.304-.78.086-.26.217-.52.303-.78.13-.26.217-.52.347-.78.824-1.778 1.69-3.079 2.081-3.599.087-.13.26-.26.52-.433.26-.13.607-.304 1.04-.434.434-.13.998-.303 1.605-.434.65-.13 1.387-.26 2.21-.433l-.91 1.82c-.26.651-.52 1.301-.78 1.995-.26.694-.477 1.387-.65 2.124a18.95 18.95 0 0 0-.52 2.255c-1.041.086-1.951.173-2.732.26-.737.086-1.387.173-1.864.26-.477.087-.867.173-1.084.26-.217.173-.347.217-.347.303zM24.995.087c1.387 0 5.028.043 9.494 1.864 1.344.563 2.904 1.344 3.988 2.08.824.564 2.211 1.475 3.945 3.166-.26-.26-.823-.52-1.647-.78-.824-.26-1.951-.478-3.252-.651a59.351 59.351 0 0 0-4.725-.434c-1.777-.086-3.772-.173-5.853-.13-.13-.867-.303-1.604-.433-2.254-.174-.65-.304-1.17-.477-1.604-.173-.434-.303-.737-.477-.954-.217-.217-.39-.303-.563-.303zM42.9 41.315c-.434.434-1.562 1.604-3.166 2.775-1.517 1.127-2.86 1.82-3.728 2.254-.997.477-4.032 1.95-8.41 2.428-.174 0-.347.043-.564.043-.173 0-.39.043-.563.043-.217 0-.39 0-.607.044h-.607a.238.238 0 0 0 .216-.13c.087-.087.174-.174.217-.304.087-.13.174-.26.217-.433.087-.174.173-.39.217-.607.086-.217.173-.477.216-.737.087-.26.13-.564.217-.91.087-.347.13-.694.217-1.084.087-.39.13-.78.217-1.214 2.124 0 4.162-.087 5.982-.174 1.821-.13 3.425-.26 4.813-.477 1.344-.216 2.47-.433 3.338-.693.953-.26 1.517-.564 1.777-.824zM44.72 9.798c.434.607 1.387 1.864 2.341 3.685 1.084 2.167 1.647 4.075 1.647 4.118-.043-.173-.52-.303-1.43-.433-.91-.13-2.298-.26-4.075-.39-1.821-.13-4.032-.217-6.59-.26a509.082 509.082 0 0 0-8.584-.087c-.043-.824-.086-1.648-.13-2.428a36.609 36.609 0 0 0-.173-2.254c-.044-.737-.13-1.431-.174-2.081-.086-.65-.13-1.3-.216-1.908 2.427 0 4.725.043 6.806.13 2.038.087 3.858.26 5.419.434 1.474.173 2.688.39 3.598.65.824.303 1.344.564 1.561.824zM4.706 38.15c-.39-.607-1.214-1.82-2.038-3.598-.087-.217-.434-.954-.78-1.907-.174-.477-.26-.737-.39-1.171l-.13-.39c-.044-.13-.087-.304-.13-.39 0 .086.13.173.39.26.26.086.606.173 1.083.26.52.087 1.127.173 1.908.26.78.087 1.69.173 2.731.217.13.78.347 1.517.52 2.254.217.737.434 1.43.65 2.124.217.694.477 1.344.78 1.995.261.65.565 1.257.868 1.82-.867-.13-1.604-.26-2.254-.39-.65-.13-1.17-.26-1.648-.433a6.99 6.99 0 0 1-1.084-.434l-.476-.477zM48.838 30.824a21.43 21.43 0 0 1-.823 2.514s-.26.694-.694 1.604c-.607 1.257-1.387 2.601-2.21 3.729-.218.303-.738.563-1.605.823s-2.124.477-3.641.694c-1.561.217-3.382.39-5.463.477-2.124.13-4.465.173-6.936.217.086-.607.13-1.258.173-1.908.043-.65.13-1.387.173-2.08.044-.738.087-1.475.13-2.255.044-.78.087-1.604.13-2.428 3.122 0 6.027-.043 8.628-.13 2.558-.087 4.812-.173 6.633-.304 1.777-.13 3.164-.26 4.075-.433.91-.173 1.387-.347 1.43-.52zM.5 24.58c0-1.907.217-3.337.304-3.9 0-.044.13-.088.347-.13.26-.044.607-.088 1.083-.174.52-.044 1.128-.087 1.908-.174.78-.043 1.734-.086 2.818-.173-.043.39-.087.737-.13 1.127-.044.39-.044.737-.087 1.127 0 .39-.043.78-.043 1.127v2.211c0 .347.043.694.043 1.04 0 .348.043.694.087 1.041.043.347.043.694.087.997a188.355 188.355 0 0 1-2.818-.13c-.78-.043-1.431-.086-1.908-.13-.477-.043-.867-.086-1.084-.173-.216-.043-.347-.087-.347-.13-.043-.52-.26-1.821-.26-3.555zM49.315 20.289c.477 2.688.477 5.202.087 7.89 0 .087-.477.217-1.387.304-.954.086-2.341.173-4.162.26a225.1 225.1 0 0 1-6.806.217c-2.688.043-5.68.086-8.931.086V22.066c0-.433 0-.823-.043-1.213 0-.39 0-.824-.044-1.214 3.208 0 6.2 0 8.888.043 2.644.043 4.942.087 6.806.13 1.82.043 3.208.13 4.118.217.997.043 1.431.13 1.474.26z" fill="#3D6C98"/>
        <g fill="#3D6C98">
            <path d="M60.76 8.627h1.518v8.584H60.76zM64.012 11.402h1.387v.953h.044c.26-.563.823-1.083 1.777-1.083 1.56 0 2.124 1.083 2.124 2.297v3.685H67.87v-2.948c0-.65-.043-1.69-1.084-1.69-.953 0-1.343.693-1.343 1.474v3.164h-1.474v-5.852h.043zM70.211 12.659v-1.257h1.214V9.71H72.9v1.69h1.604v1.258H72.9v2.558c0 .563.174.954.824.954.26 0 .607-.044.78-.174v1.214c-.303.13-.823.173-1.17.173-1.561 0-1.908-.693-1.908-2.08v-2.645h-1.214zM76.844 14.827c.087.867.737 1.387 1.561 1.387.737 0 1.214-.347 1.56-.78l1.041.78c-.694.824-1.56 1.17-2.471 1.17-1.777 0-3.165-1.213-3.165-3.078 0-1.82 1.388-3.078 3.165-3.078 1.647 0 2.731 1.127 2.731 3.165v.434h-4.422zm2.992-1.084c0-.867-.564-1.388-1.474-1.388-.867 0-1.388.564-1.518 1.388h2.992zM82.654 11.402h1.474v.91h.043a1.883 1.883 0 0 1 1.734-1.084c.173 0 .347.044.52.087v1.387c-.26-.043-.477-.13-.693-.13-1.388 0-1.561 1.17-1.561 1.474v3.122h-1.474v-5.766h-.043zM87.336 11.402h1.387v.953h.043c.26-.563.824-1.083 1.778-1.083 1.56 0 2.124 1.083 2.124 2.297v3.685h-1.474v-2.948c0-.65-.043-1.69-1.084-1.69-.954 0-1.344.693-1.344 1.474v3.164h-1.474v-5.852h.044zM97.914 16.43c-.434.65-1.128.954-1.908.954-1.084 0-2.124-.607-2.124-1.734 0-1.907 2.21-2.037 3.685-2.037h.347v-.174c0-.737-.564-1.084-1.344-1.084a2.4 2.4 0 0 0-1.561.607l-.78-.78c.65-.65 1.56-.954 2.47-.954 2.472 0 2.472 1.778 2.472 2.601v3.339h-1.3v-.737h.043zm-.087-1.82h-.304c-.78 0-2.167.043-2.167.91 0 .52.563.78 1.04.78.997 0 1.474-.52 1.474-1.343v-.347h-.043zM100.081 12.659v-1.257h1.214V9.71h1.474v1.69h1.604v1.258h-1.604v2.558c0 .563.174.954.824.954.26 0 .607-.044.78-.174v1.214c-.303.13-.824.173-1.17.173-1.561 0-1.908-.693-1.908-2.08v-2.645h-1.214zM106.54 8.54c.521 0 .955.39.955.868 0 .476-.434.867-.954.867s-.91-.434-.91-.867c-.044-.434.346-.868.91-.868zm-.736 2.862h1.474v5.809h-1.474v-5.81zM111.743 11.272c1.778 0 3.165 1.214 3.165 3.078 0 1.82-1.387 3.078-3.165 3.078-1.777 0-3.165-1.214-3.165-3.078 0-1.864 1.388-3.078 3.165-3.078zm0 4.812c1.084 0 1.69-.824 1.69-1.734s-.65-1.734-1.69-1.734c-1.084 0-1.69.823-1.69 1.734a1.647 1.647 0 0 0 1.69 1.734zM116.208 11.402h1.388v.953h.043c.26-.563.824-1.083 1.778-1.083 1.56 0 2.124 1.083 2.124 2.297v3.685h-1.474v-2.948c0-.65-.044-1.69-1.084-1.69-.954 0-1.344.693-1.344 1.474v3.164h-1.474v-5.852h.043zM126.786 16.43c-.433.65-1.127.954-1.907.954-1.084 0-2.124-.607-2.124-1.734 0-1.907 2.21-2.037 3.685-2.037h.346v-.174c0-.737-.563-1.084-1.343-1.084a2.4 2.4 0 0 0-1.561.607l-.78-.78c.65-.65 1.56-.954 2.47-.954 2.472 0 2.472 1.778 2.472 2.601v3.339h-1.3v-.737h.042zm-.086-1.82h-.304c-.78 0-2.167.043-2.167.91 0 .52.563.78 1.04.78.997 0 1.474-.52 1.474-1.343v-.347h-.043zM129.691 8.064h1.474v9.19h-1.474zM66.7 21.936c-.65-.65-1.214-.867-1.821-.867-1.777 0-2.948 1.344-2.948 3.078 0 1.821 1.17 3.208 2.948 3.208.694 0 1.344-.303 1.95-1.04l1.258.91c-.78 1.084-1.95 1.518-3.208 1.518-2.645 0-4.552-1.778-4.552-4.466 0-2.774 1.907-4.552 4.552-4.552 1.17 0 2.168.39 2.991 1.344l-1.17.867zM72.812 27.702c-.433.65-1.127.954-1.907.954-1.084 0-2.124-.607-2.124-1.734 0-1.908 2.21-2.038 3.685-2.038h.346v-.173c0-.737-.563-1.084-1.343-1.084a2.4 2.4 0 0 0-1.561.607l-.78-.78c.65-.65 1.56-.954 2.47-.954 2.472 0 2.472 1.777 2.472 2.601v3.338h-1.3v-.737h.042zm-.043-1.82h-.303c-.78 0-2.168.043-2.168.91 0 .52.564.78 1.04.78.998 0 1.474-.52 1.474-1.344v-.346h-.043zM75.717 22.673h1.387v.954h.044c.26-.563.823-1.084 1.777-1.084 1.56 0 2.124 1.084 2.124 2.298v3.685h-1.474v-2.948c0-.65-.043-1.69-1.083-1.69-.954 0-1.344.693-1.344 1.473v3.165h-1.474v-5.853h.043zM86.599 24.45c-.347-.346-.737-.563-1.084-.563-1.084 0-1.691.824-1.691 1.734s.65 1.734 1.69 1.734c.434 0 .868-.173 1.128-.563l.954 1.04c-.607.607-1.604.824-2.081.824-1.778 0-3.165-1.214-3.165-3.078 0-1.82 1.387-3.078 3.165-3.078.737 0 1.56.26 2.124.867l-1.04 1.084zM89.547 26.098c.086.867.737 1.388 1.56 1.388.737 0 1.214-.347 1.561-.78l1.04.78c-.693.823-1.56 1.17-2.47 1.17-1.778 0-3.165-1.214-3.165-3.078 0-1.82 1.387-3.078 3.164-3.078 1.648 0 2.732 1.127 2.732 3.165v.433h-4.422zm2.99-1.084c0-.867-.563-1.387-1.473-1.387-.867 0-1.387.564-1.517 1.387h2.99zM95.356 22.673h1.474v.91h.043a1.883 1.883 0 0 1 1.734-1.083c.174 0 .347.043.52.087v1.387c-.26-.043-.476-.13-.693-.13-1.387 0-1.56 1.17-1.56 1.474v3.121h-1.475v-5.766h-.043zM111.44 27.876c-1.04.563-2.255.867-3.555.867-2.645 0-4.552-1.778-4.552-4.466 0-2.774 1.907-4.552 4.552-4.552 1.3 0 2.47.26 3.381 1.084l-1.127 1.127c-.564-.52-1.387-.823-2.254-.823-1.778 0-2.948 1.344-2.948 3.078 0 1.82 1.17 3.208 2.948 3.208.78 0 1.474-.13 1.994-.434v-2.037h-1.777v-1.43h3.294v4.378h.044zM114.258 26.098c.086.867.737 1.388 1.56 1.388.737 0 1.214-.347 1.561-.78l1.04.78c-.693.823-1.56 1.17-2.47 1.17-1.778 0-3.165-1.214-3.165-3.078 0-1.82 1.387-3.078 3.164-3.078 1.648 0 2.732 1.127 2.732 3.165v.433h-4.422zm2.99-1.084c0-.867-.563-1.387-1.473-1.387-.867 0-1.387.564-1.517 1.387h2.99zM120.067 22.673h1.387v.954h.043c.26-.563.824-1.084 1.778-1.084 1.56 0 2.124 1.084 2.124 2.298v3.685h-1.474v-2.948c0-.65-.043-1.69-1.084-1.69-.953 0-1.344.693-1.344 1.473v3.165h-1.474v-5.853h.044zM129.865 22.543c1.777 0 3.164 1.214 3.164 3.078 0 1.821-1.387 3.078-3.164 3.078-1.778 0-3.165-1.213-3.165-3.078 0-1.864 1.387-3.078 3.165-3.078zm0 4.812c1.083 0 1.69-.823 1.69-1.734 0-.91-.65-1.734-1.69-1.734-1.084 0-1.691.824-1.691 1.734a1.647 1.647 0 0 0 1.69 1.734zM134.33 22.673h1.387v.91h.043c.26-.563.824-1.04 1.778-1.04.91 0 1.517.347 1.82 1.084.434-.737 1.041-1.084 1.908-1.084 1.56 0 2.081 1.084 2.081 2.515v3.468h-1.474v-3.295c0-.737-.217-1.344-1.084-1.344-.91 0-1.257.737-1.257 1.518v3.164h-1.474v-3.468c0-.737-.303-1.17-.997-1.17-.954 0-1.344.693-1.344 1.474v3.164h-1.474v-5.896h.087zM146.078 26.098c.087.867.737 1.388 1.561 1.388.737 0 1.214-.347 1.56-.78l1.041.78c-.693.823-1.56 1.17-2.47 1.17-1.778 0-3.166-1.214-3.166-3.078 0-1.82 1.388-3.078 3.165-3.078 1.648 0 2.731 1.127 2.731 3.165v.433h-4.422zm2.992-1.084c0-.867-.564-1.387-1.474-1.387-.867 0-1.388.564-1.518 1.387h2.992zM66.7 33.208c-.65-.65-1.214-.867-1.821-.867-1.777 0-2.948 1.344-2.948 3.078 0 1.82 1.17 3.208 2.948 3.208.694 0 1.344-.303 1.95-1.04l1.258.91c-.78 1.084-1.95 1.517-3.208 1.517-2.645 0-4.552-1.777-4.552-4.465 0-2.774 1.907-4.552 4.552-4.552 1.17 0 2.168.39 2.991 1.344l-1.17.867zM71.859 33.815c1.777 0 3.164 1.214 3.164 3.078 0 1.82-1.387 3.078-3.164 3.078-1.778 0-3.165-1.214-3.165-3.078 0-1.864 1.387-3.078 3.165-3.078zm0 4.812c1.084 0 1.69-.824 1.69-1.734s-.65-1.734-1.69-1.734c-1.084 0-1.691.824-1.691 1.734 0 .867.607 1.734 1.69 1.734zM76.367 33.945h1.388v.954h.043c.26-.564.824-1.084 1.777-1.084 1.561 0 2.125 1.084 2.125 2.298v3.685h-1.474V36.85c0-.65-.044-1.691-1.084-1.691-.954 0-1.344.694-1.344 1.474v3.165h-1.43v-5.853zM86.425 35.55c-.26-.391-.65-.608-1.127-.608-.39 0-.867.174-.867.607 0 1.04 3.165.174 3.165 2.471 0 1.388-1.344 1.864-2.515 1.864-.91 0-1.69-.216-2.254-.91l.954-.91c.39.433.78.737 1.387.737.434 0 .954-.217.954-.65 0-1.215-3.165-.26-3.165-2.472 0-1.3 1.17-1.864 2.341-1.864.78 0 1.604.26 2.081.867l-.954.867zM91.584 33.815c1.778 0 3.165 1.214 3.165 3.078 0 1.82-1.387 3.078-3.165 3.078-1.777 0-3.165-1.214-3.165-3.078 0-1.864 1.431-3.078 3.165-3.078zm0 4.812c1.084 0 1.69-.824 1.69-1.734s-.65-1.734-1.69-1.734c-1.084 0-1.69.824-1.69 1.734 0 .867.65 1.734 1.69 1.734zM96.093 33.945h1.474v.91h.043a1.883 1.883 0 0 1 1.734-1.083c.174 0 .347.043.52.086v1.388c-.26-.044-.476-.13-.693-.13-1.387 0-1.56 1.17-1.56 1.474v3.121h-1.475v-5.766h-.043zM100.428 35.202v-1.257h1.214v-1.69h1.474v1.69h1.604v1.257h-1.604v2.558c0 .564.173.954.824.954.26 0 .607-.043.78-.174v1.214c-.303.13-.824.174-1.17.174-1.561 0-1.908-.694-1.908-2.081v-2.645h-1.214zM106.844 31.084c.52 0 .954.39.954.867s-.433.867-.954.867c-.52 0-.91-.434-.91-.867-.043-.434.347-.867.91-.867zm-.737 2.861h1.474v5.81h-1.474v-5.81zM114.561 39.798h-1.387v-.954h-.044c-.26.564-.823 1.084-1.777 1.084-1.56 0-2.124-1.084-2.124-2.298v-3.685h1.474v2.948c0 .65.043 1.69 1.083 1.69.954 0 1.344-.693 1.344-1.473v-3.165h1.474v5.853h-.043zM116.295 33.945h1.387v.91h.044c.26-.563.823-1.04 1.777-1.04.91 0 1.518.347 1.821 1.084.434-.737 1.04-1.084 1.908-1.084 1.56 0 2.08 1.084 2.08 2.514v3.469h-1.474v-3.295c0-.737-.216-1.344-1.083-1.344-.91 0-1.258.737-1.258 1.517v3.165h-1.474v-3.468c0-.737-.303-1.17-.997-1.17-.953 0-1.344.693-1.344 1.473v3.165h-1.474v-5.896h.087z"/>
        </g>
    </g>
</svg>
