<svg width="18" height="18" xmlns="http://www.w3.org/2000/svg">
    <g fill="none" fill-rule="evenodd">
        <path d="M9 0a9 9 0 0 1 0 18A9 9 0 1 1 9 0z" fill="#EC8F17"/>
        <path d="M12.778 10.057c-.675 0-1.222-.595-1.222-1.328 0-.734.547-1.329 1.222-1.329.675 0 1.222.595 1.222 1.329 0 .733-.547 1.328-1.222 1.328m-4.278 0c-.675 0-1.222-.595-1.222-1.328 0-.734.547-1.329 1.222-1.329.675 0 1.222.595 1.222 1.329 0 .733-.547 1.328-1.222 1.328m-4.278 0C3.547 10.057 3 9.462 3 8.73 3 7.995 3.547 7.4 4.222 7.4c.675 0 1.222.595 1.222 1.329 0 .733-.547 1.328-1.222 1.328" fill="#FFF"/>
    </g>
</svg>
