<svg width="33" height="30" xmlns="http://www.w3.org/2000/svg">
    <path d="M23.849 13.689c5.178.93 8.843 3.898 8.843 7.505v4.771c0 .815-.698 1.455-1.512 1.397h-4.888v-4.228c0-3.534-2.898-6.595-7.422-8.06a8.102 8.102 0 0 0 1.864-3.298 8.096 8.096 0 0 0-.696-6.194 8.131 8.131 0 0 0-3.84-3.509c.283-.218.58-.424.902-.602a6.98 6.98 0 0 1 6.749 12.218zm-7.564 1.94c5.178.93 8.844 3.897 8.844 7.505v4.77c0 .815-.699 1.455-1.512 1.397H2.263c-.814.058-1.513-.582-1.57-1.396v-4.771c0-3.666 3.723-6.575 8.843-7.506A6.87 6.87 0 0 1 6.8 12.894a6.98 6.98 0 1 1 9.484 2.734zm-4.825 4.12c-1.544 0-2.796 1.226-2.796 2.738 0 1.511 1.252 2.737 2.796 2.737 1.062 0 1.986-.58 2.46-1.434h1.934l.8-.782.798.782.799-.782.799.782 1.864-1.434-1.332-1.173H13.92a2.807 2.807 0 0 0-2.459-1.433zm-.932 1.956a.79.79 0 0 1 .8.782.79.79 0 0 1-.8.782.79.79 0 0 1-.799-.782.79.79 0 0 1 .8-.782z" fill="#0774D3" fill-rule="evenodd"/>
</svg>
