<svg xmlns="http://www.w3.org/2000/svg" width="18" height="20" viewBox="0 0 18 20">
    <g fill="none" fill-rule="evenodd">
        <g>
            <g>
                <g>
                    <g>
                        <g>
                            <g>
                                <g>
                                    <path fill="#FBBB00" d="M3.76 10.859l-.59 2.334-2.16.049C-.314 10.628-.337 7.49.95 4.854l1.922.373.84 2.022c-.378 1.173-.362 2.448.048 3.61h.001z" transform="translate(-770 -332) translate(393 155) translate(24.639 161) translate(341 8.4) translate(11 8) translate(0 1)"/>
                                    <path fill="#518EF8" d="M16.819 7.307c.586 3.264-.577 6.604-3.025 8.683l-2.419-.131-.342-2.264c1-.62 1.767-1.586 2.175-2.734H8.67V7.307h8.149z" transform="translate(-770 -332) translate(393 155) translate(24.639 161) translate(341 8.4) translate(11 8) translate(0 1)"/>
                                    <path fill="#28B446" d="M13.794 15.989c-3.656 3.106-8.997 2.486-11.93-1.384-.323-.426-.608-.882-.853-1.363l2.75-2.383c.978 2.762 3.886 4.163 6.496 3.127.268-.107.527-.237.775-.39l2.762 2.393z" transform="translate(-770 -332) translate(393 155) translate(24.639 161) translate(341 8.4) translate(11 8) translate(0 1)"/>
                                    <path fill="#F14336" d="M13.898 2.07L11.15 4.453C8.785 2.893 5.674 3.657 4.2 6.16c-.2.342-.365.707-.489 1.088L.948 4.854C3.103.448 8.224-1.274 12.385 1.009c.539.295 1.046.651 1.513 1.061" transform="translate(-770 -332) translate(393 155) translate(24.639 161) translate(341 8.4) translate(11 8) translate(0 1)"/>
                                </g>
                            </g>
                        </g>
                    </g>
                </g>
            </g>
        </g>
    </g>
</svg>
