<svg xmlns="http://www.w3.org/2000/svg" width="50" height="50" viewBox="0 0 50 50">
    <g fill="none" fill-rule="evenodd">
        <g>
            <g>
                <g>
                    <g>
                        <g>
                            <g>
                                <g transform="translate(-757 -501) translate(0 63) translate(87.877 381) translate(669.123) translate(0 57)">
                                    <circle cx="25" cy="25" r="25" fill="#C0DCF3"/>
                                    <g fill="#0774D3">
                                        <path d="M20.193 25.536v-4.119l2.019-3.52v7.717c0 1.112-.8 1.886-1.942 1.886H1.935C.792 27.5 0 26.726 0 25.614V2.009C0 .897.792 0 1.935 0H20.27c1.143 0 1.942.897 1.942 2.009v15.977l-2.02 3.52V1.964H2.02v23.572h18.173zM4.23 4.23h11.634v1.057H4.231V4.231zm0 7.404h11.634v1.057H4.231v-1.057zm0-3.173h14.807v1.057H4.231V8.462zm0 6.346h14.807v1.057H4.231v-1.057zm0 3.173h11.634v1.057H4.231v-1.057z" transform="translate(13.75 11.25)"/>
                                    </g>
                                </g>
                            </g>
                        </g>
                    </g>
                </g>
            </g>
        </g>
    </g>
</svg>
