<svg width="18" height="18" xmlns="http://www.w3.org/2000/svg">
    <g fill="none" fill-rule="evenodd">
        <path d="M9 0a9 9 0 0 1 0 18A9 9 0 1 1 9 0z" fill="#FEA430"/>
        <path d="M12.988 4.36a1.228 1.228 0 0 0-1.736 0l-6.315 6.287a.216.216 0 0 0-.049.062s0 .012-.012.012c-.012.024-.025.037-.025.061v.013l-.837 2.726c-.037.135 0 .27.086.368.074.074.16.111.259.111.037 0 .074 0 .11-.012l2.721-.835h.012c.025-.013.05-.013.062-.025 0 0 .012 0 .012-.012.025-.013.05-.025.062-.05L13.64 6.78c.48-.48.48-1.253 0-1.732l-.652-.688z" fill="#FFF"/>
    </g>
</svg>
