<svg width="151" height="60" viewBox="0 0 151 60" xmlns="http://www.w3.org/2000/svg" xmlns:xlink="http://www.w3.org/1999/xlink">
    <defs>
        <path id="g72jh08e8a" d="M.22.257h.25v.139H.22z"/>
        <path id="jx8fet9mvc" d="M0 .148h124.793v12.489H0z"/>
        <path id="iu8mbl8vpe" d="M.165.044h124.949v12.489H.165z"/>
        <path id="duwfpcetqg" d="M0 59.05h149.737V.4H0z"/>
    </defs>
    <g transform="translate(.5)" fill="none" fill-rule="evenodd">
        <path d="M119.507 23.18c-.028.255-.055.51-.085.765h11.601a14.766 14.766 0 0 0 2.271-4.682h-7.342a7.953 7.953 0 0 1-6.445 3.917M104.746 19.263a14.763 14.763 0 0 0 2.272 4.682h2.938a15.238 15.238 0 0 1-2.17-4.682h-3.04zM126.696 17.582h6.966a14.94 14.94 0 0 0 0-4.681h-6.961a7.96 7.96 0 0 1 .348 2.332 7.95 7.95 0 0 1-.353 2.35M107.446 12.9h-3.067a14.893 14.893 0 0 0 0 4.683h3.058a15.405 15.405 0 0 1-.182-2.312c0-.807.07-1.597.191-2.37M129.601 4.857a14.78 14.78 0 0 0-10.58-4.442c-.067 0-.131.004-.197.005.252 1.474.458 2.954.629 4.437H129.6zM118.748.422a14.778 14.778 0 0 0-10.308 4.435h2.894a15.331 15.331 0 0 1 7.414-4.435M107.017 6.538a14.767 14.767 0 0 0-2.27 4.682h3.055a15.246 15.246 0 0 1 2.192-4.682h-2.977zM125.962 11.22h7.332a14.772 14.772 0 0 0-2.271-4.682h-11.394c.024.254.045.508.067.763a7.953 7.953 0 0 1 6.266 3.919M118.47 30.046a15.346 15.346 0 0 1-7.186-4.42h-2.844a14.78 14.78 0 0 0 10.58 4.442c4.145 0 7.89-1.701 10.581-4.442h-10.396a81.97 81.97 0 0 1-.735 4.42" fill="#131B3C"/>
        <g transform="translate(118.51 .194)">
            <mask id="y2mztz7fsb" fill="#fff">
                <use xlink:href="#g72jh08e8a"/>
            </mask>
            <path d="M.388.257C.357.265.328.277.297.284L.392.282.388.257" fill="#38B449" mask="url(#y2mztz7fsb)"/>
        </g>
        <path d="M119.092 23.19a7.952 7.952 0 0 1-6.861-3.927h-4.445a15.245 15.245 0 0 0 2.17 4.682h9.466c.03-.255.057-.51.085-.765a7.953 7.953 0 0 1-.415.01M111.482 12.9h-4.036c-.12.774-.191 1.564-.191 2.371 0 .787.068 1.557.182 2.312h4.05a7.959 7.959 0 0 1-.353-2.35c0-.811.123-1.595.348-2.332M111.334 4.857h8.119a82.568 82.568 0 0 0-.629-4.437l-.076.002a15.33 15.33 0 0 0-7.414 4.435M119.092 7.276c.203 0 .404.01.604.025-.022-.255-.043-.509-.067-.763h-9.635a15.256 15.256 0 0 0-2.192 4.682h4.42a7.952 7.952 0 0 1 6.87-3.944M118.47 30.046a81.97 81.97 0 0 0 .735-4.42h-7.92a15.346 15.346 0 0 0 7.185 4.42" fill="#2F72B9"/>
        <g transform="translate(0 27.02)">
            <mask id="kiqe7odrpd" fill="#fff">
                <use xlink:href="#jx8fet9mvc"/>
            </mask>
            <path d="M124.793 11.89c-1.466.014-2.942-.12-4.37-.487a14.57 14.57 0 0 1-4.06-1.71c-2.541-1.527-4.559-3.717-6.888-5.428-1.159-.866-2.412-1.591-3.747-2.112-1.335-.524-2.753-.81-4.181-.926-2.86-.215-5.802.136-8.36 1.392-.318.16-.637.315-.942.5-.312.17-.609.37-.909.562-.59.402-1.167.826-1.72 1.288-1.117.91-2.172 1.919-3.292 2.88a30.42 30.42 0 0 1-1.734 1.395 18.43 18.43 0 0 1-1.891 1.22c-1.312.742-2.757 1.26-4.233 1.57-1.48.31-2.986.404-4.484.353-1.499-.057-3.013-.27-4.459-.745a15.647 15.647 0 0 1-4.062-2.013c-1.25-.845-2.375-1.823-3.48-2.78-1.103-.954-2.192-1.895-3.363-2.682a14.364 14.364 0 0 0-3.741-1.848c-1.322-.43-2.717-.621-4.12-.67-1.406-.044-2.82.05-4.175.34-1.356.286-2.664.752-3.87 1.433l-.451.259c-.15.088-.294.186-.441.279-.296.18-.577.394-.865.593-.564.421-1.115.863-1.662 1.33-1.097.924-2.164 1.933-3.338 2.869-.581.472-1.199.917-1.834 1.337-.325.202-.645.41-.985.591-.33.195-.679.36-1.025.528-1.396.654-2.904 1.06-4.415 1.265-1.516.199-3.03.214-4.54.063-1.508-.159-3.015-.499-4.424-1.091-.35-.154-.703-.298-1.038-.48-.168-.088-.341-.168-.505-.264l-.492-.287a18.732 18.732 0 0 1-1.852-1.29c-2.362-1.84-4.276-4.06-6.686-5.619A14.135 14.135 0 0 0 4.282 1.69C2.902 1.281 1.455 1.083 0 1.025V.868L1.102.856l1.104.05c.366.043.734.081 1.1.132l.546.1c.183.033.366.062.545.112 1.444.337 2.855.884 4.14 1.645l.48.286.467.308c.313.202.609.426.911.642.594.445 1.17.908 1.736 1.377 1.13.936 2.217 1.902 3.378 2.731a16.068 16.068 0 0 0 3.687 2.037c1.303.503 2.687.771 4.085.877 1.4.1 2.825.064 4.202-.148 1.377-.217 2.716-.607 3.956-1.219.308-.154.62-.305.917-.485.304-.165.594-.36.887-.547a21.592 21.592 0 0 0 1.692-1.264c1.104-.895 2.165-1.892 3.298-2.856.562-.486 1.16-.947 1.77-1.395.315-.214.62-.44.948-.637.163-.1.322-.206.488-.302l.503-.281C43.29 1.275 44.771.762 46.274.463 47.784.17 49.31.1 50.82.175c1.513.08 3.037.321 4.49.819a15.733 15.733 0 0 1 4.06 2.08c1.242.865 2.353 1.858 3.443 2.831 1.09.97 2.165 1.928 3.328 2.736a14.463 14.463 0 0 0 3.737 1.917c1.327.456 2.733.675 4.15.748 1.42.068 2.851-.002 4.236-.273a13.78 13.78 0 0 0 3.972-1.415c.625-.33 1.22-.722 1.805-1.13.578-.422 1.145-.86 1.698-1.329 1.11-.927 2.184-1.926 3.345-2.847a22.83 22.83 0 0 1 1.804-1.313c.317-.198.63-.402.962-.577.324-.19.663-.351 1-.514 1.36-.64 2.826-1.036 4.303-1.238 1.48-.197 2.97-.21 4.45-.07 1.478.148 2.95.471 4.328 1.042 1.379.566 2.662 1.341 3.827 2.246 2.345 1.792 4.304 3.997 6.77 5.536a14.286 14.286 0 0 0 3.955 1.75c1.398.387 2.855.546 4.31.56v.157z" fill="#DE1D43" mask="url(#kiqe7odrpd)"/>
        </g>
        <g transform="translate(24.623 28.42)">
            <mask id="uz1ugidoaf" fill="#fff">
                <use xlink:href="#iu8mbl8vpe"/>
            </mask>
            <path d="M125.036 11.787c-1.466.013-2.942-.122-4.37-.488a14.558 14.558 0 0 1-4.06-1.711c-2.541-1.527-4.56-3.716-6.888-5.427-1.159-.866-2.412-1.591-3.748-2.112-1.334-.524-2.752-.81-4.18-.926-2.86-.215-5.802.136-8.36 1.392-.318.159-.637.315-.942.5-.312.17-.609.37-.909.561-.59.402-1.167.827-1.721 1.29-1.116.91-2.171 1.917-3.291 2.878-.556.485-1.138.948-1.735 1.396-.607.435-1.229.857-1.89 1.219-1.313.743-2.757 1.261-4.233 1.572-1.48.31-2.987.403-4.485.352-1.498-.058-3.012-.27-4.458-.745a15.647 15.647 0 0 1-4.063-2.013c-1.25-.845-2.374-1.823-3.479-2.78-1.103-.954-2.192-1.895-3.363-2.682a14.36 14.36 0 0 0-3.741-1.848c-1.322-.43-2.717-.621-4.12-.67-1.406-.044-2.82.05-4.175.34-1.356.286-2.665.751-3.87 1.433l-.451.259c-.15.088-.294.186-.441.279-.297.18-.577.394-.865.593-.564.42-1.115.863-1.662 1.329-1.098.925-2.164 1.934-3.339 2.87-.58.472-1.198.917-1.834 1.337-.324.202-.644.41-.984.591-.33.195-.679.36-1.025.528-1.397.654-2.904 1.06-4.415 1.265-1.516.198-3.03.214-4.54.063-1.508-.159-3.015-.499-4.425-1.091-.349-.154-.702-.299-1.037-.48-.168-.088-.342-.168-.505-.264l-.492-.287a18.733 18.733 0 0 1-1.852-1.29C12.726 7.18 10.812 4.96 8.402 3.4a14.128 14.128 0 0 0-3.877-1.816C3.145 1.177 1.698.98.243.921H.241A.079.079 0 0 1 .243.764L1.345.752l1.104.05c.366.042.734.081 1.1.132l.546.1c.183.032.366.062.545.111 1.443.338 2.854.885 4.14 1.646l.48.286.467.308c.313.202.609.426.911.642.594.445 1.17.908 1.735 1.377 1.132.936 2.218 1.902 3.379 2.731a16.068 16.068 0 0 0 3.687 2.037c1.303.503 2.686.771 4.085.877 1.4.099 2.825.064 4.202-.149 1.378-.216 2.716-.606 3.955-1.218.31-.155.62-.305.917-.485.304-.166.594-.36.888-.547a21.552 21.552 0 0 0 1.692-1.264c1.103-.896 2.165-1.893 3.298-2.856.562-.486 1.16-.947 1.77-1.396.314-.213.62-.44.948-.636.163-.101.322-.206.488-.302l.503-.282C43.532 1.17 45.014.658 46.517.36c1.51-.292 3.035-.363 4.546-.288 1.512.08 3.037.321 4.49.819a15.726 15.726 0 0 1 4.06 2.08c1.242.864 2.353 1.858 3.443 2.831 1.09.97 2.164 1.928 3.327 2.736a14.47 14.47 0 0 0 3.738 1.917c1.327.456 2.733.675 4.15.748 1.419.068 2.85-.002 4.236-.273a13.775 13.775 0 0 0 3.972-1.415c.625-.33 1.22-.723 1.805-1.13.578-.422 1.145-.861 1.698-1.33 1.11-.926 2.184-1.925 3.345-2.846a22.742 22.742 0 0 1 1.804-1.313c.317-.198.63-.402.962-.578.323-.189.663-.35 1-.513 1.36-.64 2.826-1.036 4.303-1.238 1.48-.197 2.97-.21 4.45-.07 1.477.148 2.95.471 4.328 1.041 1.379.567 2.662 1.342 3.827 2.247 2.345 1.792 4.304 3.997 6.77 5.536a14.286 14.286 0 0 0 3.955 1.75c1.398.386 2.855.546 4.31.56a.079.079 0 0 1 0 .157" fill="#2F72B9" mask="url(#uz1ugidoaf)"/>
        </g>
        <path d="m90.679 30.209.078-.001c.093-.064.186-.128.28-.19.318-.197.631-.401.963-.577.323-.19.662-.35 1-.514 1.36-.64 2.826-1.035 4.303-1.237.97-.13 1.945-.178 2.918-.158a19.858 19.858 0 0 0 2.49-1.806l-.013-12.24-12.24.015.007 5.355 6.24-.007.005 4.025c-1.569 1.13-3.582 1.695-5.836 1.699-4.993.005-8.54-3.775-8.546-8.929v-.08c-.006-4.791 3.573-8.782 8.082-8.787 3.262-.004 5.195 1.04 7.372 2.85l3.899-4.715C98.739 2.42 95.678 1.054 90.605 1.06c-8.536.01-14.769 6.58-14.76 14.591v.081c.01 8.334 6.057 14.487 14.834 14.477M63.572 7.173c3.02-.004 4.873 1.363 4.876 4.02v.08c.003 2.376-1.727 3.988-4.746 3.992l-6.28.008-.01-8.093 6.16-.007zm-8.112 20.84c.678.23 1.339.51 1.977.83l-.01-8.095 4.872-.006 6.006 8.946a15.62 15.62 0 0 1 2.985-.908 18.075 18.075 0 0 1 3.428-.316L68.7 19.688c3.581-1.333 6.034-4.195 6.029-8.744v-.08c-.003-2.657-.852-4.871-2.423-6.44-1.855-1.85-4.634-2.852-8.217-2.849l-12.884.015.03 25.622c1.425.094 2.857.333 4.225.801zM36.707 8.858l3.755 9.135-7.489.01 3.734-9.145zm-8.482 20.875a18.724 18.724 0 0 0-3.21-.391h-.002a.079.079 0 0 1 .002-.158l1.102-.011 1.104.05c.366.042.734.08 1.1.132l.054.01 2.39-5.885 11.918-.013 1.847 4.516a16.066 16.066 0 0 1 1.894-.5c1.4-.272 2.814-.35 4.218-.3L39.638 1.406l-5.718.007-12.045 28.399 6.32-.007.03-.072z" fill="#131B3C"/>
        <mask id="bs6imexl3h" fill="#fff">
            <use xlink:href="#duwfpcetqg"/>
        </mask>
        <path fill="#131B3C" mask="url(#bs6imexl3h)" d="M12.853 49.332h1.048v-4.764h-1.048zM14.711 45.684h1.035v.517c.238-.306.544-.585 1.068-.585.783 0 1.239.517 1.239 1.354v2.362h-1.035v-2.035c0-.49-.231-.742-.626-.742-.394 0-.646.252-.646.742v2.035H14.71v-3.648zM18.85 48.297V46.57h-.436v-.885h.436v-.932h1.034v.932h.857v.885h-.857v1.558c0 .239.102.354.334.354.19 0 .36-.047.51-.13v.831c-.218.13-.47.211-.817.211-.632 0-1.061-.252-1.061-1.096M23.525 47.222c-.061-.463-.333-.775-.769-.775-.429 0-.708.306-.79.775h1.56zm-2.572.307v-.014c0-1.041.741-1.899 1.803-1.899 1.218 0 1.776.946 1.776 1.98 0 .082-.006.178-.013.273H21.98c.102.47.43.715.892.715.347 0 .599-.11.885-.375l.592.524c-.34.422-.83.68-1.49.68-1.096 0-1.906-.768-1.906-1.884zM25.03 45.684h1.034v.735c.211-.503.551-.83 1.164-.803v1.082h-.055c-.687 0-1.109.415-1.109 1.286v1.348H25.03v-3.648zM27.602 45.684h1.035v.517c.238-.306.544-.585 1.068-.585.783 0 1.239.517 1.239 1.354v2.362H29.91v-2.035c0-.49-.232-.742-.627-.742-.394 0-.646.252-.646.742v2.035h-1.035v-3.648zM33.728 48.046v-.184a1.607 1.607 0 0 0-.66-.136c-.443 0-.715.177-.715.503v.014c0 .28.231.442.565.442.483 0 .81-.265.81-.64m-2.375.239v-.014c0-.796.605-1.163 1.47-1.163.367 0 .633.06.891.15v-.062c0-.429-.265-.667-.782-.667-.395 0-.674.075-1.008.197l-.258-.789a3.216 3.216 0 0 1 1.415-.293c.565 0 .974.15 1.232.409.272.272.395.673.395 1.164v2.116h-1v-.395c-.252.28-.6.463-1.103.463-.687 0-1.252-.395-1.252-1.116M35.464 48.297V46.57h-.436v-.885h.436v-.932h1.034v.932h.858v.885h-.858v1.558c0 .239.102.354.334.354.19 0 .36-.047.51-.13v.831c-.218.13-.47.211-.817.211-.632 0-1.061-.252-1.061-1.096M37.893 49.332h1.035v-3.648h-1.035v3.648zm-.027-4.05h1.09v-.918h-1.09v.919zM42.378 47.529v-.014c0-.538-.387-1.007-.96-1.007-.591 0-.945.456-.945.993v.014c0 .537.388 1.007.96 1.007.591 0 .945-.456.945-.993m-2.926 0v-.014c0-1.048.844-1.899 1.98-1.899 1.13 0 1.967.837 1.967 1.885v.014c0 1.048-.844 1.899-1.98 1.899-1.13 0-1.967-.837-1.967-1.885M43.876 45.684h1.035v.517c.238-.306.544-.585 1.068-.585.783 0 1.239.517 1.239 1.354v2.362h-1.035v-2.035c0-.49-.231-.742-.626-.742s-.646.252-.646.742v2.035h-1.035v-3.648zM50.001 48.046v-.184a1.607 1.607 0 0 0-.66-.136c-.442 0-.714.177-.714.503v.014c0 .28.231.442.564.442.484 0 .81-.265.81-.64m-2.375.239v-.014c0-.796.606-1.163 1.47-1.163.368 0 .633.06.892.15v-.062c0-.429-.266-.667-.783-.667-.394 0-.674.075-1.007.197l-.259-.789a3.216 3.216 0 0 1 1.416-.293c.565 0 .973.15 1.232.409.272.272.395.673.395 1.164v2.116H49.98v-.395c-.252.28-.599.463-1.102.463-.688 0-1.253-.395-1.253-1.116M51.649 49.332h1.034v-4.968h-1.034zM55.052 46.964v-.014c0-1.354 1.02-2.463 2.484-2.463.898 0 1.436.299 1.878.734l-.667.77c-.367-.334-.742-.538-1.218-.538-.803 0-1.382.667-1.382 1.483v.014c0 .817.565 1.497 1.382 1.497.544 0 .878-.218 1.252-.558l.667.674c-.49.524-1.034.85-1.953.85-1.402 0-2.443-1.081-2.443-2.45M62.062 48.046v-.184a1.607 1.607 0 0 0-.66-.136c-.443 0-.715.177-.715.503v.014c0 .28.231.442.565.442.483 0 .81-.265.81-.64m-2.375.239v-.014c0-.796.605-1.163 1.47-1.163.367 0 .633.06.891.15v-.062c0-.429-.265-.667-.782-.667-.395 0-.674.075-1.008.197L60 45.936a3.216 3.216 0 0 1 1.416-.293c.564 0 .973.15 1.231.409.272.272.395.673.395 1.164v2.116h-1v-.395c-.252.28-.6.463-1.103.463-.687 0-1.252-.395-1.252-1.116M63.662 45.684h1.034v.517c.238-.306.545-.585 1.069-.585.782 0 1.238.517 1.238 1.354v2.362H65.97v-2.035c0-.49-.232-.742-.626-.742-.395 0-.647.252-.647.742v2.035h-1.034v-3.648zM67.453 47.529v-.014c0-1.041.796-1.899 1.912-1.899.688 0 1.116.232 1.456.613l-.632.68c-.232-.245-.463-.401-.83-.401-.518 0-.885.456-.885.993v.014c0 .558.36 1.007.925 1.007.347 0 .585-.15.837-.388l.606.613c-.354.387-.762.667-1.49.667a1.863 1.863 0 0 1-1.9-1.885M73.537 47.222c-.061-.463-.333-.775-.769-.775-.428 0-.708.306-.79.775h1.56zm-2.572.307v-.014c0-1.041.742-1.899 1.803-1.899 1.218 0 1.777.946 1.777 1.98 0 .082-.007.178-.014.273h-2.539c.103.47.43.715.892.715.347 0 .599-.11.885-.375l.592.524c-.34.422-.83.68-1.49.68-1.096 0-1.906-.768-1.906-1.884zM75.042 45.684h1.034v.735c.211-.503.552-.83 1.164-.803v1.082h-.054c-.688 0-1.11.415-1.11 1.286v1.348h-1.034v-3.648zM79.282 46.964v-.014c0-1.354 1.055-2.463 2.498-2.463.858 0 1.375.23 1.871.653l-.66.796c-.367-.306-.694-.483-1.245-.483-.762 0-1.368.673-1.368 1.483v.014c0 .871.599 1.51 1.443 1.51.38 0 .721-.094.986-.285v-.68h-1.054v-.906h2.069v2.07a3.093 3.093 0 0 1-2.035.755c-1.484 0-2.505-1.042-2.505-2.45M86.844 47.222c-.062-.463-.334-.775-.77-.775-.428 0-.707.306-.789.775h1.559zm-2.573.307v-.014c0-1.041.742-1.899 1.804-1.899 1.218 0 1.776.946 1.776 1.98 0 .082-.007.178-.014.273H85.3c.102.47.429.715.891.715.348 0 .6-.11.885-.375l.592.524c-.34.422-.83.68-1.49.68-1.096 0-1.906-.768-1.906-1.884zM88.348 45.684h1.035v.517c.238-.306.544-.585 1.068-.585.783 0 1.239.517 1.239 1.354v2.362h-1.035v-2.035c0-.49-.231-.742-.626-.742s-.646.252-.646.742v2.035h-1.035v-3.648zM95.066 47.529v-.014c0-.538-.388-1.007-.96-1.007-.592 0-.946.456-.946.993v.014c0 .537.388 1.007.96 1.007.592 0 .946-.456.946-.993m-2.927 0v-.014c0-1.048.844-1.899 1.98-1.899 1.13 0 1.968.837 1.968 1.885v.014c0 1.048-.844 1.899-1.98 1.899-1.13 0-1.968-.837-1.968-1.885M96.563 45.684h1.035v.517c.238-.306.551-.585 1.075-.585.476 0 .837.211 1.028.579.32-.375.7-.579 1.197-.579.77 0 1.232.463 1.232 1.34v2.376h-1.034v-2.035c0-.49-.218-.742-.606-.742s-.626.252-.626.742v2.035h-1.035v-2.035c0-.49-.217-.742-.605-.742s-.626.252-.626.742v2.035h-1.035v-3.648zM105.152 47.222c-.06-.463-.333-.775-.769-.775-.428 0-.707.306-.789.775h1.558zm-2.572.307v-.014c0-1.041.742-1.899 1.803-1.899 1.219 0 1.777.946 1.777 1.98 0 .082-.007.178-.014.273h-2.538c.102.47.428.715.891.715.347 0 .6-.11.885-.375l.592.524c-.34.422-.83.68-1.49.68-1.096 0-1.906-.768-1.906-1.884zM108.324 46.964v-.014c0-1.354 1.021-2.463 2.484-2.463.899 0 1.436.299 1.879.734l-.667.77c-.368-.334-.742-.538-1.218-.538-.804 0-1.382.667-1.382 1.483v.014c0 .817.565 1.497 1.382 1.497.544 0 .878-.218 1.252-.558l.667.674c-.49.524-1.035.85-1.953.85-1.403 0-2.444-1.081-2.444-2.45M115.859 47.529v-.014c0-.538-.388-1.007-.96-1.007-.592 0-.946.456-.946.993v.014c0 .537.388 1.007.96 1.007.592 0 .946-.456.946-.993m-2.927 0v-.014c0-1.048.844-1.899 1.98-1.899 1.13 0 1.967.837 1.967 1.885v.014c0 1.048-.843 1.899-1.98 1.899-1.13 0-1.967-.837-1.967-1.885M117.356 45.684h1.035v.517c.238-.306.544-.585 1.068-.585.783 0 1.239.517 1.239 1.354v2.362h-1.035v-2.035c0-.49-.231-.742-.626-.742-.394 0-.646.252-.646.742v2.035h-1.035v-3.648zM121.038 48.849l.443-.68c.395.285.81.435 1.15.435.3 0 .435-.11.435-.272v-.014c0-.225-.353-.3-.755-.422-.51-.15-1.089-.388-1.089-1.096v-.013c0-.742.6-1.157 1.334-1.157.463 0 .966.156 1.361.422l-.395.714c-.36-.21-.72-.34-.986-.34-.252 0-.382.109-.382.252v.014c0 .204.348.299.742.435.51.17 1.103.415 1.103 1.082v.014c0 .81-.606 1.177-1.395 1.177-.51 0-1.082-.17-1.566-.551M127.219 47.529v-.014c0-.538-.388-1.007-.96-1.007-.592 0-.946.456-.946.993v.014c0 .537.388 1.007.96 1.007.591 0 .946-.456.946-.993m-2.927 0v-.014c0-1.048.844-1.899 1.98-1.899 1.13 0 1.967.837 1.967 1.885v.014c0 1.048-.843 1.899-1.98 1.899-1.13 0-1.967-.837-1.967-1.885M128.716 45.684h1.034v.735c.211-.503.552-.83 1.164-.803v1.082h-.054c-.688 0-1.11.415-1.11 1.286v1.348h-1.034v-3.648zM131.459 48.297V46.57h-.436v-.885h.436v-.932h1.034v.932h.858v.885h-.858v1.558c0 .239.102.354.334.354.19 0 .36-.047.51-.13v.831c-.218.13-.47.211-.817.211-.632 0-1.061-.252-1.061-1.096M133.889 49.332h1.034v-3.648h-1.034v3.648zm-.027-4.05h1.088v-.918h-1.088v.919zM135.597 48.046v-2.362h1.034v2.035c0 .49.232.742.626.742.395 0 .647-.252.647-.742v-2.035h1.034v3.648h-1.034v-.517c-.238.306-.544.585-1.069.585-.782 0-1.238-.517-1.238-1.354M139.592 45.684h1.035v.517c.238-.306.55-.585 1.075-.585.476 0 .837.211 1.028.579.32-.375.7-.579 1.197-.579.77 0 1.232.463 1.232 1.34v2.376h-1.034v-2.035c0-.49-.218-.742-.606-.742s-.626.252-.626.742v2.035h-1.035v-2.035c0-.49-.218-.742-.605-.742-.388 0-.626.252-.626.742v2.035h-1.035v-3.648zM51.118 54.143h-1.45v-.967h3.948v.967h-1.45v3.797h-1.048zM54.004 52.972h1.034v1.837c.238-.306.545-.585 1.069-.585.782 0 1.238.517 1.238 1.355v2.361h-1.034v-2.035c0-.49-.231-.742-.626-.742s-.647.252-.647.742v2.035h-1.034v-4.968zM60.368 55.83c-.062-.463-.334-.775-.77-.775-.428 0-.707.306-.789.775h1.559zm-2.573.307v-.014c0-1.041.742-1.899 1.803-1.899 1.219 0 1.777.946 1.777 1.98 0 .082-.007.178-.014.273h-2.538c.102.47.429.715.891.715.347 0 .6-.11.885-.375l.592.524c-.34.422-.83.68-1.49.68-1.096 0-1.906-.768-1.906-1.884zM66.486 55.946l-.633-1.545-.633 1.545h1.266zm-1.102-2.804h.966l2.042 4.798h-1.096l-.435-1.069h-2.015l-.436 1.07h-1.068l2.042-4.799zM70.965 55.49c.51 0 .803-.272.803-.674v-.014c0-.449-.313-.68-.824-.68h-1.041v1.368h1.062zm-2.11-2.314h2.178c.606 0 1.075.17 1.388.483.266.266.408.64.408 1.09v.013c0 .769-.415 1.252-1.02 1.477l1.163 1.701h-1.225l-1.02-1.524h-.824v1.524h-1.048v-4.764zM73.293 55.572v-.014c0-1.354 1.055-2.463 2.497-2.463.858 0 1.375.23 1.872.653l-.66.796c-.368-.306-.694-.483-1.246-.483-.762 0-1.367.673-1.367 1.483v.014c0 .871.598 1.51 1.442 1.51.381 0 .722-.094.987-.285v-.68h-1.055v-.906h2.07v2.07a3.092 3.092 0 0 1-2.036.755c-1.483 0-2.504-1.042-2.504-2.45M82.325 55.572v-.014c0-.817-.6-1.497-1.443-1.497-.844 0-1.43.667-1.43 1.483v.014c0 .817.6 1.497 1.443 1.497.844 0 1.43-.667 1.43-1.483m-3.968 0v-.014c0-1.354 1.069-2.463 2.538-2.463 1.47 0 2.525 1.095 2.525 2.45v.013c0 1.354-1.068 2.464-2.538 2.464-1.47 0-2.525-1.096-2.525-2.45M87.729 55.578c.524 0 .83-.312.83-.721v-.014c0-.47-.327-.72-.85-.72h-.81v1.455h.83zm-1.879-2.402h1.947c1.136 0 1.824.674 1.824 1.647v.014c0 1.102-.858 1.674-1.926 1.674h-.797v1.43H85.85v-4.765zM90.016 54.292h1.034v.735c.211-.503.552-.83 1.164-.803v1.082h-.054c-.688 0-1.11.415-1.11 1.286v1.348h-1.034v-3.648zM95.236 56.137v-.014c0-.538-.388-1.007-.96-1.007-.592 0-.946.456-.946.993v.014c0 .538.388 1.007.96 1.007.592 0 .946-.456.946-.993m-2.926 0v-.014c0-1.048.844-1.899 1.98-1.899 1.13 0 1.967.837 1.967 1.885v.014c0 1.048-.844 1.899-1.98 1.899-1.13 0-1.967-.837-1.967-1.885M96.754 53.89h1.089v-.918h-1.09v.919zm-.558 5.119v-.81c.081.013.143.02.218.02.217 0 .367-.116.367-.422v-3.505h1.034v3.587c0 .803-.408 1.17-1.17 1.17-.19 0-.306-.013-.45-.04zM100.912 55.83c-.06-.463-.333-.775-.769-.775-.428 0-.707.306-.79.775h1.56zm-2.572.307v-.014c0-1.041.742-1.899 1.803-1.899 1.219 0 1.776.946 1.776 1.98 0 .082-.006.178-.013.273h-2.539c.103.47.43.715.892.715.347 0 .6-.11.885-.375l.592.524c-.34.422-.83.68-1.49.68-1.096 0-1.906-.768-1.906-1.884zM102.24 56.137v-.014c0-1.041.796-1.899 1.912-1.899.687 0 1.116.232 1.456.613l-.632.68c-.232-.245-.463-.401-.83-.401-.518 0-.885.456-.885.993v.014c0 .558.36 1.007.925 1.007.347 0 .586-.15.837-.388l.606.613c-.354.388-.762.667-1.49.667a1.863 1.863 0 0 1-1.9-1.885M106.201 56.906v-1.73h-.436v-.884h.436v-.932h1.034v.932h.858v.885h-.858v1.558c0 .239.103.354.334.354.19 0 .36-.047.51-.129v.83c-.217.13-.47.211-.816.211-.633 0-1.062-.252-1.062-1.095"/>
        <path d="M121.726 11.571c-.523-1.316-1.314-2.234-2.2-2.432l-.059-.005v2.437h2.259zM115.955 14.94h2.912v-2.768h-2.47c-.256.827-.415 1.77-.442 2.769M116.397 18.31h2.47V15.54h-2.912c.027.998.186 1.942.442 2.769M122.578 18.31h1.854a6.12 6.12 0 0 0 .792-2.769h-2.245c-.024 1-.165 1.936-.4 2.769M118.867 11.571V9.125h-.005c-.909.173-1.72 1.103-2.254 2.446h2.259zM122.578 12.172c.236.833.377 1.769.4 2.769h2.243a6.12 6.12 0 0 0-.832-2.77h-1.81zM122.386 11.571h1.603a6.172 6.172 0 0 0-2.8-2.077c.483.525.892 1.233 1.197 2.077M118.867 21.357V18.91h-2.259c.535 1.346 1.348 2.278 2.259 2.447M115.948 18.91h-1.847a6.166 6.166 0 0 0 3.24 2.277c-.57-.537-1.048-1.32-1.393-2.277M113.756 12.172a6.12 6.12 0 0 0-.832 2.769h2.43c.024-1 .166-1.936.402-2.77h-2zM115.355 15.541h-2.434a6.12 6.12 0 0 0 .792 2.769h2.043a11.196 11.196 0 0 1-.401-2.769M122.386 18.91c-.327.905-.773 1.654-1.301 2.188a6.17 6.17 0 0 0 2.959-2.188h-1.658zM122.378 15.541h-2.91v2.769h2.469c.256-.827.415-1.77.441-2.769M119.467 18.91v2.448c.91-.17 1.724-1.102 2.259-2.448h-2.259zM115.948 11.571c.323-.896.764-1.639 1.286-2.172a6.17 6.17 0 0 0-3.078 2.172h1.792zM121.937 12.172h-2.47v2.769h2.911a10.363 10.363 0 0 0-.441-2.77" fill="#DE1D43" mask="url(#bs6imexl3h)"/>
    </g>
</svg>
