<svg xmlns="http://www.w3.org/2000/svg" width="50" height="50" viewBox="0 0 50 50">
    <g fill="none" fill-rule="evenodd">
        <g>
            <g>
                <g>
                    <g>
                        <g>
                            <g>
                                <g transform="translate(-757 -571) translate(0 63) translate(87.877 381) translate(669.123) translate(0 57) translate(0 70)">
                                    <circle cx="25" cy="25" r="25" fill="#FDD6CB"/>
                                    <g fill="#EF4110">
                                        <path d="M20.193 25.536v-2.869l2.019-3.52v6.467c0 1.112-.8 1.886-1.942 1.886H1.935C.792 27.5 0 26.726 0 25.614V2.009C0 .897.792 0 1.935 0H20.27c1.143 0 1.942.897 1.942 2.009v7.227l-2.02 3.52V1.964H2.02v23.572h18.173zM4.23 4.23h11.634v1.057H4.231V4.231zm0 7.404h11.634v1.057H4.231v-1.057zm0-3.173h14.807v1.057H4.231V8.462zm0 6.346h14.807v1.057H4.231v-1.057zm0 3.173h11.634v1.057H4.231v-1.057zM25.21 6.346l2.289.975-.618.797-.265.344-2.29-.975.267-.344.617-.797zM16.923 20.85l7.435-12.388 2.084 1.16-7.377 12.39-2.142 1.257V20.85zm-9.52-.024l-.855.855.856.857-.73.731-.857-.856-.856.856-.73-.73.856-.858-.856-.855.73-.73.856.855.856-.855.73.73zm0 1.386h7.405v1.057H7.404v-1.057z" transform="translate(13.75 11.25)"/>
                                    </g>
                                </g>
                            </g>
                        </g>
                    </g>
                </g>
            </g>
        </g>
    </g>
</svg>
